%TF.GenerationSoftware,KiCad,Pcbnew,9.0.2*%
%TF.CreationDate,2025-07-27T21:59:35+02:00*%
%TF.ProjectId,USB-RS485_FT230,5553422d-5253-4343-9835-5f4654323330,rev?*%
%TF.SameCoordinates,Original*%
%TF.FileFunction,Legend,Top*%
%TF.FilePolarity,Positive*%
%FSLAX46Y46*%
G04 Gerber Fmt 4.6, Leading zero omitted, Abs format (unit mm)*
G04 Created by KiCad (PCBNEW 9.0.2) date 2025-07-27 21:59:35*
%MOMM*%
%LPD*%
G01*
G04 APERTURE LIST*
%ADD10C,0.250000*%
%ADD11C,0.200000*%
%ADD12C,0.150000*%
%ADD13C,0.120000*%
%ADD14C,0.100000*%
G04 APERTURE END LIST*
D10*
X169330901Y-91069718D02*
X169473758Y-91117337D01*
X169473758Y-91117337D02*
X169521377Y-91164956D01*
X169521377Y-91164956D02*
X169568996Y-91260194D01*
X169568996Y-91260194D02*
X169568996Y-91403051D01*
X169568996Y-91403051D02*
X169521377Y-91498289D01*
X169521377Y-91498289D02*
X169473758Y-91545909D01*
X169473758Y-91545909D02*
X169378520Y-91593528D01*
X169378520Y-91593528D02*
X168997568Y-91593528D01*
X168997568Y-91593528D02*
X168997568Y-90593528D01*
X168997568Y-90593528D02*
X169330901Y-90593528D01*
X169330901Y-90593528D02*
X169426139Y-90641147D01*
X169426139Y-90641147D02*
X169473758Y-90688766D01*
X169473758Y-90688766D02*
X169521377Y-90784004D01*
X169521377Y-90784004D02*
X169521377Y-90879242D01*
X169521377Y-90879242D02*
X169473758Y-90974480D01*
X169473758Y-90974480D02*
X169426139Y-91022099D01*
X169426139Y-91022099D02*
X169330901Y-91069718D01*
X169330901Y-91069718D02*
X168997568Y-91069718D01*
X168054711Y-98103528D02*
X168388044Y-99103528D01*
X168388044Y-99103528D02*
X168721377Y-98103528D01*
X169483282Y-99055909D02*
X169388044Y-99103528D01*
X169388044Y-99103528D02*
X169197568Y-99103528D01*
X169197568Y-99103528D02*
X169102330Y-99055909D01*
X169102330Y-99055909D02*
X169054711Y-99008289D01*
X169054711Y-99008289D02*
X169007092Y-98913051D01*
X169007092Y-98913051D02*
X169007092Y-98627337D01*
X169007092Y-98627337D02*
X169054711Y-98532099D01*
X169054711Y-98532099D02*
X169102330Y-98484480D01*
X169102330Y-98484480D02*
X169197568Y-98436861D01*
X169197568Y-98436861D02*
X169388044Y-98436861D01*
X169388044Y-98436861D02*
X169483282Y-98484480D01*
X170340425Y-99055909D02*
X170245187Y-99103528D01*
X170245187Y-99103528D02*
X170054711Y-99103528D01*
X170054711Y-99103528D02*
X169959473Y-99055909D01*
X169959473Y-99055909D02*
X169911854Y-99008289D01*
X169911854Y-99008289D02*
X169864235Y-98913051D01*
X169864235Y-98913051D02*
X169864235Y-98627337D01*
X169864235Y-98627337D02*
X169911854Y-98532099D01*
X169911854Y-98532099D02*
X169959473Y-98484480D01*
X169959473Y-98484480D02*
X170054711Y-98436861D01*
X170054711Y-98436861D02*
X170245187Y-98436861D01*
X170245187Y-98436861D02*
X170340425Y-98484480D01*
D11*
X153491695Y-91509711D02*
X153110742Y-91776378D01*
X153491695Y-91966854D02*
X152691695Y-91966854D01*
X152691695Y-91966854D02*
X152691695Y-91662092D01*
X152691695Y-91662092D02*
X152729790Y-91585902D01*
X152729790Y-91585902D02*
X152767885Y-91547807D01*
X152767885Y-91547807D02*
X152844076Y-91509711D01*
X152844076Y-91509711D02*
X152958361Y-91509711D01*
X152958361Y-91509711D02*
X153034552Y-91547807D01*
X153034552Y-91547807D02*
X153072647Y-91585902D01*
X153072647Y-91585902D02*
X153110742Y-91662092D01*
X153110742Y-91662092D02*
X153110742Y-91966854D01*
X153453600Y-91204950D02*
X153491695Y-91090664D01*
X153491695Y-91090664D02*
X153491695Y-90900188D01*
X153491695Y-90900188D02*
X153453600Y-90823997D01*
X153453600Y-90823997D02*
X153415504Y-90785902D01*
X153415504Y-90785902D02*
X153339314Y-90747807D01*
X153339314Y-90747807D02*
X153263123Y-90747807D01*
X153263123Y-90747807D02*
X153186933Y-90785902D01*
X153186933Y-90785902D02*
X153148838Y-90823997D01*
X153148838Y-90823997D02*
X153110742Y-90900188D01*
X153110742Y-90900188D02*
X153072647Y-91052569D01*
X153072647Y-91052569D02*
X153034552Y-91128759D01*
X153034552Y-91128759D02*
X152996457Y-91166854D01*
X152996457Y-91166854D02*
X152920266Y-91204950D01*
X152920266Y-91204950D02*
X152844076Y-91204950D01*
X152844076Y-91204950D02*
X152767885Y-91166854D01*
X152767885Y-91166854D02*
X152729790Y-91128759D01*
X152729790Y-91128759D02*
X152691695Y-91052569D01*
X152691695Y-91052569D02*
X152691695Y-90862092D01*
X152691695Y-90862092D02*
X152729790Y-90747807D01*
X152958361Y-90062092D02*
X153491695Y-90062092D01*
X152653600Y-90252568D02*
X153225028Y-90443045D01*
X153225028Y-90443045D02*
X153225028Y-89947806D01*
X153034552Y-89528759D02*
X152996457Y-89604949D01*
X152996457Y-89604949D02*
X152958361Y-89643044D01*
X152958361Y-89643044D02*
X152882171Y-89681140D01*
X152882171Y-89681140D02*
X152844076Y-89681140D01*
X152844076Y-89681140D02*
X152767885Y-89643044D01*
X152767885Y-89643044D02*
X152729790Y-89604949D01*
X152729790Y-89604949D02*
X152691695Y-89528759D01*
X152691695Y-89528759D02*
X152691695Y-89376378D01*
X152691695Y-89376378D02*
X152729790Y-89300187D01*
X152729790Y-89300187D02*
X152767885Y-89262092D01*
X152767885Y-89262092D02*
X152844076Y-89223997D01*
X152844076Y-89223997D02*
X152882171Y-89223997D01*
X152882171Y-89223997D02*
X152958361Y-89262092D01*
X152958361Y-89262092D02*
X152996457Y-89300187D01*
X152996457Y-89300187D02*
X153034552Y-89376378D01*
X153034552Y-89376378D02*
X153034552Y-89528759D01*
X153034552Y-89528759D02*
X153072647Y-89604949D01*
X153072647Y-89604949D02*
X153110742Y-89643044D01*
X153110742Y-89643044D02*
X153186933Y-89681140D01*
X153186933Y-89681140D02*
X153339314Y-89681140D01*
X153339314Y-89681140D02*
X153415504Y-89643044D01*
X153415504Y-89643044D02*
X153453600Y-89604949D01*
X153453600Y-89604949D02*
X153491695Y-89528759D01*
X153491695Y-89528759D02*
X153491695Y-89376378D01*
X153491695Y-89376378D02*
X153453600Y-89300187D01*
X153453600Y-89300187D02*
X153415504Y-89262092D01*
X153415504Y-89262092D02*
X153339314Y-89223997D01*
X153339314Y-89223997D02*
X153186933Y-89223997D01*
X153186933Y-89223997D02*
X153110742Y-89262092D01*
X153110742Y-89262092D02*
X153072647Y-89300187D01*
X153072647Y-89300187D02*
X153034552Y-89376378D01*
X152691695Y-88500187D02*
X152691695Y-88881139D01*
X152691695Y-88881139D02*
X153072647Y-88919235D01*
X153072647Y-88919235D02*
X153034552Y-88881139D01*
X153034552Y-88881139D02*
X152996457Y-88804949D01*
X152996457Y-88804949D02*
X152996457Y-88614473D01*
X152996457Y-88614473D02*
X153034552Y-88538282D01*
X153034552Y-88538282D02*
X153072647Y-88500187D01*
X153072647Y-88500187D02*
X153148838Y-88462092D01*
X153148838Y-88462092D02*
X153339314Y-88462092D01*
X153339314Y-88462092D02*
X153415504Y-88500187D01*
X153415504Y-88500187D02*
X153453600Y-88538282D01*
X153453600Y-88538282D02*
X153491695Y-88614473D01*
X153491695Y-88614473D02*
X153491695Y-88804949D01*
X153491695Y-88804949D02*
X153453600Y-88881139D01*
X153453600Y-88881139D02*
X153415504Y-88919235D01*
D10*
X168571377Y-100921147D02*
X168476139Y-100873528D01*
X168476139Y-100873528D02*
X168333282Y-100873528D01*
X168333282Y-100873528D02*
X168190425Y-100921147D01*
X168190425Y-100921147D02*
X168095187Y-101016385D01*
X168095187Y-101016385D02*
X168047568Y-101111623D01*
X168047568Y-101111623D02*
X167999949Y-101302099D01*
X167999949Y-101302099D02*
X167999949Y-101444956D01*
X167999949Y-101444956D02*
X168047568Y-101635432D01*
X168047568Y-101635432D02*
X168095187Y-101730670D01*
X168095187Y-101730670D02*
X168190425Y-101825909D01*
X168190425Y-101825909D02*
X168333282Y-101873528D01*
X168333282Y-101873528D02*
X168428520Y-101873528D01*
X168428520Y-101873528D02*
X168571377Y-101825909D01*
X168571377Y-101825909D02*
X168618996Y-101778289D01*
X168618996Y-101778289D02*
X168618996Y-101444956D01*
X168618996Y-101444956D02*
X168428520Y-101444956D01*
X169047568Y-101873528D02*
X169047568Y-100873528D01*
X169047568Y-100873528D02*
X169618996Y-101873528D01*
X169618996Y-101873528D02*
X169618996Y-100873528D01*
X170095187Y-101873528D02*
X170095187Y-100873528D01*
X170095187Y-100873528D02*
X170333282Y-100873528D01*
X170333282Y-100873528D02*
X170476139Y-100921147D01*
X170476139Y-100921147D02*
X170571377Y-101016385D01*
X170571377Y-101016385D02*
X170618996Y-101111623D01*
X170618996Y-101111623D02*
X170666615Y-101302099D01*
X170666615Y-101302099D02*
X170666615Y-101444956D01*
X170666615Y-101444956D02*
X170618996Y-101635432D01*
X170618996Y-101635432D02*
X170571377Y-101730670D01*
X170571377Y-101730670D02*
X170476139Y-101825909D01*
X170476139Y-101825909D02*
X170333282Y-101873528D01*
X170333282Y-101873528D02*
X170095187Y-101873528D01*
X169188996Y-94063528D02*
X168855663Y-93587337D01*
X168617568Y-94063528D02*
X168617568Y-93063528D01*
X168617568Y-93063528D02*
X168998520Y-93063528D01*
X168998520Y-93063528D02*
X169093758Y-93111147D01*
X169093758Y-93111147D02*
X169141377Y-93158766D01*
X169141377Y-93158766D02*
X169188996Y-93254004D01*
X169188996Y-93254004D02*
X169188996Y-93396861D01*
X169188996Y-93396861D02*
X169141377Y-93492099D01*
X169141377Y-93492099D02*
X169093758Y-93539718D01*
X169093758Y-93539718D02*
X168998520Y-93587337D01*
X168998520Y-93587337D02*
X168617568Y-93587337D01*
X169522330Y-94063528D02*
X170046139Y-93396861D01*
X169522330Y-93396861D02*
X170046139Y-94063528D01*
X168594711Y-95493528D02*
X169166139Y-95493528D01*
X168880425Y-96493528D02*
X168880425Y-95493528D01*
X169404235Y-96493528D02*
X169928044Y-95826861D01*
X169404235Y-95826861D02*
X169928044Y-96493528D01*
X169019949Y-88607813D02*
X169496139Y-88607813D01*
X168924711Y-88893528D02*
X169258044Y-87893528D01*
X169258044Y-87893528D02*
X169591377Y-88893528D01*
D11*
X161221695Y-90528898D02*
X161221695Y-90986041D01*
X161221695Y-90757469D02*
X160421695Y-90757469D01*
X160421695Y-90757469D02*
X160535980Y-90833660D01*
X160535980Y-90833660D02*
X160612171Y-90909850D01*
X160612171Y-90909850D02*
X160650266Y-90986041D01*
X161145504Y-90186040D02*
X161183600Y-90147945D01*
X161183600Y-90147945D02*
X161221695Y-90186040D01*
X161221695Y-90186040D02*
X161183600Y-90224136D01*
X161183600Y-90224136D02*
X161145504Y-90186040D01*
X161145504Y-90186040D02*
X161221695Y-90186040D01*
X160764552Y-89690803D02*
X160726457Y-89766993D01*
X160726457Y-89766993D02*
X160688361Y-89805088D01*
X160688361Y-89805088D02*
X160612171Y-89843184D01*
X160612171Y-89843184D02*
X160574076Y-89843184D01*
X160574076Y-89843184D02*
X160497885Y-89805088D01*
X160497885Y-89805088D02*
X160459790Y-89766993D01*
X160459790Y-89766993D02*
X160421695Y-89690803D01*
X160421695Y-89690803D02*
X160421695Y-89538422D01*
X160421695Y-89538422D02*
X160459790Y-89462231D01*
X160459790Y-89462231D02*
X160497885Y-89424136D01*
X160497885Y-89424136D02*
X160574076Y-89386041D01*
X160574076Y-89386041D02*
X160612171Y-89386041D01*
X160612171Y-89386041D02*
X160688361Y-89424136D01*
X160688361Y-89424136D02*
X160726457Y-89462231D01*
X160726457Y-89462231D02*
X160764552Y-89538422D01*
X160764552Y-89538422D02*
X160764552Y-89690803D01*
X160764552Y-89690803D02*
X160802647Y-89766993D01*
X160802647Y-89766993D02*
X160840742Y-89805088D01*
X160840742Y-89805088D02*
X160916933Y-89843184D01*
X160916933Y-89843184D02*
X161069314Y-89843184D01*
X161069314Y-89843184D02*
X161145504Y-89805088D01*
X161145504Y-89805088D02*
X161183600Y-89766993D01*
X161183600Y-89766993D02*
X161221695Y-89690803D01*
X161221695Y-89690803D02*
X161221695Y-89538422D01*
X161221695Y-89538422D02*
X161183600Y-89462231D01*
X161183600Y-89462231D02*
X161145504Y-89424136D01*
X161145504Y-89424136D02*
X161069314Y-89386041D01*
X161069314Y-89386041D02*
X160916933Y-89386041D01*
X160916933Y-89386041D02*
X160840742Y-89424136D01*
X160840742Y-89424136D02*
X160802647Y-89462231D01*
X160802647Y-89462231D02*
X160764552Y-89538422D01*
X160421695Y-89157469D02*
X161221695Y-88890802D01*
X161221695Y-88890802D02*
X160421695Y-88624136D01*
X157671695Y-90994136D02*
X157671695Y-90498898D01*
X157671695Y-90498898D02*
X157976457Y-90765564D01*
X157976457Y-90765564D02*
X157976457Y-90651279D01*
X157976457Y-90651279D02*
X158014552Y-90575088D01*
X158014552Y-90575088D02*
X158052647Y-90536993D01*
X158052647Y-90536993D02*
X158128838Y-90498898D01*
X158128838Y-90498898D02*
X158319314Y-90498898D01*
X158319314Y-90498898D02*
X158395504Y-90536993D01*
X158395504Y-90536993D02*
X158433600Y-90575088D01*
X158433600Y-90575088D02*
X158471695Y-90651279D01*
X158471695Y-90651279D02*
X158471695Y-90879850D01*
X158471695Y-90879850D02*
X158433600Y-90956041D01*
X158433600Y-90956041D02*
X158395504Y-90994136D01*
X158395504Y-90156040D02*
X158433600Y-90117945D01*
X158433600Y-90117945D02*
X158471695Y-90156040D01*
X158471695Y-90156040D02*
X158433600Y-90194136D01*
X158433600Y-90194136D02*
X158395504Y-90156040D01*
X158395504Y-90156040D02*
X158471695Y-90156040D01*
X157671695Y-89851279D02*
X157671695Y-89356041D01*
X157671695Y-89356041D02*
X157976457Y-89622707D01*
X157976457Y-89622707D02*
X157976457Y-89508422D01*
X157976457Y-89508422D02*
X158014552Y-89432231D01*
X158014552Y-89432231D02*
X158052647Y-89394136D01*
X158052647Y-89394136D02*
X158128838Y-89356041D01*
X158128838Y-89356041D02*
X158319314Y-89356041D01*
X158319314Y-89356041D02*
X158395504Y-89394136D01*
X158395504Y-89394136D02*
X158433600Y-89432231D01*
X158433600Y-89432231D02*
X158471695Y-89508422D01*
X158471695Y-89508422D02*
X158471695Y-89736993D01*
X158471695Y-89736993D02*
X158433600Y-89813184D01*
X158433600Y-89813184D02*
X158395504Y-89851279D01*
X157671695Y-89127469D02*
X158471695Y-88860802D01*
X158471695Y-88860802D02*
X157671695Y-88594136D01*
D10*
X168511377Y-85511147D02*
X168416139Y-85463528D01*
X168416139Y-85463528D02*
X168273282Y-85463528D01*
X168273282Y-85463528D02*
X168130425Y-85511147D01*
X168130425Y-85511147D02*
X168035187Y-85606385D01*
X168035187Y-85606385D02*
X167987568Y-85701623D01*
X167987568Y-85701623D02*
X167939949Y-85892099D01*
X167939949Y-85892099D02*
X167939949Y-86034956D01*
X167939949Y-86034956D02*
X167987568Y-86225432D01*
X167987568Y-86225432D02*
X168035187Y-86320670D01*
X168035187Y-86320670D02*
X168130425Y-86415909D01*
X168130425Y-86415909D02*
X168273282Y-86463528D01*
X168273282Y-86463528D02*
X168368520Y-86463528D01*
X168368520Y-86463528D02*
X168511377Y-86415909D01*
X168511377Y-86415909D02*
X168558996Y-86368289D01*
X168558996Y-86368289D02*
X168558996Y-86034956D01*
X168558996Y-86034956D02*
X168368520Y-86034956D01*
X168987568Y-86463528D02*
X168987568Y-85463528D01*
X168987568Y-85463528D02*
X169558996Y-86463528D01*
X169558996Y-86463528D02*
X169558996Y-85463528D01*
X170035187Y-86463528D02*
X170035187Y-85463528D01*
X170035187Y-85463528D02*
X170273282Y-85463528D01*
X170273282Y-85463528D02*
X170416139Y-85511147D01*
X170416139Y-85511147D02*
X170511377Y-85606385D01*
X170511377Y-85606385D02*
X170558996Y-85701623D01*
X170558996Y-85701623D02*
X170606615Y-85892099D01*
X170606615Y-85892099D02*
X170606615Y-86034956D01*
X170606615Y-86034956D02*
X170558996Y-86225432D01*
X170558996Y-86225432D02*
X170511377Y-86320670D01*
X170511377Y-86320670D02*
X170416139Y-86415909D01*
X170416139Y-86415909D02*
X170273282Y-86463528D01*
X170273282Y-86463528D02*
X170035187Y-86463528D01*
D11*
X155086695Y-89396993D02*
X155086695Y-89777945D01*
X155086695Y-89777945D02*
X155467647Y-89816041D01*
X155467647Y-89816041D02*
X155429552Y-89777945D01*
X155429552Y-89777945D02*
X155391457Y-89701755D01*
X155391457Y-89701755D02*
X155391457Y-89511279D01*
X155391457Y-89511279D02*
X155429552Y-89435088D01*
X155429552Y-89435088D02*
X155467647Y-89396993D01*
X155467647Y-89396993D02*
X155543838Y-89358898D01*
X155543838Y-89358898D02*
X155734314Y-89358898D01*
X155734314Y-89358898D02*
X155810504Y-89396993D01*
X155810504Y-89396993D02*
X155848600Y-89435088D01*
X155848600Y-89435088D02*
X155886695Y-89511279D01*
X155886695Y-89511279D02*
X155886695Y-89701755D01*
X155886695Y-89701755D02*
X155848600Y-89777945D01*
X155848600Y-89777945D02*
X155810504Y-89816041D01*
X155086695Y-89130326D02*
X155886695Y-88863659D01*
X155886695Y-88863659D02*
X155086695Y-88596993D01*
D12*
X145824524Y-101456228D02*
X146395952Y-101456228D01*
X146110238Y-102456228D02*
X146110238Y-101456228D01*
X146634048Y-102456228D02*
X147157857Y-101789561D01*
X146634048Y-101789561D02*
X147157857Y-102456228D01*
X128975180Y-93055575D02*
X128260895Y-93055575D01*
X128260895Y-93055575D02*
X128118038Y-93007956D01*
X128118038Y-93007956D02*
X128022800Y-92912718D01*
X128022800Y-92912718D02*
X127975180Y-92769861D01*
X127975180Y-92769861D02*
X127975180Y-92674623D01*
X127975180Y-94055575D02*
X127975180Y-93484147D01*
X127975180Y-93769861D02*
X128975180Y-93769861D01*
X128975180Y-93769861D02*
X128832323Y-93674623D01*
X128832323Y-93674623D02*
X128737085Y-93579385D01*
X128737085Y-93579385D02*
X128689466Y-93484147D01*
X139989761Y-102256228D02*
X139656428Y-101780037D01*
X139418333Y-102256228D02*
X139418333Y-101256228D01*
X139418333Y-101256228D02*
X139799285Y-101256228D01*
X139799285Y-101256228D02*
X139894523Y-101303847D01*
X139894523Y-101303847D02*
X139942142Y-101351466D01*
X139942142Y-101351466D02*
X139989761Y-101446704D01*
X139989761Y-101446704D02*
X139989761Y-101589561D01*
X139989761Y-101589561D02*
X139942142Y-101684799D01*
X139942142Y-101684799D02*
X139894523Y-101732418D01*
X139894523Y-101732418D02*
X139799285Y-101780037D01*
X139799285Y-101780037D02*
X139418333Y-101780037D01*
X140323095Y-102256228D02*
X140846904Y-101589561D01*
X140323095Y-101589561D02*
X140846904Y-102256228D01*
D13*
%TO.C,D3*%
X163022500Y-92028909D02*
X162372500Y-92028909D01*
X163022500Y-92028909D02*
X163672500Y-92028909D01*
X163022500Y-95148909D02*
X162372500Y-95148909D01*
X163022500Y-95148909D02*
X163672500Y-95148909D01*
X161860000Y-92078909D02*
X161620000Y-91748909D01*
X162100000Y-91748909D01*
X161860000Y-92078909D01*
G36*
X161860000Y-92078909D02*
G01*
X161620000Y-91748909D01*
X162100000Y-91748909D01*
X161860000Y-92078909D01*
G37*
%TO.C,R7*%
X165360000Y-93815973D02*
X165360000Y-93361845D01*
X166830000Y-93815973D02*
X166830000Y-93361845D01*
%TO.C,C4*%
X135403748Y-98213909D02*
X135926252Y-98213909D01*
X135403748Y-99683909D02*
X135926252Y-99683909D01*
%TO.C,U3*%
X154045000Y-92288909D02*
X152095000Y-92288909D01*
X154045000Y-92288909D02*
X155995000Y-92288909D01*
X154045000Y-97408909D02*
X152095000Y-97408909D01*
X154045000Y-97408909D02*
X155995000Y-97408909D01*
X151345000Y-92383909D02*
X151105000Y-92053909D01*
X151585000Y-92053909D01*
X151345000Y-92383909D01*
G36*
X151345000Y-92383909D02*
G01*
X151105000Y-92053909D01*
X151585000Y-92053909D01*
X151345000Y-92383909D01*
G37*
%TO.C,C12*%
X160800000Y-98330161D02*
X160800000Y-97807657D01*
X162270000Y-98330161D02*
X162270000Y-97807657D01*
%TO.C,R1*%
X135882064Y-93728909D02*
X135427936Y-93728909D01*
X135882064Y-95198909D02*
X135427936Y-95198909D01*
%TO.C,R4*%
X131782064Y-100703909D02*
X131327936Y-100703909D01*
X131782064Y-102173909D02*
X131327936Y-102173909D01*
%TO.C,C9*%
X145663748Y-95413909D02*
X146186252Y-95413909D01*
X145663748Y-96883909D02*
X146186252Y-96883909D01*
%TO.C,D1*%
X143555000Y-100163909D02*
X143555000Y-102848909D01*
X145475000Y-100163909D02*
X143555000Y-100163909D01*
X145475000Y-102848909D02*
X145475000Y-100163909D01*
%TO.C,R2*%
X135882064Y-91603909D02*
X135427936Y-91603909D01*
X135882064Y-93073909D02*
X135427936Y-93073909D01*
%TO.C,C15*%
X164836252Y-82713909D02*
X164313748Y-82713909D01*
X164836252Y-84183909D02*
X164313748Y-84183909D01*
%TO.C,J3*%
X171325000Y-84605909D02*
X172705000Y-84605909D01*
X171325000Y-85985909D02*
X171325000Y-84605909D01*
X171325000Y-87255909D02*
X171325000Y-102605909D01*
X171325000Y-87255909D02*
X174085000Y-87255909D01*
X171325000Y-102605909D02*
X174085000Y-102605909D01*
X174085000Y-87255909D02*
X174085000Y-102605909D01*
%TO.C,C1*%
X135906252Y-89373909D02*
X135383748Y-89373909D01*
X135906252Y-90843909D02*
X135383748Y-90843909D01*
%TO.C,C5*%
X138150000Y-88470161D02*
X138150000Y-87947657D01*
X139620000Y-88470161D02*
X139620000Y-87947657D01*
%TO.C,U4*%
X148065000Y-104258909D02*
X148065000Y-102258909D01*
X148305000Y-97798909D02*
X160205000Y-97798909D01*
X148305000Y-104018909D02*
X148305000Y-97798909D01*
X148305000Y-104018909D02*
X160205000Y-104018909D01*
X150065000Y-104258909D02*
X148065000Y-104258909D01*
X160205000Y-104018909D02*
X160205000Y-97798909D01*
%TO.C,D4*%
X164925000Y-101028909D02*
X164925000Y-103713909D01*
X164925000Y-103713909D02*
X166845000Y-103713909D01*
X166845000Y-103713909D02*
X166845000Y-101028909D01*
%TO.C,C7*%
X145683748Y-97923909D02*
X146206252Y-97923909D01*
X145683748Y-99393909D02*
X146206252Y-99393909D01*
%TO.C,R6*%
X135020000Y-101651845D02*
X135020000Y-102105973D01*
X136490000Y-101651845D02*
X136490000Y-102105973D01*
%TO.C,R3*%
X127427936Y-84463909D02*
X127882064Y-84463909D01*
X127427936Y-85933909D02*
X127882064Y-85933909D01*
%TO.C,C3*%
X135926252Y-96013909D02*
X135403748Y-96013909D01*
X135926252Y-97483909D02*
X135403748Y-97483909D01*
%TO.C,C14*%
X160770000Y-102320161D02*
X160770000Y-101797657D01*
X162240000Y-102320161D02*
X162240000Y-101797657D01*
%TO.C,U1*%
X138395000Y-91278909D02*
X139120000Y-91278909D01*
X138395000Y-92003909D02*
X138395000Y-91278909D01*
X138395000Y-94773909D02*
X138395000Y-95498909D01*
X138395000Y-95498909D02*
X139120000Y-95498909D01*
X141890000Y-91278909D02*
X142375000Y-91278909D01*
X142615000Y-92003909D02*
X142615000Y-91578909D01*
X142615000Y-94773909D02*
X142615000Y-95498909D01*
X142615000Y-95498909D02*
X141890000Y-95498909D01*
X142945000Y-91518909D02*
X142615000Y-91278909D01*
X142945000Y-91038909D01*
X142945000Y-91518909D01*
G36*
X142945000Y-91518909D02*
G01*
X142615000Y-91278909D01*
X142945000Y-91038909D01*
X142945000Y-91518909D01*
G37*
%TO.C,C8*%
X146050000Y-87947657D02*
X146050000Y-88470161D01*
X147520000Y-87947657D02*
X147520000Y-88470161D01*
%TO.C,C16*%
X164806252Y-87133909D02*
X164283748Y-87133909D01*
X164806252Y-88603909D02*
X164283748Y-88603909D01*
%TO.C,C6*%
X144150000Y-92887657D02*
X144150000Y-93410161D01*
X145620000Y-92887657D02*
X145620000Y-93410161D01*
%TO.C,U2*%
X140505000Y-87488909D02*
X140505000Y-88888909D01*
X142825000Y-87478909D02*
X142825000Y-88888909D01*
X143105000Y-87348909D02*
X142775000Y-87108909D01*
X143105000Y-86868909D01*
X143105000Y-87348909D01*
G36*
X143105000Y-87348909D02*
G01*
X142775000Y-87108909D01*
X143105000Y-86868909D01*
X143105000Y-87348909D01*
G37*
%TO.C,R8*%
X162920000Y-97821845D02*
X162920000Y-98275973D01*
X164390000Y-97821845D02*
X164390000Y-98275973D01*
%TO.C,C11*%
X164298748Y-89777095D02*
X164821252Y-89777095D01*
X164298748Y-91247095D02*
X164821252Y-91247095D01*
%TO.C,J2*%
X151605000Y-82748909D02*
X151605000Y-88048909D01*
X159335000Y-82748909D02*
X151605000Y-82748909D01*
X159335000Y-82748909D02*
X159335000Y-85398909D01*
X159335000Y-85398909D02*
X161985000Y-85398909D01*
X160605000Y-82748909D02*
X161985000Y-82748909D01*
X161985000Y-82748909D02*
X161985000Y-84128909D01*
X161985000Y-85398909D02*
X161985000Y-88048909D01*
X161985000Y-88048909D02*
X151605000Y-88048909D01*
%TO.C,C13*%
X162950000Y-102310161D02*
X162950000Y-101787657D01*
X164420000Y-102310161D02*
X164420000Y-101787657D01*
%TO.C,C2*%
X135383748Y-87153909D02*
X135906252Y-87153909D01*
X135383748Y-88623909D02*
X135906252Y-88623909D01*
D14*
%TO.C,U6*%
X163445000Y-84593909D02*
X163445000Y-84593909D01*
X163545000Y-84593909D02*
X163545000Y-84593909D01*
X163445000Y-84593909D02*
G75*
G02*
X163545000Y-84593909I50000J0D01*
G01*
X163545000Y-84593909D02*
G75*
G02*
X163445000Y-84593909I-50000J0D01*
G01*
D13*
%TO.C,R9*%
X135882064Y-84933909D02*
X135427936Y-84933909D01*
X135882064Y-86403909D02*
X135427936Y-86403909D01*
%TO.C,J1*%
X128865000Y-88808909D02*
X130275000Y-88808909D01*
X128865000Y-97968909D02*
X130275000Y-97968909D01*
X132945000Y-89628909D02*
X132795000Y-89628909D01*
X132945000Y-90428909D02*
X132945000Y-89628909D01*
%TO.C,D2*%
X137185000Y-100193909D02*
X137185000Y-102878909D01*
X139105000Y-100193909D02*
X137185000Y-100193909D01*
X139105000Y-102878909D02*
X139105000Y-100193909D01*
%TO.C,R5*%
X141420000Y-101611845D02*
X141420000Y-102065973D01*
X142890000Y-101611845D02*
X142890000Y-102065973D01*
%TD*%
M02*
