M48
; DRILL file {KiCad 9.0.2} date 2025-07-27T21:59:31+0200
; FORMAT={-:-/ absolute / metric / decimal}
; #@! TF.CreationDate,2025-07-27T21:59:31+02:00
; #@! TF.GenerationSoftware,Kicad,Pcbnew,9.0.2
; #@! TF.FileFunction,Plated,1,2,PTH
FMAT,2
METRIC
; #@! TA.AperFunction,Plated,PTH,ViaDrill
T1C0.300
; #@! TA.AperFunction,Plated,PTH,ComponentDrill
T2C1.000
%
G90
G05
T1
X127.645Y-99.689
X128.135Y-89.649
X131.335Y-86.879
X133.055Y-98.349
X133.084Y-92.539
X133.084Y-93.739
X133.895Y-96.729
X133.905Y-90.109
X133.925Y-87.889
X133.945Y-85.649
X137.405Y-98.949
X137.625Y-92.639
X137.625Y-94.129
X138.895Y-96.409
X140.085Y-87.459
X140.18Y-90.718
X140.18Y-96.409
X140.455Y-90.02
X142.03Y-90.031
X142.455Y-95.039
X144.205Y-98.649
X144.215Y-96.159
X144.901Y-91.083
X146.155Y-92.389
X146.945Y-92.399
X147.725Y-92.389
X147.795Y-87.239
X148.051Y-94.263
X148.075Y-96.769
X150.705Y-98.019
X151.855Y-87.929
X157.375Y-98.049
X160.015Y-96.749
X160.105Y-90.419
X160.947Y-93.164
X160.947Y-94.014
X161.495Y-102.209
X162.455Y-88.434
X162.475Y-89.71
X162.945Y-93.599
X163.685Y-102.219
X164.533Y-84.488
X164.715Y-83.319
X165.495Y-86.849
X165.875Y-102.199
X166.3Y-90.5
T2
X150.445Y-103.009
X152.985Y-84.129
X152.985Y-86.669
X152.985Y-103.009
X155.525Y-84.129
X155.525Y-86.669
X155.525Y-103.009
X158.065Y-84.129
X158.065Y-86.669
X158.065Y-103.009
X160.605Y-84.129
X160.605Y-86.669
X172.705Y-85.986
X172.705Y-88.526
X172.705Y-91.066
X172.705Y-93.606
X172.705Y-96.146
X172.705Y-98.686
X172.705Y-101.226
M30
