%TF.GenerationSoftware,KiCad,Pcbnew,9.0.2*%
%TF.CreationDate,2025-07-27T21:59:35+02:00*%
%TF.ProjectId,USB-RS485_FT230,5553422d-5253-4343-9835-5f4654323330,rev?*%
%TF.SameCoordinates,Original*%
%TF.FileFunction,Legend,Bot*%
%TF.FilePolarity,Positive*%
%FSLAX46Y46*%
G04 Gerber Fmt 4.6, Leading zero omitted, Abs format (unit mm)*
G04 Created by KiCad (PCBNEW 9.0.2) date 2025-07-27 21:59:35*
%MOMM*%
%LPD*%
G01*
G04 APERTURE LIST*
%ADD10C,0.225000*%
%ADD11C,0.120000*%
%ADD12C,0.010000*%
G04 APERTURE END LIST*
D10*
X150466974Y-84237066D02*
X150466974Y-84965637D01*
X150466974Y-84965637D02*
X150509831Y-85051351D01*
X150509831Y-85051351D02*
X150552688Y-85094209D01*
X150552688Y-85094209D02*
X150638402Y-85137066D01*
X150638402Y-85137066D02*
X150766974Y-85137066D01*
X150766974Y-85137066D02*
X150852688Y-85094209D01*
X150466974Y-84794209D02*
X150552688Y-84837066D01*
X150552688Y-84837066D02*
X150724116Y-84837066D01*
X150724116Y-84837066D02*
X150809831Y-84794209D01*
X150809831Y-84794209D02*
X150852688Y-84751351D01*
X150852688Y-84751351D02*
X150895545Y-84665637D01*
X150895545Y-84665637D02*
X150895545Y-84408494D01*
X150895545Y-84408494D02*
X150852688Y-84322780D01*
X150852688Y-84322780D02*
X150809831Y-84279923D01*
X150809831Y-84279923D02*
X150724116Y-84237066D01*
X150724116Y-84237066D02*
X150552688Y-84237066D01*
X150552688Y-84237066D02*
X150466974Y-84279923D01*
X150038402Y-84837066D02*
X150038402Y-84237066D01*
X150038402Y-83937066D02*
X150081259Y-83979923D01*
X150081259Y-83979923D02*
X150038402Y-84022780D01*
X150038402Y-84022780D02*
X149995545Y-83979923D01*
X149995545Y-83979923D02*
X150038402Y-83937066D01*
X150038402Y-83937066D02*
X150038402Y-84022780D01*
X149738402Y-84237066D02*
X149395545Y-84237066D01*
X149609831Y-83937066D02*
X149609831Y-84708494D01*
X149609831Y-84708494D02*
X149566974Y-84794209D01*
X149566974Y-84794209D02*
X149481259Y-84837066D01*
X149481259Y-84837066D02*
X149395545Y-84837066D01*
X149095545Y-84837066D02*
X149095545Y-83937066D01*
X148709831Y-84837066D02*
X148709831Y-84365637D01*
X148709831Y-84365637D02*
X148752688Y-84279923D01*
X148752688Y-84279923D02*
X148838402Y-84237066D01*
X148838402Y-84237066D02*
X148966973Y-84237066D01*
X148966973Y-84237066D02*
X149052688Y-84279923D01*
X149052688Y-84279923D02*
X149095545Y-84322780D01*
X147895545Y-84237066D02*
X147895545Y-84837066D01*
X148281259Y-84237066D02*
X148281259Y-84708494D01*
X148281259Y-84708494D02*
X148238402Y-84794209D01*
X148238402Y-84794209D02*
X148152687Y-84837066D01*
X148152687Y-84837066D02*
X148024116Y-84837066D01*
X148024116Y-84837066D02*
X147938402Y-84794209D01*
X147938402Y-84794209D02*
X147895545Y-84751351D01*
X147466973Y-84837066D02*
X147466973Y-83937066D01*
X147466973Y-84279923D02*
X147381259Y-84237066D01*
X147381259Y-84237066D02*
X147209830Y-84237066D01*
X147209830Y-84237066D02*
X147124116Y-84279923D01*
X147124116Y-84279923D02*
X147081259Y-84322780D01*
X147081259Y-84322780D02*
X147038401Y-84408494D01*
X147038401Y-84408494D02*
X147038401Y-84665637D01*
X147038401Y-84665637D02*
X147081259Y-84751351D01*
X147081259Y-84751351D02*
X147124116Y-84794209D01*
X147124116Y-84794209D02*
X147209830Y-84837066D01*
X147209830Y-84837066D02*
X147381259Y-84837066D01*
X147381259Y-84837066D02*
X147466973Y-84794209D01*
X146652687Y-84751351D02*
X146609830Y-84794209D01*
X146609830Y-84794209D02*
X146652687Y-84837066D01*
X146652687Y-84837066D02*
X146695544Y-84794209D01*
X146695544Y-84794209D02*
X146652687Y-84751351D01*
X146652687Y-84751351D02*
X146652687Y-84837066D01*
X145838402Y-84794209D02*
X145924116Y-84837066D01*
X145924116Y-84837066D02*
X146095544Y-84837066D01*
X146095544Y-84837066D02*
X146181259Y-84794209D01*
X146181259Y-84794209D02*
X146224116Y-84751351D01*
X146224116Y-84751351D02*
X146266973Y-84665637D01*
X146266973Y-84665637D02*
X146266973Y-84408494D01*
X146266973Y-84408494D02*
X146224116Y-84322780D01*
X146224116Y-84322780D02*
X146181259Y-84279923D01*
X146181259Y-84279923D02*
X146095544Y-84237066D01*
X146095544Y-84237066D02*
X145924116Y-84237066D01*
X145924116Y-84237066D02*
X145838402Y-84279923D01*
X145324115Y-84837066D02*
X145409830Y-84794209D01*
X145409830Y-84794209D02*
X145452687Y-84751351D01*
X145452687Y-84751351D02*
X145495544Y-84665637D01*
X145495544Y-84665637D02*
X145495544Y-84408494D01*
X145495544Y-84408494D02*
X145452687Y-84322780D01*
X145452687Y-84322780D02*
X145409830Y-84279923D01*
X145409830Y-84279923D02*
X145324115Y-84237066D01*
X145324115Y-84237066D02*
X145195544Y-84237066D01*
X145195544Y-84237066D02*
X145109830Y-84279923D01*
X145109830Y-84279923D02*
X145066973Y-84322780D01*
X145066973Y-84322780D02*
X145024115Y-84408494D01*
X145024115Y-84408494D02*
X145024115Y-84665637D01*
X145024115Y-84665637D02*
X145066973Y-84751351D01*
X145066973Y-84751351D02*
X145109830Y-84794209D01*
X145109830Y-84794209D02*
X145195544Y-84837066D01*
X145195544Y-84837066D02*
X145324115Y-84837066D01*
X144638401Y-84837066D02*
X144638401Y-84237066D01*
X144638401Y-84322780D02*
X144595544Y-84279923D01*
X144595544Y-84279923D02*
X144509829Y-84237066D01*
X144509829Y-84237066D02*
X144381258Y-84237066D01*
X144381258Y-84237066D02*
X144295544Y-84279923D01*
X144295544Y-84279923D02*
X144252687Y-84365637D01*
X144252687Y-84365637D02*
X144252687Y-84837066D01*
X144252687Y-84365637D02*
X144209829Y-84279923D01*
X144209829Y-84279923D02*
X144124115Y-84237066D01*
X144124115Y-84237066D02*
X143995544Y-84237066D01*
X143995544Y-84237066D02*
X143909829Y-84279923D01*
X143909829Y-84279923D02*
X143866972Y-84365637D01*
X143866972Y-84365637D02*
X143866972Y-84837066D01*
X142795544Y-83894209D02*
X143566972Y-85051351D01*
X142152687Y-84794209D02*
X142238401Y-84837066D01*
X142238401Y-84837066D02*
X142409830Y-84837066D01*
X142409830Y-84837066D02*
X142495544Y-84794209D01*
X142495544Y-84794209D02*
X142538401Y-84708494D01*
X142538401Y-84708494D02*
X142538401Y-84365637D01*
X142538401Y-84365637D02*
X142495544Y-84279923D01*
X142495544Y-84279923D02*
X142409830Y-84237066D01*
X142409830Y-84237066D02*
X142238401Y-84237066D01*
X142238401Y-84237066D02*
X142152687Y-84279923D01*
X142152687Y-84279923D02*
X142109830Y-84365637D01*
X142109830Y-84365637D02*
X142109830Y-84451351D01*
X142109830Y-84451351D02*
X142538401Y-84537066D01*
X141809829Y-84237066D02*
X141595543Y-84837066D01*
X141595543Y-84837066D02*
X141381258Y-84237066D01*
X140695544Y-84794209D02*
X140781258Y-84837066D01*
X140781258Y-84837066D02*
X140952687Y-84837066D01*
X140952687Y-84837066D02*
X141038401Y-84794209D01*
X141038401Y-84794209D02*
X141081258Y-84708494D01*
X141081258Y-84708494D02*
X141081258Y-84365637D01*
X141081258Y-84365637D02*
X141038401Y-84279923D01*
X141038401Y-84279923D02*
X140952687Y-84237066D01*
X140952687Y-84237066D02*
X140781258Y-84237066D01*
X140781258Y-84237066D02*
X140695544Y-84279923D01*
X140695544Y-84279923D02*
X140652687Y-84365637D01*
X140652687Y-84365637D02*
X140652687Y-84451351D01*
X140652687Y-84451351D02*
X141081258Y-84537066D01*
X140266972Y-84237066D02*
X140266972Y-84837066D01*
X140266972Y-84322780D02*
X140224115Y-84279923D01*
X140224115Y-84279923D02*
X140138400Y-84237066D01*
X140138400Y-84237066D02*
X140009829Y-84237066D01*
X140009829Y-84237066D02*
X139924115Y-84279923D01*
X139924115Y-84279923D02*
X139881258Y-84365637D01*
X139881258Y-84365637D02*
X139881258Y-84837066D01*
X139452686Y-84494209D02*
X138766972Y-84494209D01*
X138338400Y-84237066D02*
X138338400Y-84837066D01*
X138338400Y-84322780D02*
X138295543Y-84279923D01*
X138295543Y-84279923D02*
X138209828Y-84237066D01*
X138209828Y-84237066D02*
X138081257Y-84237066D01*
X138081257Y-84237066D02*
X137995543Y-84279923D01*
X137995543Y-84279923D02*
X137952686Y-84365637D01*
X137952686Y-84365637D02*
X137952686Y-84837066D01*
X137395542Y-84837066D02*
X137481257Y-84794209D01*
X137481257Y-84794209D02*
X137524114Y-84751351D01*
X137524114Y-84751351D02*
X137566971Y-84665637D01*
X137566971Y-84665637D02*
X137566971Y-84408494D01*
X137566971Y-84408494D02*
X137524114Y-84322780D01*
X137524114Y-84322780D02*
X137481257Y-84279923D01*
X137481257Y-84279923D02*
X137395542Y-84237066D01*
X137395542Y-84237066D02*
X137266971Y-84237066D01*
X137266971Y-84237066D02*
X137181257Y-84279923D01*
X137181257Y-84279923D02*
X137138400Y-84322780D01*
X137138400Y-84322780D02*
X137095542Y-84408494D01*
X137095542Y-84408494D02*
X137095542Y-84665637D01*
X137095542Y-84665637D02*
X137138400Y-84751351D01*
X137138400Y-84751351D02*
X137181257Y-84794209D01*
X137181257Y-84794209D02*
X137266971Y-84837066D01*
X137266971Y-84837066D02*
X137395542Y-84837066D01*
X136838399Y-84237066D02*
X136495542Y-84237066D01*
X136709828Y-83937066D02*
X136709828Y-84708494D01*
X136709828Y-84708494D02*
X136666971Y-84794209D01*
X136666971Y-84794209D02*
X136581256Y-84837066D01*
X136581256Y-84837066D02*
X136495542Y-84837066D01*
X136066970Y-84837066D02*
X136152685Y-84794209D01*
X136152685Y-84794209D02*
X136195542Y-84751351D01*
X136195542Y-84751351D02*
X136238399Y-84665637D01*
X136238399Y-84665637D02*
X136238399Y-84408494D01*
X136238399Y-84408494D02*
X136195542Y-84322780D01*
X136195542Y-84322780D02*
X136152685Y-84279923D01*
X136152685Y-84279923D02*
X136066970Y-84237066D01*
X136066970Y-84237066D02*
X135938399Y-84237066D01*
X135938399Y-84237066D02*
X135852685Y-84279923D01*
X135852685Y-84279923D02*
X135809828Y-84322780D01*
X135809828Y-84322780D02*
X135766970Y-84408494D01*
X135766970Y-84408494D02*
X135766970Y-84665637D01*
X135766970Y-84665637D02*
X135809828Y-84751351D01*
X135809828Y-84751351D02*
X135852685Y-84794209D01*
X135852685Y-84794209D02*
X135938399Y-84837066D01*
X135938399Y-84837066D02*
X136066970Y-84837066D01*
X134995542Y-84837066D02*
X134995542Y-83937066D01*
X134995542Y-84794209D02*
X135081256Y-84837066D01*
X135081256Y-84837066D02*
X135252684Y-84837066D01*
X135252684Y-84837066D02*
X135338399Y-84794209D01*
X135338399Y-84794209D02*
X135381256Y-84751351D01*
X135381256Y-84751351D02*
X135424113Y-84665637D01*
X135424113Y-84665637D02*
X135424113Y-84408494D01*
X135424113Y-84408494D02*
X135381256Y-84322780D01*
X135381256Y-84322780D02*
X135338399Y-84279923D01*
X135338399Y-84279923D02*
X135252684Y-84237066D01*
X135252684Y-84237066D02*
X135081256Y-84237066D01*
X135081256Y-84237066D02*
X134995542Y-84279923D01*
X134181256Y-84837066D02*
X134181256Y-83937066D01*
X134181256Y-84794209D02*
X134266970Y-84837066D01*
X134266970Y-84837066D02*
X134438398Y-84837066D01*
X134438398Y-84837066D02*
X134524113Y-84794209D01*
X134524113Y-84794209D02*
X134566970Y-84751351D01*
X134566970Y-84751351D02*
X134609827Y-84665637D01*
X134609827Y-84665637D02*
X134609827Y-84408494D01*
X134609827Y-84408494D02*
X134566970Y-84322780D01*
X134566970Y-84322780D02*
X134524113Y-84279923D01*
X134524113Y-84279923D02*
X134438398Y-84237066D01*
X134438398Y-84237066D02*
X134266970Y-84237066D01*
X134266970Y-84237066D02*
X134181256Y-84279923D01*
X133109827Y-83894209D02*
X133881255Y-85051351D01*
X132809827Y-84837066D02*
X132809827Y-83937066D01*
X132424113Y-84794209D02*
X132295542Y-84837066D01*
X132295542Y-84837066D02*
X132081256Y-84837066D01*
X132081256Y-84837066D02*
X131995542Y-84794209D01*
X131995542Y-84794209D02*
X131952684Y-84751351D01*
X131952684Y-84751351D02*
X131909827Y-84665637D01*
X131909827Y-84665637D02*
X131909827Y-84579923D01*
X131909827Y-84579923D02*
X131952684Y-84494209D01*
X131952684Y-84494209D02*
X131995542Y-84451351D01*
X131995542Y-84451351D02*
X132081256Y-84408494D01*
X132081256Y-84408494D02*
X132252684Y-84365637D01*
X132252684Y-84365637D02*
X132338399Y-84322780D01*
X132338399Y-84322780D02*
X132381256Y-84279923D01*
X132381256Y-84279923D02*
X132424113Y-84194209D01*
X132424113Y-84194209D02*
X132424113Y-84108494D01*
X132424113Y-84108494D02*
X132381256Y-84022780D01*
X132381256Y-84022780D02*
X132338399Y-83979923D01*
X132338399Y-83979923D02*
X132252684Y-83937066D01*
X132252684Y-83937066D02*
X132038399Y-83937066D01*
X132038399Y-83937066D02*
X131909827Y-83979923D01*
X131352684Y-83937066D02*
X131181256Y-83937066D01*
X131181256Y-83937066D02*
X131095541Y-83979923D01*
X131095541Y-83979923D02*
X131009827Y-84065637D01*
X131009827Y-84065637D02*
X130966970Y-84237066D01*
X130966970Y-84237066D02*
X130966970Y-84537066D01*
X130966970Y-84537066D02*
X131009827Y-84708494D01*
X131009827Y-84708494D02*
X131095541Y-84794209D01*
X131095541Y-84794209D02*
X131181256Y-84837066D01*
X131181256Y-84837066D02*
X131352684Y-84837066D01*
X131352684Y-84837066D02*
X131438399Y-84794209D01*
X131438399Y-84794209D02*
X131524113Y-84708494D01*
X131524113Y-84708494D02*
X131566970Y-84537066D01*
X131566970Y-84537066D02*
X131566970Y-84237066D01*
X131566970Y-84237066D02*
X131524113Y-84065637D01*
X131524113Y-84065637D02*
X131438399Y-83979923D01*
X131438399Y-83979923D02*
X131352684Y-83937066D01*
X130581256Y-84494209D02*
X129895542Y-84494209D01*
X128952684Y-84837066D02*
X129252684Y-84408494D01*
X129466970Y-84837066D02*
X129466970Y-83937066D01*
X129466970Y-83937066D02*
X129124113Y-83937066D01*
X129124113Y-83937066D02*
X129038398Y-83979923D01*
X129038398Y-83979923D02*
X128995541Y-84022780D01*
X128995541Y-84022780D02*
X128952684Y-84108494D01*
X128952684Y-84108494D02*
X128952684Y-84237066D01*
X128952684Y-84237066D02*
X128995541Y-84322780D01*
X128995541Y-84322780D02*
X129038398Y-84365637D01*
X129038398Y-84365637D02*
X129124113Y-84408494D01*
X129124113Y-84408494D02*
X129466970Y-84408494D01*
X128609827Y-84794209D02*
X128481256Y-84837066D01*
X128481256Y-84837066D02*
X128266970Y-84837066D01*
X128266970Y-84837066D02*
X128181256Y-84794209D01*
X128181256Y-84794209D02*
X128138398Y-84751351D01*
X128138398Y-84751351D02*
X128095541Y-84665637D01*
X128095541Y-84665637D02*
X128095541Y-84579923D01*
X128095541Y-84579923D02*
X128138398Y-84494209D01*
X128138398Y-84494209D02*
X128181256Y-84451351D01*
X128181256Y-84451351D02*
X128266970Y-84408494D01*
X128266970Y-84408494D02*
X128438398Y-84365637D01*
X128438398Y-84365637D02*
X128524113Y-84322780D01*
X128524113Y-84322780D02*
X128566970Y-84279923D01*
X128566970Y-84279923D02*
X128609827Y-84194209D01*
X128609827Y-84194209D02*
X128609827Y-84108494D01*
X128609827Y-84108494D02*
X128566970Y-84022780D01*
X128566970Y-84022780D02*
X128524113Y-83979923D01*
X128524113Y-83979923D02*
X128438398Y-83937066D01*
X128438398Y-83937066D02*
X128224113Y-83937066D01*
X128224113Y-83937066D02*
X128095541Y-83979923D01*
X127324113Y-84237066D02*
X127324113Y-84837066D01*
X127538398Y-83894209D02*
X127752684Y-84537066D01*
X127752684Y-84537066D02*
X127195541Y-84537066D01*
X126724112Y-84322780D02*
X126809827Y-84279923D01*
X126809827Y-84279923D02*
X126852684Y-84237066D01*
X126852684Y-84237066D02*
X126895541Y-84151351D01*
X126895541Y-84151351D02*
X126895541Y-84108494D01*
X126895541Y-84108494D02*
X126852684Y-84022780D01*
X126852684Y-84022780D02*
X126809827Y-83979923D01*
X126809827Y-83979923D02*
X126724112Y-83937066D01*
X126724112Y-83937066D02*
X126552684Y-83937066D01*
X126552684Y-83937066D02*
X126466970Y-83979923D01*
X126466970Y-83979923D02*
X126424112Y-84022780D01*
X126424112Y-84022780D02*
X126381255Y-84108494D01*
X126381255Y-84108494D02*
X126381255Y-84151351D01*
X126381255Y-84151351D02*
X126424112Y-84237066D01*
X126424112Y-84237066D02*
X126466970Y-84279923D01*
X126466970Y-84279923D02*
X126552684Y-84322780D01*
X126552684Y-84322780D02*
X126724112Y-84322780D01*
X126724112Y-84322780D02*
X126809827Y-84365637D01*
X126809827Y-84365637D02*
X126852684Y-84408494D01*
X126852684Y-84408494D02*
X126895541Y-84494209D01*
X126895541Y-84494209D02*
X126895541Y-84665637D01*
X126895541Y-84665637D02*
X126852684Y-84751351D01*
X126852684Y-84751351D02*
X126809827Y-84794209D01*
X126809827Y-84794209D02*
X126724112Y-84837066D01*
X126724112Y-84837066D02*
X126552684Y-84837066D01*
X126552684Y-84837066D02*
X126466970Y-84794209D01*
X126466970Y-84794209D02*
X126424112Y-84751351D01*
X126424112Y-84751351D02*
X126381255Y-84665637D01*
X126381255Y-84665637D02*
X126381255Y-84494209D01*
X126381255Y-84494209D02*
X126424112Y-84408494D01*
X126424112Y-84408494D02*
X126466970Y-84365637D01*
X126466970Y-84365637D02*
X126552684Y-84322780D01*
X125566969Y-83937066D02*
X125995541Y-83937066D01*
X125995541Y-83937066D02*
X126038398Y-84365637D01*
X126038398Y-84365637D02*
X125995541Y-84322780D01*
X125995541Y-84322780D02*
X125909827Y-84279923D01*
X125909827Y-84279923D02*
X125695541Y-84279923D01*
X125695541Y-84279923D02*
X125609827Y-84322780D01*
X125609827Y-84322780D02*
X125566969Y-84365637D01*
X125566969Y-84365637D02*
X125524112Y-84451351D01*
X125524112Y-84451351D02*
X125524112Y-84665637D01*
X125524112Y-84665637D02*
X125566969Y-84751351D01*
X125566969Y-84751351D02*
X125609827Y-84794209D01*
X125609827Y-84794209D02*
X125695541Y-84837066D01*
X125695541Y-84837066D02*
X125909827Y-84837066D01*
X125909827Y-84837066D02*
X125995541Y-84794209D01*
X125995541Y-84794209D02*
X126038398Y-84751351D01*
D11*
%TO.C,C10*%
X153543748Y-99388909D02*
X154966252Y-99388909D01*
X153543748Y-101208909D02*
X154966252Y-101208909D01*
%TO.C,U5*%
X150185000Y-88323909D02*
X150185000Y-88578909D01*
X150185000Y-98843909D02*
X150185000Y-98588909D01*
X154045000Y-88323909D02*
X150185000Y-88323909D01*
X154045000Y-88323909D02*
X157905000Y-88323909D01*
X154045000Y-98843909D02*
X150185000Y-98843909D01*
X154045000Y-98843909D02*
X157905000Y-98843909D01*
X157905000Y-88323909D02*
X157905000Y-88578909D01*
X157905000Y-98843909D02*
X157905000Y-98588909D01*
X149672500Y-99058909D02*
X148992500Y-99058909D01*
X149332500Y-98588909D01*
X149672500Y-99058909D01*
G36*
X149672500Y-99058909D02*
G01*
X148992500Y-99058909D01*
X149332500Y-98588909D01*
X149672500Y-99058909D01*
G37*
D12*
%TO.C,REF\u002A\u002A*%
X170429027Y-95934907D02*
X170500715Y-95935756D01*
X170557925Y-95937198D01*
X170595809Y-95939095D01*
X170609514Y-95941312D01*
X170604981Y-95955737D01*
X170592670Y-95984855D01*
X170592272Y-95985728D01*
X170584356Y-96000849D01*
X170573495Y-96011018D01*
X170554471Y-96017218D01*
X170522069Y-96020431D01*
X170471071Y-96021639D01*
X170396261Y-96021823D01*
X170348804Y-96022195D01*
X170259615Y-96026159D01*
X170194287Y-96035236D01*
X170149393Y-96050385D01*
X170121507Y-96072564D01*
X170107203Y-96102734D01*
X170106206Y-96106919D01*
X170105427Y-96163429D01*
X170130744Y-96207499D01*
X170181502Y-96237937D01*
X170196175Y-96243365D01*
X170228649Y-96255738D01*
X170243572Y-96262004D01*
X170241516Y-96274873D01*
X170230357Y-96302976D01*
X170211927Y-96329188D01*
X170177098Y-96341138D01*
X170152151Y-96337573D01*
X170101547Y-96315674D01*
X170054128Y-96280265D01*
X170021334Y-96238857D01*
X170013752Y-96221509D01*
X170001076Y-96155820D01*
X170006097Y-96086080D01*
X170028355Y-96026156D01*
X170045080Y-96001236D01*
X170069043Y-95975999D01*
X170099526Y-95957997D01*
X170141023Y-95946051D01*
X170198032Y-95938979D01*
X170275047Y-95935601D01*
X170376565Y-95934738D01*
X170429027Y-95934907D01*
G36*
X170429027Y-95934907D02*
G01*
X170500715Y-95935756D01*
X170557925Y-95937198D01*
X170595809Y-95939095D01*
X170609514Y-95941312D01*
X170604981Y-95955737D01*
X170592670Y-95984855D01*
X170592272Y-95985728D01*
X170584356Y-96000849D01*
X170573495Y-96011018D01*
X170554471Y-96017218D01*
X170522069Y-96020431D01*
X170471071Y-96021639D01*
X170396261Y-96021823D01*
X170348804Y-96022195D01*
X170259615Y-96026159D01*
X170194287Y-96035236D01*
X170149393Y-96050385D01*
X170121507Y-96072564D01*
X170107203Y-96102734D01*
X170106206Y-96106919D01*
X170105427Y-96163429D01*
X170130744Y-96207499D01*
X170181502Y-96237937D01*
X170196175Y-96243365D01*
X170228649Y-96255738D01*
X170243572Y-96262004D01*
X170241516Y-96274873D01*
X170230357Y-96302976D01*
X170211927Y-96329188D01*
X170177098Y-96341138D01*
X170152151Y-96337573D01*
X170101547Y-96315674D01*
X170054128Y-96280265D01*
X170021334Y-96238857D01*
X170013752Y-96221509D01*
X170001076Y-96155820D01*
X170006097Y-96086080D01*
X170028355Y-96026156D01*
X170045080Y-96001236D01*
X170069043Y-95975999D01*
X170099526Y-95957997D01*
X170141023Y-95946051D01*
X170198032Y-95938979D01*
X170275047Y-95935601D01*
X170376565Y-95934738D01*
X170429027Y-95934907D01*
G37*
X170609491Y-92008684D02*
X170596156Y-92043641D01*
X170583323Y-92069812D01*
X170566780Y-92086896D01*
X170541465Y-92096823D01*
X170502316Y-92101523D01*
X170444268Y-92102927D01*
X170362261Y-92102966D01*
X170296895Y-92103165D01*
X170234173Y-92104350D01*
X170191334Y-92107180D01*
X170163220Y-92112300D01*
X170144675Y-92120356D01*
X170130543Y-92131995D01*
X170110600Y-92160606D01*
X170103083Y-92208670D01*
X170122079Y-92256221D01*
X170124511Y-92259359D01*
X170135748Y-92269140D01*
X170153770Y-92276356D01*
X170183026Y-92281610D01*
X170227962Y-92285507D01*
X170293028Y-92288653D01*
X170382670Y-92291652D01*
X170622697Y-92298909D01*
X170595044Y-92360595D01*
X170567391Y-92422280D01*
X170348246Y-92422280D01*
X170288711Y-92422025D01*
X170205892Y-92419823D01*
X170144227Y-92414248D01*
X170098748Y-92403968D01*
X170064484Y-92387651D01*
X170036466Y-92363966D01*
X170009723Y-92331581D01*
X169982780Y-92285002D01*
X169965191Y-92211622D01*
X169972822Y-92137889D01*
X170004680Y-92070099D01*
X170059770Y-92014543D01*
X170077016Y-92003028D01*
X170096562Y-91993477D01*
X170121198Y-91986703D01*
X170155711Y-91982090D01*
X170204889Y-91979021D01*
X170273519Y-91976880D01*
X170366389Y-91975050D01*
X170624007Y-91970505D01*
X170609491Y-92008684D01*
G36*
X170609491Y-92008684D02*
G01*
X170596156Y-92043641D01*
X170583323Y-92069812D01*
X170566780Y-92086896D01*
X170541465Y-92096823D01*
X170502316Y-92101523D01*
X170444268Y-92102927D01*
X170362261Y-92102966D01*
X170296895Y-92103165D01*
X170234173Y-92104350D01*
X170191334Y-92107180D01*
X170163220Y-92112300D01*
X170144675Y-92120356D01*
X170130543Y-92131995D01*
X170110600Y-92160606D01*
X170103083Y-92208670D01*
X170122079Y-92256221D01*
X170124511Y-92259359D01*
X170135748Y-92269140D01*
X170153770Y-92276356D01*
X170183026Y-92281610D01*
X170227962Y-92285507D01*
X170293028Y-92288653D01*
X170382670Y-92291652D01*
X170622697Y-92298909D01*
X170595044Y-92360595D01*
X170567391Y-92422280D01*
X170348246Y-92422280D01*
X170288711Y-92422025D01*
X170205892Y-92419823D01*
X170144227Y-92414248D01*
X170098748Y-92403968D01*
X170064484Y-92387651D01*
X170036466Y-92363966D01*
X170009723Y-92331581D01*
X169982780Y-92285002D01*
X169965191Y-92211622D01*
X169972822Y-92137889D01*
X170004680Y-92070099D01*
X170059770Y-92014543D01*
X170077016Y-92003028D01*
X170096562Y-91993477D01*
X170121198Y-91986703D01*
X170155711Y-91982090D01*
X170204889Y-91979021D01*
X170273519Y-91976880D01*
X170366389Y-91975050D01*
X170624007Y-91970505D01*
X170609491Y-92008684D01*
G37*
X170554934Y-93846915D02*
X170595948Y-93850745D01*
X170609514Y-93857020D01*
X170605452Y-93876011D01*
X170593144Y-93908271D01*
X170589545Y-93915868D01*
X170581398Y-93927733D01*
X170568004Y-93935915D01*
X170544608Y-93941266D01*
X170506455Y-93944640D01*
X170448790Y-93946890D01*
X170366857Y-93948869D01*
X170342907Y-93949411D01*
X170267266Y-93951506D01*
X170214328Y-93954226D01*
X170179075Y-93958394D01*
X170156487Y-93964830D01*
X170141544Y-93974359D01*
X170129227Y-93987803D01*
X170107634Y-94027604D01*
X170103476Y-94076568D01*
X170119999Y-94120380D01*
X170154210Y-94151901D01*
X170203114Y-94163995D01*
X170216407Y-94164331D01*
X170240472Y-94170937D01*
X170244144Y-94190439D01*
X170229813Y-94228626D01*
X170225217Y-94237471D01*
X170198186Y-94261375D01*
X170157994Y-94261848D01*
X170102409Y-94239073D01*
X170072117Y-94218182D01*
X170029084Y-94164767D01*
X170004755Y-94098835D01*
X170001443Y-94028335D01*
X170021467Y-93961218D01*
X170024003Y-93956636D01*
X170053057Y-93919205D01*
X170090410Y-93885739D01*
X170098852Y-93879902D01*
X170118553Y-93868744D01*
X170141935Y-93860773D01*
X170174067Y-93855291D01*
X170220019Y-93851602D01*
X170284859Y-93849010D01*
X170373657Y-93846817D01*
X170388669Y-93846507D01*
X170485999Y-93845509D01*
X170554934Y-93846915D01*
G36*
X170554934Y-93846915D02*
G01*
X170595948Y-93850745D01*
X170609514Y-93857020D01*
X170605452Y-93876011D01*
X170593144Y-93908271D01*
X170589545Y-93915868D01*
X170581398Y-93927733D01*
X170568004Y-93935915D01*
X170544608Y-93941266D01*
X170506455Y-93944640D01*
X170448790Y-93946890D01*
X170366857Y-93948869D01*
X170342907Y-93949411D01*
X170267266Y-93951506D01*
X170214328Y-93954226D01*
X170179075Y-93958394D01*
X170156487Y-93964830D01*
X170141544Y-93974359D01*
X170129227Y-93987803D01*
X170107634Y-94027604D01*
X170103476Y-94076568D01*
X170119999Y-94120380D01*
X170154210Y-94151901D01*
X170203114Y-94163995D01*
X170216407Y-94164331D01*
X170240472Y-94170937D01*
X170244144Y-94190439D01*
X170229813Y-94228626D01*
X170225217Y-94237471D01*
X170198186Y-94261375D01*
X170157994Y-94261848D01*
X170102409Y-94239073D01*
X170072117Y-94218182D01*
X170029084Y-94164767D01*
X170004755Y-94098835D01*
X170001443Y-94028335D01*
X170021467Y-93961218D01*
X170024003Y-93956636D01*
X170053057Y-93919205D01*
X170090410Y-93885739D01*
X170098852Y-93879902D01*
X170118553Y-93868744D01*
X170141935Y-93860773D01*
X170174067Y-93855291D01*
X170220019Y-93851602D01*
X170284859Y-93849010D01*
X170373657Y-93846817D01*
X170388669Y-93846507D01*
X170485999Y-93845509D01*
X170554934Y-93846915D01*
G37*
X170324498Y-92843390D02*
X170417141Y-92843911D01*
X170495700Y-92844710D01*
X170556439Y-92845737D01*
X170595623Y-92846946D01*
X170609514Y-92848286D01*
X170609468Y-92848810D01*
X170604420Y-92866622D01*
X170593580Y-92899086D01*
X170577646Y-92944795D01*
X170373173Y-92944795D01*
X170292832Y-92945085D01*
X170234562Y-92946435D01*
X170194909Y-92949540D01*
X170168618Y-92955097D01*
X170150436Y-92963802D01*
X170135107Y-92976353D01*
X170126955Y-92984910D01*
X170104375Y-93031181D01*
X170106375Y-93082181D01*
X170133073Y-93128916D01*
X170139698Y-93135720D01*
X170153456Y-93146616D01*
X170171642Y-93154073D01*
X170199177Y-93158740D01*
X170240981Y-93161267D01*
X170301973Y-93162307D01*
X170387073Y-93162509D01*
X170430234Y-93162606D01*
X170501224Y-93163235D01*
X170558076Y-93164353D01*
X170595828Y-93165846D01*
X170609514Y-93167600D01*
X170609468Y-93168124D01*
X170604420Y-93185936D01*
X170593580Y-93218400D01*
X170577646Y-93264109D01*
X170372237Y-93264086D01*
X170353951Y-93264052D01*
X170258626Y-93262131D01*
X170186543Y-93256231D01*
X170132813Y-93244908D01*
X170092549Y-93226722D01*
X170060861Y-93200230D01*
X170032861Y-93163991D01*
X170015333Y-93128646D01*
X170001785Y-93072136D01*
X170001015Y-93016553D01*
X170014195Y-92973823D01*
X170016015Y-92970611D01*
X170015820Y-92960704D01*
X170000572Y-92953934D01*
X169965613Y-92949048D01*
X169906289Y-92944795D01*
X169784547Y-92937538D01*
X169804444Y-92890366D01*
X169824342Y-92843195D01*
X170221509Y-92843195D01*
X170324498Y-92843390D01*
G36*
X170324498Y-92843390D02*
G01*
X170417141Y-92843911D01*
X170495700Y-92844710D01*
X170556439Y-92845737D01*
X170595623Y-92846946D01*
X170609514Y-92848286D01*
X170609468Y-92848810D01*
X170604420Y-92866622D01*
X170593580Y-92899086D01*
X170577646Y-92944795D01*
X170373173Y-92944795D01*
X170292832Y-92945085D01*
X170234562Y-92946435D01*
X170194909Y-92949540D01*
X170168618Y-92955097D01*
X170150436Y-92963802D01*
X170135107Y-92976353D01*
X170126955Y-92984910D01*
X170104375Y-93031181D01*
X170106375Y-93082181D01*
X170133073Y-93128916D01*
X170139698Y-93135720D01*
X170153456Y-93146616D01*
X170171642Y-93154073D01*
X170199177Y-93158740D01*
X170240981Y-93161267D01*
X170301973Y-93162307D01*
X170387073Y-93162509D01*
X170430234Y-93162606D01*
X170501224Y-93163235D01*
X170558076Y-93164353D01*
X170595828Y-93165846D01*
X170609514Y-93167600D01*
X170609468Y-93168124D01*
X170604420Y-93185936D01*
X170593580Y-93218400D01*
X170577646Y-93264109D01*
X170372237Y-93264086D01*
X170353951Y-93264052D01*
X170258626Y-93262131D01*
X170186543Y-93256231D01*
X170132813Y-93244908D01*
X170092549Y-93226722D01*
X170060861Y-93200230D01*
X170032861Y-93163991D01*
X170015333Y-93128646D01*
X170001785Y-93072136D01*
X170001015Y-93016553D01*
X170014195Y-92973823D01*
X170016015Y-92970611D01*
X170015820Y-92960704D01*
X170000572Y-92953934D01*
X169965613Y-92949048D01*
X169906289Y-92944795D01*
X169784547Y-92937538D01*
X169804444Y-92890366D01*
X169824342Y-92843195D01*
X170221509Y-92843195D01*
X170324498Y-92843390D01*
G37*
X170566127Y-94892097D02*
X170576427Y-94902589D01*
X170599320Y-94931654D01*
X170606735Y-94960966D01*
X170603321Y-95004583D01*
X170601114Y-95022341D01*
X170596445Y-95068142D01*
X170594585Y-95100166D01*
X170594869Y-95109665D01*
X170597948Y-95148635D01*
X170603321Y-95195749D01*
X170605168Y-95210824D01*
X170605893Y-95248799D01*
X170594429Y-95276584D01*
X170566127Y-95308235D01*
X170520196Y-95354166D01*
X170260055Y-95354166D01*
X170183180Y-95353808D01*
X170109886Y-95352693D01*
X170051850Y-95350957D01*
X170013663Y-95348742D01*
X169999914Y-95346188D01*
X169999951Y-95345653D01*
X170006793Y-95327101D01*
X170021868Y-95295756D01*
X170043822Y-95253301D01*
X170272240Y-95249305D01*
X170500657Y-95245309D01*
X170500657Y-95158223D01*
X170250286Y-95154252D01*
X170182227Y-95152993D01*
X170109482Y-95151191D01*
X170051730Y-95149238D01*
X170013648Y-95147297D01*
X169999914Y-95145532D01*
X169999962Y-95145024D01*
X170005015Y-95127427D01*
X170015849Y-95095075D01*
X170031783Y-95049366D01*
X170251706Y-95049144D01*
X170289909Y-95048921D01*
X170364146Y-95047378D01*
X170426145Y-95044617D01*
X170470308Y-95040932D01*
X170491041Y-95036617D01*
X170502131Y-95021177D01*
X170505556Y-94989668D01*
X170500657Y-94955023D01*
X170250286Y-94951052D01*
X170186663Y-94949631D01*
X170111356Y-94946684D01*
X170052286Y-94942830D01*
X170013718Y-94938367D01*
X169999914Y-94933592D01*
X170004282Y-94914968D01*
X170016758Y-94883135D01*
X170033602Y-94846166D01*
X170520196Y-94846166D01*
X170566127Y-94892097D01*
G36*
X170566127Y-94892097D02*
G01*
X170576427Y-94902589D01*
X170599320Y-94931654D01*
X170606735Y-94960966D01*
X170603321Y-95004583D01*
X170601114Y-95022341D01*
X170596445Y-95068142D01*
X170594585Y-95100166D01*
X170594869Y-95109665D01*
X170597948Y-95148635D01*
X170603321Y-95195749D01*
X170605168Y-95210824D01*
X170605893Y-95248799D01*
X170594429Y-95276584D01*
X170566127Y-95308235D01*
X170520196Y-95354166D01*
X170260055Y-95354166D01*
X170183180Y-95353808D01*
X170109886Y-95352693D01*
X170051850Y-95350957D01*
X170013663Y-95348742D01*
X169999914Y-95346188D01*
X169999951Y-95345653D01*
X170006793Y-95327101D01*
X170021868Y-95295756D01*
X170043822Y-95253301D01*
X170272240Y-95249305D01*
X170500657Y-95245309D01*
X170500657Y-95158223D01*
X170250286Y-95154252D01*
X170182227Y-95152993D01*
X170109482Y-95151191D01*
X170051730Y-95149238D01*
X170013648Y-95147297D01*
X169999914Y-95145532D01*
X169999962Y-95145024D01*
X170005015Y-95127427D01*
X170015849Y-95095075D01*
X170031783Y-95049366D01*
X170251706Y-95049144D01*
X170289909Y-95048921D01*
X170364146Y-95047378D01*
X170426145Y-95044617D01*
X170470308Y-95040932D01*
X170491041Y-95036617D01*
X170502131Y-95021177D01*
X170505556Y-94989668D01*
X170500657Y-94955023D01*
X170250286Y-94951052D01*
X170186663Y-94949631D01*
X170111356Y-94946684D01*
X170052286Y-94942830D01*
X170013718Y-94938367D01*
X169999914Y-94933592D01*
X170004282Y-94914968D01*
X170016758Y-94883135D01*
X170033602Y-94846166D01*
X170520196Y-94846166D01*
X170566127Y-94892097D01*
G37*
X170305935Y-90303208D02*
X170376119Y-90303995D01*
X170425022Y-90306699D01*
X170459178Y-90312303D01*
X170485124Y-90321790D01*
X170509397Y-90336141D01*
X170514433Y-90339672D01*
X170554143Y-90377031D01*
X170584092Y-90419598D01*
X170593810Y-90441457D01*
X170610020Y-90520001D01*
X170599535Y-90597678D01*
X170563707Y-90669264D01*
X170503887Y-90729535D01*
X170495873Y-90734623D01*
X170449342Y-90751179D01*
X170384552Y-90762336D01*
X170309727Y-90767749D01*
X170233096Y-90767076D01*
X170162882Y-90759972D01*
X170107312Y-90746094D01*
X170070301Y-90728260D01*
X170012733Y-90678054D01*
X169976962Y-90610024D01*
X169965426Y-90531901D01*
X170101514Y-90531901D01*
X170102635Y-90545469D01*
X170123194Y-90583479D01*
X170169299Y-90608597D01*
X170240513Y-90620661D01*
X170336399Y-90619507D01*
X170342569Y-90619043D01*
X170395478Y-90612280D01*
X170429029Y-90600238D01*
X170452016Y-90579904D01*
X170473548Y-90545812D01*
X170474680Y-90512095D01*
X170449857Y-90477366D01*
X170443325Y-90471325D01*
X170423779Y-90459492D01*
X170395386Y-90452505D01*
X170351430Y-90449182D01*
X170285192Y-90448338D01*
X170223150Y-90449784D01*
X170164042Y-90457002D01*
X170126686Y-90471903D01*
X170107152Y-90496273D01*
X170101514Y-90531901D01*
X169965426Y-90531901D01*
X169964665Y-90526751D01*
X169965331Y-90504511D01*
X169978947Y-90439018D01*
X170013249Y-90385222D01*
X170072338Y-90335852D01*
X170076722Y-90332914D01*
X170100299Y-90319622D01*
X170126949Y-90310977D01*
X170163159Y-90306005D01*
X170215413Y-90303735D01*
X170285192Y-90303231D01*
X170290200Y-90303195D01*
X170305935Y-90303208D01*
G36*
X170305935Y-90303208D02*
G01*
X170376119Y-90303995D01*
X170425022Y-90306699D01*
X170459178Y-90312303D01*
X170485124Y-90321790D01*
X170509397Y-90336141D01*
X170514433Y-90339672D01*
X170554143Y-90377031D01*
X170584092Y-90419598D01*
X170593810Y-90441457D01*
X170610020Y-90520001D01*
X170599535Y-90597678D01*
X170563707Y-90669264D01*
X170503887Y-90729535D01*
X170495873Y-90734623D01*
X170449342Y-90751179D01*
X170384552Y-90762336D01*
X170309727Y-90767749D01*
X170233096Y-90767076D01*
X170162882Y-90759972D01*
X170107312Y-90746094D01*
X170070301Y-90728260D01*
X170012733Y-90678054D01*
X169976962Y-90610024D01*
X169965426Y-90531901D01*
X170101514Y-90531901D01*
X170102635Y-90545469D01*
X170123194Y-90583479D01*
X170169299Y-90608597D01*
X170240513Y-90620661D01*
X170336399Y-90619507D01*
X170342569Y-90619043D01*
X170395478Y-90612280D01*
X170429029Y-90600238D01*
X170452016Y-90579904D01*
X170473548Y-90545812D01*
X170474680Y-90512095D01*
X170449857Y-90477366D01*
X170443325Y-90471325D01*
X170423779Y-90459492D01*
X170395386Y-90452505D01*
X170351430Y-90449182D01*
X170285192Y-90448338D01*
X170223150Y-90449784D01*
X170164042Y-90457002D01*
X170126686Y-90471903D01*
X170107152Y-90496273D01*
X170101514Y-90531901D01*
X169965426Y-90531901D01*
X169964665Y-90526751D01*
X169965331Y-90504511D01*
X169978947Y-90439018D01*
X170013249Y-90385222D01*
X170072338Y-90335852D01*
X170076722Y-90332914D01*
X170100299Y-90319622D01*
X170126949Y-90310977D01*
X170163159Y-90306005D01*
X170215413Y-90303735D01*
X170285192Y-90303231D01*
X170290200Y-90303195D01*
X170305935Y-90303208D01*
G37*
X170346305Y-96428602D02*
X170422521Y-96432147D01*
X170478294Y-96441426D01*
X170519613Y-96458534D01*
X170552467Y-96485565D01*
X170582846Y-96524617D01*
X170596660Y-96549464D01*
X170605965Y-96589294D01*
X170605230Y-96645244D01*
X170602283Y-96676524D01*
X170593283Y-96714256D01*
X170573720Y-96744415D01*
X170537267Y-96779501D01*
X170531943Y-96784189D01*
X170490969Y-96815732D01*
X170455283Y-96830781D01*
X170412966Y-96834623D01*
X170350779Y-96834623D01*
X170367182Y-96791167D01*
X170386356Y-96759485D01*
X170431347Y-96731947D01*
X170445752Y-96726198D01*
X170486546Y-96694054D01*
X170507081Y-96650298D01*
X170505235Y-96602655D01*
X170478886Y-96558852D01*
X170462455Y-96543798D01*
X170437667Y-96530146D01*
X170415144Y-96534416D01*
X170391964Y-96558993D01*
X170365202Y-96606258D01*
X170331934Y-96678595D01*
X170266816Y-96827366D01*
X170202308Y-96831314D01*
X170154064Y-96829571D01*
X170093096Y-96807628D01*
X170059497Y-96779930D01*
X170021966Y-96722504D01*
X170003006Y-96654382D01*
X170003135Y-96648319D01*
X170101364Y-96648319D01*
X170124109Y-96700765D01*
X170135481Y-96715300D01*
X170161220Y-96732899D01*
X170186657Y-96725541D01*
X170213814Y-96692061D01*
X170244714Y-96631295D01*
X170249190Y-96621240D01*
X170270017Y-96573158D01*
X170284665Y-96537183D01*
X170290200Y-96520465D01*
X170286126Y-96517932D01*
X170261247Y-96516916D01*
X170221257Y-96520540D01*
X170182152Y-96529667D01*
X170132884Y-96558136D01*
X170105122Y-96599231D01*
X170101364Y-96648319D01*
X170003135Y-96648319D01*
X170004507Y-96583962D01*
X170028355Y-96519642D01*
X170037513Y-96505483D01*
X170065849Y-96473005D01*
X170101695Y-96450793D01*
X170150384Y-96437105D01*
X170217249Y-96430194D01*
X170261247Y-96429281D01*
X170307622Y-96428319D01*
X170346305Y-96428602D01*
G36*
X170346305Y-96428602D02*
G01*
X170422521Y-96432147D01*
X170478294Y-96441426D01*
X170519613Y-96458534D01*
X170552467Y-96485565D01*
X170582846Y-96524617D01*
X170596660Y-96549464D01*
X170605965Y-96589294D01*
X170605230Y-96645244D01*
X170602283Y-96676524D01*
X170593283Y-96714256D01*
X170573720Y-96744415D01*
X170537267Y-96779501D01*
X170531943Y-96784189D01*
X170490969Y-96815732D01*
X170455283Y-96830781D01*
X170412966Y-96834623D01*
X170350779Y-96834623D01*
X170367182Y-96791167D01*
X170386356Y-96759485D01*
X170431347Y-96731947D01*
X170445752Y-96726198D01*
X170486546Y-96694054D01*
X170507081Y-96650298D01*
X170505235Y-96602655D01*
X170478886Y-96558852D01*
X170462455Y-96543798D01*
X170437667Y-96530146D01*
X170415144Y-96534416D01*
X170391964Y-96558993D01*
X170365202Y-96606258D01*
X170331934Y-96678595D01*
X170266816Y-96827366D01*
X170202308Y-96831314D01*
X170154064Y-96829571D01*
X170093096Y-96807628D01*
X170059497Y-96779930D01*
X170021966Y-96722504D01*
X170003006Y-96654382D01*
X170003135Y-96648319D01*
X170101364Y-96648319D01*
X170124109Y-96700765D01*
X170135481Y-96715300D01*
X170161220Y-96732899D01*
X170186657Y-96725541D01*
X170213814Y-96692061D01*
X170244714Y-96631295D01*
X170249190Y-96621240D01*
X170270017Y-96573158D01*
X170284665Y-96537183D01*
X170290200Y-96520465D01*
X170286126Y-96517932D01*
X170261247Y-96516916D01*
X170221257Y-96520540D01*
X170182152Y-96529667D01*
X170132884Y-96558136D01*
X170105122Y-96599231D01*
X170101364Y-96648319D01*
X170003135Y-96648319D01*
X170004507Y-96583962D01*
X170028355Y-96519642D01*
X170037513Y-96505483D01*
X170065849Y-96473005D01*
X170101695Y-96450793D01*
X170150384Y-96437105D01*
X170217249Y-96430194D01*
X170261247Y-96429281D01*
X170307622Y-96428319D01*
X170346305Y-96428602D01*
G37*
X170361313Y-94339372D02*
X170438462Y-94347564D01*
X170496276Y-94365390D01*
X170540422Y-94394934D01*
X170576568Y-94438284D01*
X170597463Y-94479577D01*
X170609090Y-94548922D01*
X170596377Y-94618173D01*
X170560945Y-94680764D01*
X170504418Y-94730130D01*
X170493995Y-94736091D01*
X170475733Y-94743964D01*
X170452429Y-94749803D01*
X170420085Y-94753910D01*
X170374704Y-94756584D01*
X170312287Y-94758128D01*
X170228837Y-94758842D01*
X170120358Y-94759026D01*
X169783601Y-94759080D01*
X169803362Y-94711909D01*
X169808770Y-94699437D01*
X169820985Y-94679585D01*
X169839482Y-94668222D01*
X169871829Y-94661976D01*
X169925593Y-94657480D01*
X169973866Y-94653374D01*
X170005557Y-94647946D01*
X170017383Y-94640170D01*
X170014212Y-94628452D01*
X170003067Y-94598591D01*
X170000304Y-94545225D01*
X170002837Y-94531133D01*
X170103843Y-94531133D01*
X170107198Y-94581869D01*
X170135107Y-94625922D01*
X170146173Y-94635405D01*
X170167009Y-94646970D01*
X170196106Y-94653657D01*
X170240381Y-94656736D01*
X170306748Y-94657480D01*
X170359577Y-94657137D01*
X170407362Y-94654967D01*
X170438209Y-94649602D01*
X170458935Y-94639692D01*
X170476356Y-94623888D01*
X170479705Y-94620185D01*
X170504419Y-94572610D01*
X170501890Y-94522274D01*
X170472288Y-94475392D01*
X170456953Y-94461432D01*
X170436622Y-94449749D01*
X170408514Y-94443223D01*
X170365550Y-94440385D01*
X170300647Y-94439766D01*
X170251122Y-94440072D01*
X170202782Y-94442187D01*
X170171587Y-94447519D01*
X170150647Y-94457449D01*
X170133073Y-94473359D01*
X170125159Y-94482705D01*
X170103843Y-94531133D01*
X170002837Y-94531133D01*
X170010625Y-94487816D01*
X170032861Y-94438284D01*
X170053443Y-94411033D01*
X170093600Y-94376044D01*
X170145086Y-94353635D01*
X170213568Y-94341719D01*
X170300647Y-94338367D01*
X170304714Y-94338211D01*
X170361313Y-94339372D01*
G36*
X170361313Y-94339372D02*
G01*
X170438462Y-94347564D01*
X170496276Y-94365390D01*
X170540422Y-94394934D01*
X170576568Y-94438284D01*
X170597463Y-94479577D01*
X170609090Y-94548922D01*
X170596377Y-94618173D01*
X170560945Y-94680764D01*
X170504418Y-94730130D01*
X170493995Y-94736091D01*
X170475733Y-94743964D01*
X170452429Y-94749803D01*
X170420085Y-94753910D01*
X170374704Y-94756584D01*
X170312287Y-94758128D01*
X170228837Y-94758842D01*
X170120358Y-94759026D01*
X169783601Y-94759080D01*
X169803362Y-94711909D01*
X169808770Y-94699437D01*
X169820985Y-94679585D01*
X169839482Y-94668222D01*
X169871829Y-94661976D01*
X169925593Y-94657480D01*
X169973866Y-94653374D01*
X170005557Y-94647946D01*
X170017383Y-94640170D01*
X170014212Y-94628452D01*
X170003067Y-94598591D01*
X170000304Y-94545225D01*
X170002837Y-94531133D01*
X170103843Y-94531133D01*
X170107198Y-94581869D01*
X170135107Y-94625922D01*
X170146173Y-94635405D01*
X170167009Y-94646970D01*
X170196106Y-94653657D01*
X170240381Y-94656736D01*
X170306748Y-94657480D01*
X170359577Y-94657137D01*
X170407362Y-94654967D01*
X170438209Y-94649602D01*
X170458935Y-94639692D01*
X170476356Y-94623888D01*
X170479705Y-94620185D01*
X170504419Y-94572610D01*
X170501890Y-94522274D01*
X170472288Y-94475392D01*
X170456953Y-94461432D01*
X170436622Y-94449749D01*
X170408514Y-94443223D01*
X170365550Y-94440385D01*
X170300647Y-94439766D01*
X170251122Y-94440072D01*
X170202782Y-94442187D01*
X170171587Y-94447519D01*
X170150647Y-94457449D01*
X170133073Y-94473359D01*
X170125159Y-94482705D01*
X170103843Y-94531133D01*
X170002837Y-94531133D01*
X170010625Y-94487816D01*
X170032861Y-94438284D01*
X170053443Y-94411033D01*
X170093600Y-94376044D01*
X170145086Y-94353635D01*
X170213568Y-94341719D01*
X170300647Y-94338367D01*
X170304714Y-94338211D01*
X170361313Y-94339372D01*
G37*
X170359078Y-91411225D02*
X170382387Y-91413831D01*
X170465352Y-91433249D01*
X170528448Y-91468336D01*
X170576808Y-91521697D01*
X170578804Y-91524713D01*
X170607185Y-91592547D01*
X170609711Y-91663374D01*
X170588097Y-91731620D01*
X170544062Y-91791713D01*
X170479322Y-91838080D01*
X170477761Y-91838859D01*
X170437558Y-91854266D01*
X170391866Y-91865552D01*
X170348972Y-91871539D01*
X170317160Y-91871048D01*
X170304714Y-91862902D01*
X170305471Y-91855665D01*
X170319235Y-91821058D01*
X170344546Y-91781831D01*
X170373845Y-91748461D01*
X170399572Y-91731426D01*
X170434471Y-91713717D01*
X170466212Y-91677424D01*
X170478886Y-91635279D01*
X170475221Y-91619832D01*
X170456774Y-91589340D01*
X170431166Y-91562781D01*
X170407934Y-91551423D01*
X170407848Y-91551427D01*
X170397179Y-91564313D01*
X170377933Y-91598668D01*
X170352813Y-91649316D01*
X170324524Y-91711080D01*
X170324374Y-91711420D01*
X170294498Y-91778521D01*
X170272973Y-91823498D01*
X170256437Y-91850764D01*
X170241531Y-91864731D01*
X170224893Y-91869812D01*
X170203162Y-91870419D01*
X170151086Y-91865076D01*
X170080335Y-91838658D01*
X170024735Y-91794436D01*
X169986239Y-91737212D01*
X169966797Y-91671789D01*
X169967910Y-91622755D01*
X170102950Y-91622755D01*
X170104845Y-91664832D01*
X170130632Y-91703904D01*
X170148451Y-91719262D01*
X170162013Y-91722909D01*
X170174949Y-91708118D01*
X170194333Y-91671265D01*
X170194881Y-91670184D01*
X170215587Y-91626704D01*
X170232105Y-91587807D01*
X170239093Y-91563131D01*
X170229753Y-91553233D01*
X170197748Y-91551423D01*
X170157915Y-91558943D01*
X170121717Y-91585012D01*
X170102950Y-91622755D01*
X169967910Y-91622755D01*
X169968359Y-91602972D01*
X169992878Y-91535562D01*
X170042302Y-91474365D01*
X170091212Y-91440459D01*
X170161027Y-91416103D01*
X170197748Y-91412142D01*
X170249055Y-91406610D01*
X170359078Y-91411225D01*
G36*
X170359078Y-91411225D02*
G01*
X170382387Y-91413831D01*
X170465352Y-91433249D01*
X170528448Y-91468336D01*
X170576808Y-91521697D01*
X170578804Y-91524713D01*
X170607185Y-91592547D01*
X170609711Y-91663374D01*
X170588097Y-91731620D01*
X170544062Y-91791713D01*
X170479322Y-91838080D01*
X170477761Y-91838859D01*
X170437558Y-91854266D01*
X170391866Y-91865552D01*
X170348972Y-91871539D01*
X170317160Y-91871048D01*
X170304714Y-91862902D01*
X170305471Y-91855665D01*
X170319235Y-91821058D01*
X170344546Y-91781831D01*
X170373845Y-91748461D01*
X170399572Y-91731426D01*
X170434471Y-91713717D01*
X170466212Y-91677424D01*
X170478886Y-91635279D01*
X170475221Y-91619832D01*
X170456774Y-91589340D01*
X170431166Y-91562781D01*
X170407934Y-91551423D01*
X170407848Y-91551427D01*
X170397179Y-91564313D01*
X170377933Y-91598668D01*
X170352813Y-91649316D01*
X170324524Y-91711080D01*
X170324374Y-91711420D01*
X170294498Y-91778521D01*
X170272973Y-91823498D01*
X170256437Y-91850764D01*
X170241531Y-91864731D01*
X170224893Y-91869812D01*
X170203162Y-91870419D01*
X170151086Y-91865076D01*
X170080335Y-91838658D01*
X170024735Y-91794436D01*
X169986239Y-91737212D01*
X169966797Y-91671789D01*
X169967910Y-91622755D01*
X170102950Y-91622755D01*
X170104845Y-91664832D01*
X170130632Y-91703904D01*
X170148451Y-91719262D01*
X170162013Y-91722909D01*
X170174949Y-91708118D01*
X170194333Y-91671265D01*
X170194881Y-91670184D01*
X170215587Y-91626704D01*
X170232105Y-91587807D01*
X170239093Y-91563131D01*
X170229753Y-91553233D01*
X170197748Y-91551423D01*
X170157915Y-91558943D01*
X170121717Y-91585012D01*
X170102950Y-91622755D01*
X169967910Y-91622755D01*
X169968359Y-91602972D01*
X169992878Y-91535562D01*
X170042302Y-91474365D01*
X170091212Y-91440459D01*
X170161027Y-91416103D01*
X170197748Y-91412142D01*
X170249055Y-91406610D01*
X170359078Y-91411225D01*
G37*
X170240128Y-93397910D02*
X170220308Y-93430217D01*
X170179160Y-93455678D01*
X170170675Y-93458293D01*
X170127451Y-93486431D01*
X170104103Y-93528842D01*
X170103100Y-93577539D01*
X170126914Y-93624536D01*
X170133056Y-93631552D01*
X170159745Y-93655016D01*
X170183014Y-93658890D01*
X170205862Y-93641141D01*
X170231287Y-93599730D01*
X170262288Y-93532623D01*
X170264252Y-93528085D01*
X170298990Y-93453587D01*
X170329763Y-93402706D01*
X170360488Y-93371384D01*
X170395082Y-93355566D01*
X170437462Y-93351195D01*
X170484446Y-93356923D01*
X170544585Y-93385847D01*
X170587788Y-93436731D01*
X170600759Y-93473535D01*
X170607856Y-93525475D01*
X170606340Y-93575910D01*
X170595632Y-93611926D01*
X170592966Y-93615751D01*
X170574337Y-93625911D01*
X170541505Y-93618861D01*
X170515735Y-93606612D01*
X170505006Y-93586970D01*
X170505539Y-93549718D01*
X170502462Y-93498001D01*
X170481212Y-93464208D01*
X170441877Y-93452795D01*
X170440747Y-93452805D01*
X170417913Y-93459722D01*
X170396963Y-93483250D01*
X170372815Y-93528995D01*
X170343741Y-93591205D01*
X170327925Y-93632410D01*
X170328944Y-93656197D01*
X170349837Y-93667312D01*
X170393641Y-93670501D01*
X170463393Y-93670509D01*
X170506452Y-93670865D01*
X170559626Y-93672496D01*
X170596022Y-93675148D01*
X170609514Y-93678487D01*
X170609423Y-93679379D01*
X170602110Y-93698672D01*
X170586678Y-93730625D01*
X170563842Y-93774785D01*
X170358078Y-93769538D01*
X170344432Y-93769173D01*
X170248651Y-93765005D01*
X170176462Y-93757641D01*
X170123058Y-93745579D01*
X170083633Y-93727316D01*
X170053380Y-93701349D01*
X170027493Y-93666176D01*
X170027087Y-93665525D01*
X170005968Y-93608653D01*
X170002400Y-93542876D01*
X170015569Y-93479426D01*
X170044661Y-93429533D01*
X170067327Y-93407584D01*
X170135082Y-93365405D01*
X170208950Y-93351195D01*
X170259770Y-93351195D01*
X170240128Y-93397910D01*
G36*
X170240128Y-93397910D02*
G01*
X170220308Y-93430217D01*
X170179160Y-93455678D01*
X170170675Y-93458293D01*
X170127451Y-93486431D01*
X170104103Y-93528842D01*
X170103100Y-93577539D01*
X170126914Y-93624536D01*
X170133056Y-93631552D01*
X170159745Y-93655016D01*
X170183014Y-93658890D01*
X170205862Y-93641141D01*
X170231287Y-93599730D01*
X170262288Y-93532623D01*
X170264252Y-93528085D01*
X170298990Y-93453587D01*
X170329763Y-93402706D01*
X170360488Y-93371384D01*
X170395082Y-93355566D01*
X170437462Y-93351195D01*
X170484446Y-93356923D01*
X170544585Y-93385847D01*
X170587788Y-93436731D01*
X170600759Y-93473535D01*
X170607856Y-93525475D01*
X170606340Y-93575910D01*
X170595632Y-93611926D01*
X170592966Y-93615751D01*
X170574337Y-93625911D01*
X170541505Y-93618861D01*
X170515735Y-93606612D01*
X170505006Y-93586970D01*
X170505539Y-93549718D01*
X170502462Y-93498001D01*
X170481212Y-93464208D01*
X170441877Y-93452795D01*
X170440747Y-93452805D01*
X170417913Y-93459722D01*
X170396963Y-93483250D01*
X170372815Y-93528995D01*
X170343741Y-93591205D01*
X170327925Y-93632410D01*
X170328944Y-93656197D01*
X170349837Y-93667312D01*
X170393641Y-93670501D01*
X170463393Y-93670509D01*
X170506452Y-93670865D01*
X170559626Y-93672496D01*
X170596022Y-93675148D01*
X170609514Y-93678487D01*
X170609423Y-93679379D01*
X170602110Y-93698672D01*
X170586678Y-93730625D01*
X170563842Y-93774785D01*
X170358078Y-93769538D01*
X170344432Y-93769173D01*
X170248651Y-93765005D01*
X170176462Y-93757641D01*
X170123058Y-93745579D01*
X170083633Y-93727316D01*
X170053380Y-93701349D01*
X170027493Y-93666176D01*
X170027087Y-93665525D01*
X170005968Y-93608653D01*
X170002400Y-93542876D01*
X170015569Y-93479426D01*
X170044661Y-93429533D01*
X170067327Y-93407584D01*
X170135082Y-93365405D01*
X170208950Y-93351195D01*
X170259770Y-93351195D01*
X170240128Y-93397910D01*
G37*
X170751426Y-90857275D02*
X170792073Y-90861419D01*
X170816023Y-90868945D01*
X170826171Y-90880638D01*
X170825414Y-90897285D01*
X170816648Y-90919673D01*
X170802769Y-90948588D01*
X170799808Y-90954767D01*
X170785311Y-90980496D01*
X170768065Y-90993933D01*
X170739308Y-90999075D01*
X170690283Y-90999919D01*
X170602257Y-90999957D01*
X170602257Y-91090633D01*
X170599815Y-91146411D01*
X170589908Y-91190269D01*
X170569886Y-91226691D01*
X170567929Y-91229406D01*
X170534869Y-91266363D01*
X170494931Y-91292083D01*
X170442657Y-91308303D01*
X170372588Y-91316761D01*
X170279267Y-91319195D01*
X170211169Y-91318656D01*
X170159587Y-91316202D01*
X170123816Y-91310751D01*
X170097015Y-91301223D01*
X170072338Y-91286538D01*
X170053480Y-91273057D01*
X170002568Y-91224110D01*
X169974918Y-91168653D01*
X169966165Y-91098981D01*
X169966776Y-91093400D01*
X170101514Y-91093400D01*
X170103094Y-91110559D01*
X170118766Y-91140249D01*
X170153691Y-91159878D01*
X170210901Y-91170721D01*
X170293430Y-91174052D01*
X170306697Y-91174027D01*
X170366584Y-91172648D01*
X170405732Y-91168222D01*
X170431153Y-91159448D01*
X170449857Y-91145023D01*
X170450750Y-91144125D01*
X170474952Y-91108672D01*
X170472567Y-91074313D01*
X170443260Y-91035506D01*
X170433244Y-91026014D01*
X170412708Y-91012033D01*
X170385997Y-91004149D01*
X170345499Y-91000664D01*
X170283603Y-90999880D01*
X170246130Y-91000559D01*
X170177980Y-91007926D01*
X170133330Y-91024741D01*
X170108926Y-91052675D01*
X170101514Y-91093400D01*
X169966776Y-91093400D01*
X169974890Y-91019245D01*
X170006185Y-90950314D01*
X170061381Y-90895796D01*
X170067224Y-90891686D01*
X170082753Y-90882101D01*
X170100498Y-90874758D01*
X170124290Y-90869297D01*
X170157958Y-90865359D01*
X170205333Y-90862586D01*
X170270245Y-90860617D01*
X170283603Y-90860381D01*
X170356524Y-90859094D01*
X170468000Y-90857657D01*
X170500339Y-90857258D01*
X170608455Y-90855980D01*
X170691186Y-90855724D01*
X170751426Y-90857275D01*
G36*
X170751426Y-90857275D02*
G01*
X170792073Y-90861419D01*
X170816023Y-90868945D01*
X170826171Y-90880638D01*
X170825414Y-90897285D01*
X170816648Y-90919673D01*
X170802769Y-90948588D01*
X170799808Y-90954767D01*
X170785311Y-90980496D01*
X170768065Y-90993933D01*
X170739308Y-90999075D01*
X170690283Y-90999919D01*
X170602257Y-90999957D01*
X170602257Y-91090633D01*
X170599815Y-91146411D01*
X170589908Y-91190269D01*
X170569886Y-91226691D01*
X170567929Y-91229406D01*
X170534869Y-91266363D01*
X170494931Y-91292083D01*
X170442657Y-91308303D01*
X170372588Y-91316761D01*
X170279267Y-91319195D01*
X170211169Y-91318656D01*
X170159587Y-91316202D01*
X170123816Y-91310751D01*
X170097015Y-91301223D01*
X170072338Y-91286538D01*
X170053480Y-91273057D01*
X170002568Y-91224110D01*
X169974918Y-91168653D01*
X169966165Y-91098981D01*
X169966776Y-91093400D01*
X170101514Y-91093400D01*
X170103094Y-91110559D01*
X170118766Y-91140249D01*
X170153691Y-91159878D01*
X170210901Y-91170721D01*
X170293430Y-91174052D01*
X170306697Y-91174027D01*
X170366584Y-91172648D01*
X170405732Y-91168222D01*
X170431153Y-91159448D01*
X170449857Y-91145023D01*
X170450750Y-91144125D01*
X170474952Y-91108672D01*
X170472567Y-91074313D01*
X170443260Y-91035506D01*
X170433244Y-91026014D01*
X170412708Y-91012033D01*
X170385997Y-91004149D01*
X170345499Y-91000664D01*
X170283603Y-90999880D01*
X170246130Y-91000559D01*
X170177980Y-91007926D01*
X170133330Y-91024741D01*
X170108926Y-91052675D01*
X170101514Y-91093400D01*
X169966776Y-91093400D01*
X169974890Y-91019245D01*
X170006185Y-90950314D01*
X170061381Y-90895796D01*
X170067224Y-90891686D01*
X170082753Y-90882101D01*
X170100498Y-90874758D01*
X170124290Y-90869297D01*
X170157958Y-90865359D01*
X170205333Y-90862586D01*
X170270245Y-90860617D01*
X170283603Y-90860381D01*
X170356524Y-90859094D01*
X170468000Y-90857657D01*
X170500339Y-90857258D01*
X170608455Y-90855980D01*
X170691186Y-90855724D01*
X170751426Y-90857275D01*
G37*
X170474983Y-95442165D02*
X170530845Y-95466485D01*
X170576355Y-95512341D01*
X170595727Y-95549471D01*
X170609292Y-95621198D01*
X170607462Y-95661057D01*
X170597568Y-95697956D01*
X170576806Y-95712112D01*
X170542613Y-95706818D01*
X170538092Y-95705278D01*
X170514116Y-95693067D01*
X170505042Y-95672735D01*
X170505649Y-95634001D01*
X170506474Y-95606652D01*
X170499392Y-95574652D01*
X170478219Y-95552727D01*
X170452152Y-95540239D01*
X170424845Y-95538847D01*
X170424685Y-95538911D01*
X170409930Y-95555102D01*
X170388457Y-95589754D01*
X170364458Y-95634588D01*
X170342125Y-95681327D01*
X170325652Y-95721692D01*
X170319229Y-95747405D01*
X170325518Y-95751230D01*
X170355115Y-95756045D01*
X170403447Y-95759343D01*
X170464372Y-95760566D01*
X170506542Y-95760851D01*
X170559653Y-95762191D01*
X170596025Y-95764381D01*
X170609514Y-95767140D01*
X170604981Y-95781565D01*
X170592670Y-95810683D01*
X170575826Y-95847652D01*
X170359721Y-95847652D01*
X170304327Y-95847416D01*
X170220207Y-95845180D01*
X170157800Y-95839486D01*
X170112358Y-95829006D01*
X170079133Y-95812412D01*
X170053378Y-95788378D01*
X170030344Y-95755576D01*
X170011335Y-95713785D01*
X169999914Y-95636622D01*
X170001220Y-95601414D01*
X170009121Y-95570310D01*
X170028817Y-95541350D01*
X170065484Y-95504078D01*
X170091378Y-95480108D01*
X170124997Y-95455139D01*
X170156506Y-95443878D01*
X170196485Y-95441252D01*
X170261917Y-95441252D01*
X170238842Y-95485874D01*
X170210724Y-95521236D01*
X170172848Y-95545458D01*
X170162551Y-95549618D01*
X170122637Y-95581315D01*
X170102624Y-95625355D01*
X170104572Y-95673378D01*
X170130543Y-95717023D01*
X170151635Y-95735489D01*
X170178619Y-95746246D01*
X170202634Y-95734731D01*
X170226791Y-95698928D01*
X170254199Y-95636819D01*
X170257985Y-95627394D01*
X170282759Y-95570851D01*
X170307189Y-95522329D01*
X170326486Y-95491458D01*
X170360953Y-95460538D01*
X170415957Y-95439982D01*
X170474983Y-95442165D01*
G36*
X170474983Y-95442165D02*
G01*
X170530845Y-95466485D01*
X170576355Y-95512341D01*
X170595727Y-95549471D01*
X170609292Y-95621198D01*
X170607462Y-95661057D01*
X170597568Y-95697956D01*
X170576806Y-95712112D01*
X170542613Y-95706818D01*
X170538092Y-95705278D01*
X170514116Y-95693067D01*
X170505042Y-95672735D01*
X170505649Y-95634001D01*
X170506474Y-95606652D01*
X170499392Y-95574652D01*
X170478219Y-95552727D01*
X170452152Y-95540239D01*
X170424845Y-95538847D01*
X170424685Y-95538911D01*
X170409930Y-95555102D01*
X170388457Y-95589754D01*
X170364458Y-95634588D01*
X170342125Y-95681327D01*
X170325652Y-95721692D01*
X170319229Y-95747405D01*
X170325518Y-95751230D01*
X170355115Y-95756045D01*
X170403447Y-95759343D01*
X170464372Y-95760566D01*
X170506542Y-95760851D01*
X170559653Y-95762191D01*
X170596025Y-95764381D01*
X170609514Y-95767140D01*
X170604981Y-95781565D01*
X170592670Y-95810683D01*
X170575826Y-95847652D01*
X170359721Y-95847652D01*
X170304327Y-95847416D01*
X170220207Y-95845180D01*
X170157800Y-95839486D01*
X170112358Y-95829006D01*
X170079133Y-95812412D01*
X170053378Y-95788378D01*
X170030344Y-95755576D01*
X170011335Y-95713785D01*
X169999914Y-95636622D01*
X170001220Y-95601414D01*
X170009121Y-95570310D01*
X170028817Y-95541350D01*
X170065484Y-95504078D01*
X170091378Y-95480108D01*
X170124997Y-95455139D01*
X170156506Y-95443878D01*
X170196485Y-95441252D01*
X170261917Y-95441252D01*
X170238842Y-95485874D01*
X170210724Y-95521236D01*
X170172848Y-95545458D01*
X170162551Y-95549618D01*
X170122637Y-95581315D01*
X170102624Y-95625355D01*
X170104572Y-95673378D01*
X170130543Y-95717023D01*
X170151635Y-95735489D01*
X170178619Y-95746246D01*
X170202634Y-95734731D01*
X170226791Y-95698928D01*
X170254199Y-95636819D01*
X170257985Y-95627394D01*
X170282759Y-95570851D01*
X170307189Y-95522329D01*
X170326486Y-95491458D01*
X170360953Y-95460538D01*
X170415957Y-95439982D01*
X170474983Y-95442165D01*
G37*
X167922839Y-91351852D02*
X167924642Y-91361069D01*
X167933980Y-91410018D01*
X167946669Y-91477704D01*
X167961273Y-91556431D01*
X167976355Y-91638509D01*
X167982422Y-91670831D01*
X167997181Y-91743054D01*
X168011137Y-91803243D01*
X168022952Y-91845869D01*
X168031287Y-91865399D01*
X168044905Y-91874249D01*
X168080938Y-91890361D01*
X168127572Y-91906844D01*
X168145034Y-91912646D01*
X168202358Y-91934003D01*
X168270201Y-91961550D01*
X168337355Y-91990802D01*
X168372430Y-92006446D01*
X168424822Y-92028735D01*
X168464058Y-92044052D01*
X168483563Y-92049747D01*
X168485036Y-92049431D01*
X168505729Y-92038628D01*
X168545665Y-92014271D01*
X168600972Y-91978828D01*
X168667781Y-91934773D01*
X168742220Y-91884577D01*
X168984623Y-91719408D01*
X169201983Y-91936406D01*
X169222899Y-91957393D01*
X169285505Y-92021567D01*
X169339495Y-92078919D01*
X169381826Y-92126089D01*
X169409457Y-92159717D01*
X169419343Y-92176442D01*
X169411821Y-92194606D01*
X169390227Y-92232644D01*
X169357151Y-92286183D01*
X169315191Y-92351025D01*
X169266943Y-92422969D01*
X169219291Y-92493634D01*
X169177328Y-92557383D01*
X169144165Y-92609396D01*
X169122378Y-92645630D01*
X169114543Y-92662042D01*
X169114614Y-92663004D01*
X169122338Y-92684806D01*
X169140323Y-92723469D01*
X169165013Y-92771297D01*
X169165284Y-92771799D01*
X169197099Y-92835322D01*
X169212642Y-92878849D01*
X169212685Y-92905857D01*
X169198000Y-92919819D01*
X169183544Y-92925729D01*
X169144831Y-92941680D01*
X169085316Y-92966249D01*
X169008165Y-92998130D01*
X168916541Y-93036016D01*
X168813607Y-93078599D01*
X168702526Y-93124572D01*
X168601472Y-93166242D01*
X168497780Y-93208641D01*
X168405119Y-93246153D01*
X168326642Y-93277521D01*
X168265500Y-93301484D01*
X168224843Y-93316786D01*
X168207825Y-93322166D01*
X168192219Y-93311891D01*
X168166162Y-93283346D01*
X168135887Y-93242938D01*
X168056684Y-93145930D01*
X167955475Y-93059116D01*
X167844116Y-92995587D01*
X167725893Y-92955732D01*
X167604095Y-92939944D01*
X167482010Y-92948613D01*
X167362925Y-92982131D01*
X167250129Y-93040888D01*
X167146911Y-93125277D01*
X167106713Y-93169278D01*
X167035638Y-93274698D01*
X166989301Y-93387499D01*
X166966599Y-93504384D01*
X166966428Y-93622056D01*
X166987687Y-93737219D01*
X167029270Y-93846574D01*
X167090076Y-93946826D01*
X167169001Y-94034676D01*
X167264941Y-94106829D01*
X167376795Y-94159987D01*
X167503457Y-94190852D01*
X167564507Y-94196517D01*
X167696776Y-94188724D01*
X167822266Y-94153625D01*
X167938759Y-94092260D01*
X168044039Y-94005666D01*
X168135887Y-93894880D01*
X168164930Y-93855978D01*
X168191272Y-93826805D01*
X168207800Y-93815652D01*
X168222209Y-93820099D01*
X168260815Y-93834531D01*
X168320201Y-93857736D01*
X168397215Y-93888457D01*
X168488703Y-93925435D01*
X168591516Y-93967413D01*
X168702502Y-94013131D01*
X168803072Y-94054731D01*
X168906947Y-94097687D01*
X168999819Y-94136080D01*
X169078525Y-94168604D01*
X169139899Y-94193951D01*
X169180779Y-94210814D01*
X169198000Y-94217884D01*
X169198204Y-94217966D01*
X169212745Y-94232111D01*
X169212579Y-94259250D01*
X169196927Y-94302886D01*
X169165013Y-94366521D01*
X169162326Y-94371530D01*
X169138150Y-94418784D01*
X169121037Y-94456098D01*
X169114543Y-94475776D01*
X169122218Y-94491904D01*
X169143871Y-94527950D01*
X169176928Y-94579817D01*
X169218810Y-94643464D01*
X169266943Y-94714849D01*
X169314131Y-94785185D01*
X169356267Y-94850239D01*
X169389578Y-94904089D01*
X169411469Y-94942535D01*
X169419343Y-94961375D01*
X169418343Y-94964584D01*
X169402584Y-94986955D01*
X169370033Y-95025176D01*
X169323733Y-95075888D01*
X169266726Y-95135728D01*
X169202058Y-95201338D01*
X168984772Y-95418261D01*
X168736253Y-95249308D01*
X168487733Y-95080356D01*
X168376595Y-95131726D01*
X168376266Y-95131878D01*
X168305418Y-95162726D01*
X168226523Y-95194248D01*
X168156600Y-95219643D01*
X168145322Y-95223486D01*
X168092967Y-95242862D01*
X168052283Y-95260335D01*
X168031287Y-95272521D01*
X168028322Y-95277483D01*
X168018375Y-95307275D01*
X168005505Y-95357862D01*
X167991053Y-95423715D01*
X167976355Y-95499309D01*
X167972210Y-95521952D01*
X167957116Y-95603871D01*
X167942899Y-95680309D01*
X167930995Y-95743572D01*
X167922839Y-95785966D01*
X167907799Y-95862166D01*
X167590492Y-95862166D01*
X167551476Y-95862149D01*
X167456292Y-95861827D01*
X167385255Y-95860876D01*
X167334734Y-95859013D01*
X167301098Y-95855954D01*
X167280718Y-95851415D01*
X167269962Y-95845114D01*
X167265199Y-95836766D01*
X167263270Y-95828685D01*
X167256445Y-95795737D01*
X167246022Y-95743173D01*
X167233018Y-95676340D01*
X167218449Y-95600581D01*
X167203333Y-95521244D01*
X167188685Y-95443672D01*
X167175523Y-95373211D01*
X167164863Y-95315207D01*
X167157721Y-95275005D01*
X167155114Y-95257950D01*
X167153541Y-95256797D01*
X167133119Y-95247524D01*
X167094045Y-95231477D01*
X167042629Y-95211274D01*
X166973353Y-95183237D01*
X166893290Y-95148723D01*
X166822728Y-95116371D01*
X166806889Y-95108957D01*
X166757293Y-95088154D01*
X166719038Y-95075690D01*
X166699356Y-95074046D01*
X166697962Y-95074894D01*
X166677420Y-95088361D01*
X166637516Y-95115059D01*
X166582140Y-95152370D01*
X166515177Y-95197675D01*
X166440517Y-95248357D01*
X166355692Y-95305464D01*
X166289800Y-95348302D01*
X166241478Y-95377449D01*
X166207733Y-95394592D01*
X166185572Y-95401414D01*
X166172002Y-95399603D01*
X166170984Y-95398994D01*
X166151210Y-95382612D01*
X166115175Y-95349214D01*
X166066451Y-95302238D01*
X166008612Y-95245123D01*
X165945227Y-95181306D01*
X165880905Y-95115107D01*
X165820447Y-95050261D01*
X165779655Y-95002610D01*
X165757484Y-94970919D01*
X165752889Y-94953951D01*
X165753921Y-94951734D01*
X165767837Y-94928385D01*
X165795030Y-94885997D01*
X165832889Y-94828540D01*
X165878803Y-94759986D01*
X165930160Y-94684308D01*
X166098626Y-94437611D01*
X166048062Y-94326203D01*
X166046597Y-94322966D01*
X166016965Y-94254566D01*
X165987493Y-94182002D01*
X165964358Y-94120452D01*
X165964262Y-94120180D01*
X165946367Y-94071314D01*
X165931253Y-94033697D01*
X165922184Y-94015452D01*
X165921855Y-94015157D01*
X165903282Y-94008963D01*
X165861045Y-93998770D01*
X165799696Y-93985561D01*
X165723789Y-93970319D01*
X165637875Y-93954028D01*
X165634796Y-93953460D01*
X165547128Y-93937196D01*
X165467741Y-93922301D01*
X165401701Y-93909738D01*
X165354079Y-93900471D01*
X165329943Y-93895465D01*
X165328605Y-93895145D01*
X165318273Y-93891849D01*
X165310506Y-93885171D01*
X165304940Y-93871447D01*
X165301207Y-93847014D01*
X165298942Y-93808207D01*
X165297778Y-93751363D01*
X165297348Y-93672819D01*
X165297286Y-93568909D01*
X165297286Y-93555853D01*
X165297371Y-93454976D01*
X165297865Y-93379053D01*
X165299135Y-93324418D01*
X165301547Y-93287409D01*
X165305467Y-93264362D01*
X165311262Y-93251613D01*
X165319299Y-93245498D01*
X165329943Y-93242353D01*
X165330325Y-93242263D01*
X165355347Y-93237095D01*
X165403681Y-93227700D01*
X165470260Y-93215042D01*
X165550014Y-93200084D01*
X165637875Y-93183790D01*
X165645064Y-93182461D01*
X165730340Y-93166218D01*
X165805242Y-93151104D01*
X165865219Y-93138101D01*
X165905717Y-93128194D01*
X165922184Y-93122365D01*
X165922210Y-93122334D01*
X165931320Y-93103966D01*
X165946457Y-93066269D01*
X165964358Y-93017366D01*
X165965330Y-93014612D01*
X165988959Y-92952092D01*
X166018595Y-92879366D01*
X166048062Y-92811615D01*
X166098626Y-92700206D01*
X165930160Y-92453510D01*
X165918311Y-92436134D01*
X165867947Y-92361707D01*
X165823612Y-92295295D01*
X165787916Y-92240870D01*
X165763471Y-92202403D01*
X165752889Y-92183867D01*
X165755315Y-92171166D01*
X165774110Y-92142330D01*
X165811330Y-92097766D01*
X165868020Y-92036239D01*
X165945227Y-91956511D01*
X165952255Y-91949377D01*
X166015222Y-91886113D01*
X166072268Y-91829919D01*
X166119817Y-91784232D01*
X166154297Y-91752495D01*
X166172131Y-91738145D01*
X166172217Y-91738099D01*
X166185795Y-91736276D01*
X166207820Y-91742999D01*
X166241304Y-91759963D01*
X166289261Y-91788865D01*
X166354704Y-91831401D01*
X166440645Y-91889265D01*
X166455151Y-91899126D01*
X166528635Y-91948996D01*
X166593687Y-91993004D01*
X166646417Y-92028529D01*
X166682936Y-92052950D01*
X166699356Y-92063645D01*
X166702834Y-92064451D01*
X166728785Y-92059391D01*
X166771159Y-92044232D01*
X166822728Y-92021446D01*
X166890170Y-91990480D01*
X166970195Y-91955905D01*
X167042629Y-91926543D01*
X167061377Y-91919264D01*
X167109246Y-91900199D01*
X167142596Y-91886194D01*
X167155114Y-91879868D01*
X167156050Y-91872884D01*
X167161461Y-91841496D01*
X167170806Y-91790122D01*
X167183069Y-91724107D01*
X167197232Y-91648796D01*
X167212280Y-91569534D01*
X167227195Y-91491666D01*
X167240961Y-91420539D01*
X167252562Y-91361497D01*
X167260980Y-91319887D01*
X167265199Y-91301052D01*
X167266389Y-91297929D01*
X167272805Y-91290318D01*
X167286465Y-91284655D01*
X167310999Y-91280658D01*
X167350038Y-91278043D01*
X167407213Y-91276525D01*
X167486154Y-91275823D01*
X167590492Y-91275652D01*
X167907799Y-91275652D01*
X167922839Y-91351852D01*
G36*
X167922839Y-91351852D02*
G01*
X167924642Y-91361069D01*
X167933980Y-91410018D01*
X167946669Y-91477704D01*
X167961273Y-91556431D01*
X167976355Y-91638509D01*
X167982422Y-91670831D01*
X167997181Y-91743054D01*
X168011137Y-91803243D01*
X168022952Y-91845869D01*
X168031287Y-91865399D01*
X168044905Y-91874249D01*
X168080938Y-91890361D01*
X168127572Y-91906844D01*
X168145034Y-91912646D01*
X168202358Y-91934003D01*
X168270201Y-91961550D01*
X168337355Y-91990802D01*
X168372430Y-92006446D01*
X168424822Y-92028735D01*
X168464058Y-92044052D01*
X168483563Y-92049747D01*
X168485036Y-92049431D01*
X168505729Y-92038628D01*
X168545665Y-92014271D01*
X168600972Y-91978828D01*
X168667781Y-91934773D01*
X168742220Y-91884577D01*
X168984623Y-91719408D01*
X169201983Y-91936406D01*
X169222899Y-91957393D01*
X169285505Y-92021567D01*
X169339495Y-92078919D01*
X169381826Y-92126089D01*
X169409457Y-92159717D01*
X169419343Y-92176442D01*
X169411821Y-92194606D01*
X169390227Y-92232644D01*
X169357151Y-92286183D01*
X169315191Y-92351025D01*
X169266943Y-92422969D01*
X169219291Y-92493634D01*
X169177328Y-92557383D01*
X169144165Y-92609396D01*
X169122378Y-92645630D01*
X169114543Y-92662042D01*
X169114614Y-92663004D01*
X169122338Y-92684806D01*
X169140323Y-92723469D01*
X169165013Y-92771297D01*
X169165284Y-92771799D01*
X169197099Y-92835322D01*
X169212642Y-92878849D01*
X169212685Y-92905857D01*
X169198000Y-92919819D01*
X169183544Y-92925729D01*
X169144831Y-92941680D01*
X169085316Y-92966249D01*
X169008165Y-92998130D01*
X168916541Y-93036016D01*
X168813607Y-93078599D01*
X168702526Y-93124572D01*
X168601472Y-93166242D01*
X168497780Y-93208641D01*
X168405119Y-93246153D01*
X168326642Y-93277521D01*
X168265500Y-93301484D01*
X168224843Y-93316786D01*
X168207825Y-93322166D01*
X168192219Y-93311891D01*
X168166162Y-93283346D01*
X168135887Y-93242938D01*
X168056684Y-93145930D01*
X167955475Y-93059116D01*
X167844116Y-92995587D01*
X167725893Y-92955732D01*
X167604095Y-92939944D01*
X167482010Y-92948613D01*
X167362925Y-92982131D01*
X167250129Y-93040888D01*
X167146911Y-93125277D01*
X167106713Y-93169278D01*
X167035638Y-93274698D01*
X166989301Y-93387499D01*
X166966599Y-93504384D01*
X166966428Y-93622056D01*
X166987687Y-93737219D01*
X167029270Y-93846574D01*
X167090076Y-93946826D01*
X167169001Y-94034676D01*
X167264941Y-94106829D01*
X167376795Y-94159987D01*
X167503457Y-94190852D01*
X167564507Y-94196517D01*
X167696776Y-94188724D01*
X167822266Y-94153625D01*
X167938759Y-94092260D01*
X168044039Y-94005666D01*
X168135887Y-93894880D01*
X168164930Y-93855978D01*
X168191272Y-93826805D01*
X168207800Y-93815652D01*
X168222209Y-93820099D01*
X168260815Y-93834531D01*
X168320201Y-93857736D01*
X168397215Y-93888457D01*
X168488703Y-93925435D01*
X168591516Y-93967413D01*
X168702502Y-94013131D01*
X168803072Y-94054731D01*
X168906947Y-94097687D01*
X168999819Y-94136080D01*
X169078525Y-94168604D01*
X169139899Y-94193951D01*
X169180779Y-94210814D01*
X169198000Y-94217884D01*
X169198204Y-94217966D01*
X169212745Y-94232111D01*
X169212579Y-94259250D01*
X169196927Y-94302886D01*
X169165013Y-94366521D01*
X169162326Y-94371530D01*
X169138150Y-94418784D01*
X169121037Y-94456098D01*
X169114543Y-94475776D01*
X169122218Y-94491904D01*
X169143871Y-94527950D01*
X169176928Y-94579817D01*
X169218810Y-94643464D01*
X169266943Y-94714849D01*
X169314131Y-94785185D01*
X169356267Y-94850239D01*
X169389578Y-94904089D01*
X169411469Y-94942535D01*
X169419343Y-94961375D01*
X169418343Y-94964584D01*
X169402584Y-94986955D01*
X169370033Y-95025176D01*
X169323733Y-95075888D01*
X169266726Y-95135728D01*
X169202058Y-95201338D01*
X168984772Y-95418261D01*
X168736253Y-95249308D01*
X168487733Y-95080356D01*
X168376595Y-95131726D01*
X168376266Y-95131878D01*
X168305418Y-95162726D01*
X168226523Y-95194248D01*
X168156600Y-95219643D01*
X168145322Y-95223486D01*
X168092967Y-95242862D01*
X168052283Y-95260335D01*
X168031287Y-95272521D01*
X168028322Y-95277483D01*
X168018375Y-95307275D01*
X168005505Y-95357862D01*
X167991053Y-95423715D01*
X167976355Y-95499309D01*
X167972210Y-95521952D01*
X167957116Y-95603871D01*
X167942899Y-95680309D01*
X167930995Y-95743572D01*
X167922839Y-95785966D01*
X167907799Y-95862166D01*
X167590492Y-95862166D01*
X167551476Y-95862149D01*
X167456292Y-95861827D01*
X167385255Y-95860876D01*
X167334734Y-95859013D01*
X167301098Y-95855954D01*
X167280718Y-95851415D01*
X167269962Y-95845114D01*
X167265199Y-95836766D01*
X167263270Y-95828685D01*
X167256445Y-95795737D01*
X167246022Y-95743173D01*
X167233018Y-95676340D01*
X167218449Y-95600581D01*
X167203333Y-95521244D01*
X167188685Y-95443672D01*
X167175523Y-95373211D01*
X167164863Y-95315207D01*
X167157721Y-95275005D01*
X167155114Y-95257950D01*
X167153541Y-95256797D01*
X167133119Y-95247524D01*
X167094045Y-95231477D01*
X167042629Y-95211274D01*
X166973353Y-95183237D01*
X166893290Y-95148723D01*
X166822728Y-95116371D01*
X166806889Y-95108957D01*
X166757293Y-95088154D01*
X166719038Y-95075690D01*
X166699356Y-95074046D01*
X166697962Y-95074894D01*
X166677420Y-95088361D01*
X166637516Y-95115059D01*
X166582140Y-95152370D01*
X166515177Y-95197675D01*
X166440517Y-95248357D01*
X166355692Y-95305464D01*
X166289800Y-95348302D01*
X166241478Y-95377449D01*
X166207733Y-95394592D01*
X166185572Y-95401414D01*
X166172002Y-95399603D01*
X166170984Y-95398994D01*
X166151210Y-95382612D01*
X166115175Y-95349214D01*
X166066451Y-95302238D01*
X166008612Y-95245123D01*
X165945227Y-95181306D01*
X165880905Y-95115107D01*
X165820447Y-95050261D01*
X165779655Y-95002610D01*
X165757484Y-94970919D01*
X165752889Y-94953951D01*
X165753921Y-94951734D01*
X165767837Y-94928385D01*
X165795030Y-94885997D01*
X165832889Y-94828540D01*
X165878803Y-94759986D01*
X165930160Y-94684308D01*
X166098626Y-94437611D01*
X166048062Y-94326203D01*
X166046597Y-94322966D01*
X166016965Y-94254566D01*
X165987493Y-94182002D01*
X165964358Y-94120452D01*
X165964262Y-94120180D01*
X165946367Y-94071314D01*
X165931253Y-94033697D01*
X165922184Y-94015452D01*
X165921855Y-94015157D01*
X165903282Y-94008963D01*
X165861045Y-93998770D01*
X165799696Y-93985561D01*
X165723789Y-93970319D01*
X165637875Y-93954028D01*
X165634796Y-93953460D01*
X165547128Y-93937196D01*
X165467741Y-93922301D01*
X165401701Y-93909738D01*
X165354079Y-93900471D01*
X165329943Y-93895465D01*
X165328605Y-93895145D01*
X165318273Y-93891849D01*
X165310506Y-93885171D01*
X165304940Y-93871447D01*
X165301207Y-93847014D01*
X165298942Y-93808207D01*
X165297778Y-93751363D01*
X165297348Y-93672819D01*
X165297286Y-93568909D01*
X165297286Y-93555853D01*
X165297371Y-93454976D01*
X165297865Y-93379053D01*
X165299135Y-93324418D01*
X165301547Y-93287409D01*
X165305467Y-93264362D01*
X165311262Y-93251613D01*
X165319299Y-93245498D01*
X165329943Y-93242353D01*
X165330325Y-93242263D01*
X165355347Y-93237095D01*
X165403681Y-93227700D01*
X165470260Y-93215042D01*
X165550014Y-93200084D01*
X165637875Y-93183790D01*
X165645064Y-93182461D01*
X165730340Y-93166218D01*
X165805242Y-93151104D01*
X165865219Y-93138101D01*
X165905717Y-93128194D01*
X165922184Y-93122365D01*
X165922210Y-93122334D01*
X165931320Y-93103966D01*
X165946457Y-93066269D01*
X165964358Y-93017366D01*
X165965330Y-93014612D01*
X165988959Y-92952092D01*
X166018595Y-92879366D01*
X166048062Y-92811615D01*
X166098626Y-92700206D01*
X165930160Y-92453510D01*
X165918311Y-92436134D01*
X165867947Y-92361707D01*
X165823612Y-92295295D01*
X165787916Y-92240870D01*
X165763471Y-92202403D01*
X165752889Y-92183867D01*
X165755315Y-92171166D01*
X165774110Y-92142330D01*
X165811330Y-92097766D01*
X165868020Y-92036239D01*
X165945227Y-91956511D01*
X165952255Y-91949377D01*
X166015222Y-91886113D01*
X166072268Y-91829919D01*
X166119817Y-91784232D01*
X166154297Y-91752495D01*
X166172131Y-91738145D01*
X166172217Y-91738099D01*
X166185795Y-91736276D01*
X166207820Y-91742999D01*
X166241304Y-91759963D01*
X166289261Y-91788865D01*
X166354704Y-91831401D01*
X166440645Y-91889265D01*
X166455151Y-91899126D01*
X166528635Y-91948996D01*
X166593687Y-91993004D01*
X166646417Y-92028529D01*
X166682936Y-92052950D01*
X166699356Y-92063645D01*
X166702834Y-92064451D01*
X166728785Y-92059391D01*
X166771159Y-92044232D01*
X166822728Y-92021446D01*
X166890170Y-91990480D01*
X166970195Y-91955905D01*
X167042629Y-91926543D01*
X167061377Y-91919264D01*
X167109246Y-91900199D01*
X167142596Y-91886194D01*
X167155114Y-91879868D01*
X167156050Y-91872884D01*
X167161461Y-91841496D01*
X167170806Y-91790122D01*
X167183069Y-91724107D01*
X167197232Y-91648796D01*
X167212280Y-91569534D01*
X167227195Y-91491666D01*
X167240961Y-91420539D01*
X167252562Y-91361497D01*
X167260980Y-91319887D01*
X167265199Y-91301052D01*
X167266389Y-91297929D01*
X167272805Y-91290318D01*
X167286465Y-91284655D01*
X167310999Y-91280658D01*
X167350038Y-91278043D01*
X167407213Y-91276525D01*
X167486154Y-91275823D01*
X167590492Y-91275652D01*
X167907799Y-91275652D01*
X167922839Y-91351852D01*
G37*
%TD*%
M02*
