%TF.GenerationSoftware,KiCad,Pcbnew,9.0.2*%
%TF.CreationDate,2025-07-27T21:59:33+02:00*%
%TF.ProjectId,USB-RS485_FT230,5553422d-5253-4343-9835-5f4654323330,rev?*%
%TF.SameCoordinates,Original*%
%TF.FileFunction,Copper,L1,Top*%
%TF.FilePolarity,Positive*%
%FSLAX46Y46*%
G04 Gerber Fmt 4.6, Leading zero omitted, Abs format (unit mm)*
G04 Created by KiCad (PCBNEW 9.0.2) date 2025-07-27 21:59:33*
%MOMM*%
%LPD*%
G01*
G04 APERTURE LIST*
G04 Aperture macros list*
%AMRoundRect*
0 Rectangle with rounded corners*
0 $1 Rounding radius*
0 $2 $3 $4 $5 $6 $7 $8 $9 X,Y pos of 4 corners*
0 Add a 4 corners polygon primitive as box body*
4,1,4,$2,$3,$4,$5,$6,$7,$8,$9,$2,$3,0*
0 Add four circle primitives for the rounded corners*
1,1,$1+$1,$2,$3*
1,1,$1+$1,$4,$5*
1,1,$1+$1,$6,$7*
1,1,$1+$1,$8,$9*
0 Add four rect primitives between the rounded corners*
20,1,$1+$1,$2,$3,$4,$5,0*
20,1,$1+$1,$4,$5,$6,$7,0*
20,1,$1+$1,$6,$7,$8,$9,0*
20,1,$1+$1,$8,$9,$2,$3,0*%
G04 Aperture macros list end*
%TA.AperFunction,SMDPad,CuDef*%
%ADD10RoundRect,0.150000X-0.587500X-0.150000X0.587500X-0.150000X0.587500X0.150000X-0.587500X0.150000X0*%
%TD*%
%TA.AperFunction,SMDPad,CuDef*%
%ADD11RoundRect,0.250000X0.450000X-0.262500X0.450000X0.262500X-0.450000X0.262500X-0.450000X-0.262500X0*%
%TD*%
%TA.AperFunction,SMDPad,CuDef*%
%ADD12RoundRect,0.250000X-0.250000X-0.475000X0.250000X-0.475000X0.250000X0.475000X-0.250000X0.475000X0*%
%TD*%
%TA.AperFunction,SMDPad,CuDef*%
%ADD13RoundRect,0.150000X-0.825000X-0.150000X0.825000X-0.150000X0.825000X0.150000X-0.825000X0.150000X0*%
%TD*%
%TA.AperFunction,SMDPad,CuDef*%
%ADD14RoundRect,0.250000X0.475000X-0.250000X0.475000X0.250000X-0.475000X0.250000X-0.475000X-0.250000X0*%
%TD*%
%TA.AperFunction,SMDPad,CuDef*%
%ADD15RoundRect,0.250000X0.262500X0.450000X-0.262500X0.450000X-0.262500X-0.450000X0.262500X-0.450000X0*%
%TD*%
%TA.AperFunction,SMDPad,CuDef*%
%ADD16RoundRect,0.243750X-0.456250X0.243750X-0.456250X-0.243750X0.456250X-0.243750X0.456250X0.243750X0*%
%TD*%
%TA.AperFunction,SMDPad,CuDef*%
%ADD17RoundRect,0.250000X0.250000X0.475000X-0.250000X0.475000X-0.250000X-0.475000X0.250000X-0.475000X0*%
%TD*%
%TA.AperFunction,ComponentPad*%
%ADD18R,1.700000X1.700000*%
%TD*%
%TA.AperFunction,ComponentPad*%
%ADD19C,1.700000*%
%TD*%
%TA.AperFunction,ComponentPad*%
%ADD20R,1.500000X1.500000*%
%TD*%
%TA.AperFunction,ComponentPad*%
%ADD21C,1.500000*%
%TD*%
%TA.AperFunction,SMDPad,CuDef*%
%ADD22RoundRect,0.243750X0.456250X-0.243750X0.456250X0.243750X-0.456250X0.243750X-0.456250X-0.243750X0*%
%TD*%
%TA.AperFunction,SMDPad,CuDef*%
%ADD23RoundRect,0.250000X-0.450000X0.262500X-0.450000X-0.262500X0.450000X-0.262500X0.450000X0.262500X0*%
%TD*%
%TA.AperFunction,SMDPad,CuDef*%
%ADD24RoundRect,0.250000X-0.262500X-0.450000X0.262500X-0.450000X0.262500X0.450000X-0.262500X0.450000X0*%
%TD*%
%TA.AperFunction,SMDPad,CuDef*%
%ADD25RoundRect,0.075000X-0.075000X0.350000X-0.075000X-0.350000X0.075000X-0.350000X0.075000X0.350000X0*%
%TD*%
%TA.AperFunction,SMDPad,CuDef*%
%ADD26RoundRect,0.075000X-0.350000X0.075000X-0.350000X-0.075000X0.350000X-0.075000X0.350000X0.075000X0*%
%TD*%
%TA.AperFunction,HeatsinkPad*%
%ADD27R,2.100000X2.100000*%
%TD*%
%TA.AperFunction,SMDPad,CuDef*%
%ADD28RoundRect,0.250000X-0.475000X0.250000X-0.475000X-0.250000X0.475000X-0.250000X0.475000X0.250000X0*%
%TD*%
%TA.AperFunction,SMDPad,CuDef*%
%ADD29RoundRect,0.100000X-0.100000X0.225000X-0.100000X-0.225000X0.100000X-0.225000X0.100000X0.225000X0*%
%TD*%
%TA.AperFunction,SMDPad,CuDef*%
%ADD30R,0.400000X0.230000*%
%TD*%
%TA.AperFunction,SMDPad,CuDef*%
%ADD31R,0.300000X1.300000*%
%TD*%
%TA.AperFunction,SMDPad,CuDef*%
%ADD32RoundRect,0.150000X-0.425000X0.150000X-0.425000X-0.150000X0.425000X-0.150000X0.425000X0.150000X0*%
%TD*%
%TA.AperFunction,SMDPad,CuDef*%
%ADD33RoundRect,0.075000X-0.500000X0.075000X-0.500000X-0.075000X0.500000X-0.075000X0.500000X0.075000X0*%
%TD*%
%TA.AperFunction,SMDPad,CuDef*%
%ADD34RoundRect,0.250000X-0.750000X0.840000X-0.750000X-0.840000X0.750000X-0.840000X0.750000X0.840000X0*%
%TD*%
%TA.AperFunction,ViaPad*%
%ADD35C,0.600000*%
%TD*%
%TA.AperFunction,Conductor*%
%ADD36C,0.200000*%
%TD*%
%TA.AperFunction,Conductor*%
%ADD37C,0.350000*%
%TD*%
%TA.AperFunction,Conductor*%
%ADD38C,0.250000*%
%TD*%
%TA.AperFunction,Conductor*%
%ADD39C,0.300000*%
%TD*%
%TA.AperFunction,Conductor*%
%ADD40C,0.400000*%
%TD*%
%TA.AperFunction,Conductor*%
%ADD41C,0.230000*%
%TD*%
G04 APERTURE END LIST*
D10*
%TO.P,D3,1,A1*%
%TO.N,/RS485_P*%
X162085000Y-92638909D03*
%TO.P,D3,2,A2*%
%TO.N,/RS485_N*%
X162085000Y-94538909D03*
%TO.P,D3,3,common*%
%TO.N,GND2*%
X163960000Y-93588909D03*
%TD*%
D11*
%TO.P,R7,1*%
%TO.N,/RS485_N*%
X166095000Y-94501409D03*
%TO.P,R7,2*%
%TO.N,/RS485_P*%
X166095000Y-92676409D03*
%TD*%
D12*
%TO.P,C4,1*%
%TO.N,+5V_USB*%
X134715000Y-98948909D03*
%TO.P,C4,2*%
%TO.N,GND1*%
X136615000Y-98948909D03*
%TD*%
D13*
%TO.P,U3,1,VDD1*%
%TO.N,VCCIO*%
X151570000Y-92943909D03*
%TO.P,U3,2,VOA*%
%TO.N,Net-(U3-VOA)*%
X151570000Y-94213909D03*
%TO.P,U3,3,VIB*%
%TO.N,Net-(U1-TXD)*%
X151570000Y-95483909D03*
%TO.P,U3,4,GND1*%
%TO.N,GND1*%
X151570000Y-96753909D03*
%TO.P,U3,5,GND2*%
%TO.N,GND2*%
X156520000Y-96753909D03*
%TO.P,U3,6,VOB*%
%TO.N,Net-(J3-Pin_5)*%
X156520000Y-95483909D03*
%TO.P,U3,7,VIA*%
%TO.N,Net-(J3-Pin_4)*%
X156520000Y-94213909D03*
%TO.P,U3,8,VDD2*%
%TO.N,+V_OUT*%
X156520000Y-92943909D03*
%TD*%
D14*
%TO.P,C12,1*%
%TO.N,+5V_ISO*%
X161535000Y-99018909D03*
%TO.P,C12,2*%
%TO.N,GND2*%
X161535000Y-97118909D03*
%TD*%
D15*
%TO.P,R1,1*%
%TO.N,Net-(U1-USBDM)*%
X136567500Y-94463909D03*
%TO.P,R1,2*%
%TO.N,Net-(J1-D--PadA7)*%
X134742500Y-94463909D03*
%TD*%
%TO.P,R4,1*%
%TO.N,GND1*%
X132467500Y-101438909D03*
%TO.P,R4,2*%
%TO.N,Net-(J1-CC2)*%
X130642500Y-101438909D03*
%TD*%
D12*
%TO.P,C9,1*%
%TO.N,GND1*%
X144975000Y-96148909D03*
%TO.P,C9,2*%
%TO.N,VCCIO*%
X146875000Y-96148909D03*
%TD*%
D16*
%TO.P,D1,1,K*%
%TO.N,Net-(D1-K)*%
X144515000Y-100911409D03*
%TO.P,D1,2,A*%
%TO.N,Net-(D1-A)*%
X144515000Y-102786409D03*
%TD*%
D15*
%TO.P,R2,1*%
%TO.N,Net-(U1-USBDP)*%
X136567500Y-92338909D03*
%TO.P,R2,2*%
%TO.N,Net-(J1-D+-PadA6)*%
X134742500Y-92338909D03*
%TD*%
D17*
%TO.P,C15,1*%
%TO.N,GND2*%
X165525000Y-83448909D03*
%TO.P,C15,2*%
%TO.N,+1.8V_ISO*%
X163625000Y-83448909D03*
%TD*%
D18*
%TO.P,J3,1,Pin_1*%
%TO.N,GND2*%
X172705000Y-85985909D03*
D19*
%TO.P,J3,2,Pin_2*%
%TO.N,/RS485_P*%
X172705000Y-88525909D03*
%TO.P,J3,3,Pin_3*%
%TO.N,/RS485_N*%
X172705000Y-91065909D03*
%TO.P,J3,4,Pin_4*%
%TO.N,Net-(J3-Pin_4)*%
X172705000Y-93605909D03*
%TO.P,J3,5,Pin_5*%
%TO.N,Net-(J3-Pin_5)*%
X172705000Y-96145909D03*
%TO.P,J3,6,Pin_6*%
%TO.N,+V_OUT*%
X172705000Y-98685909D03*
%TO.P,J3,7,Pin_7*%
%TO.N,GND2*%
X172705000Y-101225909D03*
%TD*%
D17*
%TO.P,C1,1*%
%TO.N,Net-(U1-USBDP)*%
X136595000Y-90108909D03*
%TO.P,C1,2*%
%TO.N,GND1*%
X134695000Y-90108909D03*
%TD*%
D14*
%TO.P,C5,1*%
%TO.N,VCCIO*%
X138885000Y-89158909D03*
%TO.P,C5,2*%
%TO.N,GND1*%
X138885000Y-87258909D03*
%TD*%
D20*
%TO.P,U4,1,-Vin*%
%TO.N,GND1*%
X150445000Y-103008909D03*
D21*
%TO.P,U4,2,+Vin*%
%TO.N,+5V_USB*%
X152985000Y-103008909D03*
%TO.P,U4,3,-Vout*%
%TO.N,GND2*%
X155525000Y-103008909D03*
%TO.P,U4,4,+Vout*%
%TO.N,+5V_ISO*%
X158065000Y-103008909D03*
%TD*%
D22*
%TO.P,D4,1,K*%
%TO.N,GND2*%
X165885000Y-102966409D03*
%TO.P,D4,2,A*%
%TO.N,Net-(D4-A)*%
X165885000Y-101091409D03*
%TD*%
D12*
%TO.P,C7,1*%
%TO.N,GND1*%
X144995000Y-98658909D03*
%TO.P,C7,2*%
%TO.N,+5V_USB*%
X146895000Y-98658909D03*
%TD*%
D23*
%TO.P,R6,1*%
%TO.N,VCCIO*%
X135755000Y-100966409D03*
%TO.P,R6,2*%
%TO.N,Net-(D2-A)*%
X135755000Y-102791409D03*
%TD*%
D24*
%TO.P,R3,1*%
%TO.N,GND1*%
X126742500Y-85198909D03*
%TO.P,R3,2*%
%TO.N,Net-(J1-CC1)*%
X128567500Y-85198909D03*
%TD*%
D17*
%TO.P,C3,1*%
%TO.N,Net-(U1-USBDM)*%
X136615000Y-96748909D03*
%TO.P,C3,2*%
%TO.N,GND1*%
X134715000Y-96748909D03*
%TD*%
D14*
%TO.P,C14,1*%
%TO.N,GND2*%
X161505000Y-103008909D03*
%TO.P,C14,2*%
%TO.N,+5V_ISO*%
X161505000Y-101108909D03*
%TD*%
D25*
%TO.P,U1,1,VCCIO*%
%TO.N,VCCIO*%
X141480000Y-91438909D03*
%TO.P,U1,2,RXD*%
%TO.N,Net-(U1-RXD)*%
X140830000Y-91438909D03*
%TO.P,U1,3,GND*%
%TO.N,GND1*%
X140180000Y-91438909D03*
%TO.P,U1,4,~{CTS}*%
%TO.N,unconnected-(U1-~{CTS}-Pad4)*%
X139530000Y-91438909D03*
D26*
%TO.P,U1,5,CBUS2*%
%TO.N,Net-(U1-CBUS2)*%
X138555000Y-92413909D03*
%TO.P,U1,6,USBDP*%
%TO.N,Net-(U1-USBDP)*%
X138555000Y-93063909D03*
%TO.P,U1,7,USBDM*%
%TO.N,Net-(U1-USBDM)*%
X138555000Y-93713909D03*
%TO.P,U1,8,3V3OUT*%
%TO.N,VCCIO*%
X138555000Y-94363909D03*
D25*
%TO.P,U1,9,~{RESET}*%
X139530000Y-95338909D03*
%TO.P,U1,10,VCC*%
%TO.N,+5V_USB*%
X140180000Y-95338909D03*
%TO.P,U1,11,CBUS1*%
%TO.N,Net-(D2-K)*%
X140830000Y-95338909D03*
%TO.P,U1,12,CBUS0*%
%TO.N,Net-(D1-K)*%
X141480000Y-95338909D03*
D26*
%TO.P,U1,13,GND*%
%TO.N,GND1*%
X142455000Y-94363909D03*
%TO.P,U1,14,CBUS3*%
%TO.N,Net-(U1-CBUS3)*%
X142455000Y-93713909D03*
%TO.P,U1,15,TXD*%
%TO.N,Net-(U1-TXD)*%
X142455000Y-93063909D03*
%TO.P,U1,16,~{RTS}*%
%TO.N,unconnected-(U1-~{RTS}-Pad16)*%
X142455000Y-92413909D03*
D27*
%TO.P,U1,17,GND*%
%TO.N,GND1*%
X140505000Y-93388909D03*
%TD*%
D28*
%TO.P,C8,1*%
%TO.N,GND1*%
X146785000Y-87258909D03*
%TO.P,C8,2*%
%TO.N,VCCIO*%
X146785000Y-89158909D03*
%TD*%
D17*
%TO.P,C16,1*%
%TO.N,GND2*%
X165495000Y-87868909D03*
%TO.P,C16,2*%
%TO.N,+3.3V_ISO*%
X163595000Y-87868909D03*
%TD*%
D28*
%TO.P,C6,1*%
%TO.N,VCCIO*%
X144885000Y-92198909D03*
%TO.P,C6,2*%
%TO.N,GND1*%
X144885000Y-94098909D03*
%TD*%
D29*
%TO.P,U2,1*%
%TO.N,Net-(U5-R)*%
X142315000Y-87238909D03*
%TO.P,U2,2,GND*%
%TO.N,GND1*%
X141665000Y-87238909D03*
%TO.P,U2,3*%
%TO.N,Net-(U3-VOA)*%
X141015000Y-87238909D03*
%TO.P,U2,4*%
%TO.N,Net-(U1-RXD)*%
X141015000Y-89138909D03*
%TO.P,U2,5,V+*%
%TO.N,VCCIO*%
X141665000Y-89138909D03*
%TO.P,U2,6*%
%TO.N,RS_ACT*%
X142315000Y-89138909D03*
%TD*%
D23*
%TO.P,R8,1*%
%TO.N,Net-(D4-A)*%
X163655000Y-97136409D03*
%TO.P,R8,2*%
%TO.N,+5V_ISO*%
X163655000Y-98961409D03*
%TD*%
D12*
%TO.P,C11,1*%
%TO.N,+V_OUT*%
X163610000Y-90512095D03*
%TO.P,C11,2*%
%TO.N,GND2*%
X165510000Y-90512095D03*
%TD*%
D18*
%TO.P,J2,1,Pin_1*%
%TO.N,+1.8V_ISO*%
X160605000Y-84128909D03*
D19*
%TO.P,J2,2,Pin_2*%
%TO.N,+V_OUT*%
X160605000Y-86668909D03*
%TO.P,J2,3,Pin_3*%
%TO.N,+3.3V_ISO*%
X158065000Y-84128909D03*
%TO.P,J2,4,Pin_4*%
%TO.N,+V_OUT*%
X158065000Y-86668909D03*
%TO.P,J2,5,Pin_5*%
%TO.N,+5V_ISO*%
X155525000Y-84128909D03*
%TO.P,J2,6,Pin_6*%
%TO.N,+V_OUT*%
X155525000Y-86668909D03*
%TO.P,J2,7,Pin_7*%
%TO.N,VCCIO*%
X152985000Y-84128909D03*
%TO.P,J2,8,Pin_8*%
%TO.N,RS_ACT*%
X152985000Y-86668909D03*
%TD*%
D14*
%TO.P,C13,1*%
%TO.N,GND2*%
X163685000Y-102998909D03*
%TO.P,C13,2*%
%TO.N,+5V_ISO*%
X163685000Y-101098909D03*
%TD*%
D12*
%TO.P,C2,1*%
%TO.N,GND1*%
X134695000Y-87888909D03*
%TO.P,C2,2*%
%TO.N,+5V_USB*%
X136595000Y-87888909D03*
%TD*%
D30*
%TO.P,U6,1,GND_1*%
%TO.N,GND2*%
X164045000Y-84993909D03*
%TO.P,U6,2,VOUT1*%
%TO.N,+1.8V_ISO*%
X164045000Y-85393909D03*
%TO.P,U6,3,VOUT2*%
%TO.N,+3.3V_ISO*%
X164045000Y-85793909D03*
%TO.P,U6,4,GND_2*%
%TO.N,GND2*%
X164045000Y-86193909D03*
%TO.P,U6,5,EN2*%
%TO.N,+5V_ISO*%
X165045000Y-86193909D03*
%TO.P,U6,6,VIN2*%
X165045000Y-85793909D03*
%TO.P,U6,7,VIN1*%
X165045000Y-85393909D03*
%TO.P,U6,8,EN1*%
X165045000Y-84993909D03*
D31*
%TO.P,U6,9,EP*%
%TO.N,GND2*%
X164545000Y-85593909D03*
%TD*%
D15*
%TO.P,R9,1*%
%TO.N,RS_ACT*%
X136567500Y-85668909D03*
%TO.P,R9,2*%
%TO.N,GND1*%
X134742500Y-85668909D03*
%TD*%
D32*
%TO.P,J1,A1,GND*%
%TO.N,GND1*%
X132110000Y-90188909D03*
%TO.P,J1,A4,VBUS*%
%TO.N,+5V_USB*%
X132110000Y-90988909D03*
D33*
%TO.P,J1,A5,CC1*%
%TO.N,Net-(J1-CC1)*%
X132110000Y-92138909D03*
%TO.P,J1,A6,D+*%
%TO.N,Net-(J1-D+-PadA6)*%
X132110000Y-93138909D03*
%TO.P,J1,A7,D-*%
%TO.N,Net-(J1-D--PadA7)*%
X132110000Y-93638909D03*
%TO.P,J1,A8,SBU1*%
%TO.N,unconnected-(J1-SBU1-PadA8)*%
X132110000Y-94638909D03*
D32*
%TO.P,J1,A9,VBUS*%
%TO.N,+5V_USB*%
X132110000Y-95788909D03*
%TO.P,J1,A12,GND*%
%TO.N,GND1*%
X132110000Y-96588909D03*
%TO.P,J1,B1,GND*%
X132110000Y-96588909D03*
%TO.P,J1,B4,VBUS*%
%TO.N,+5V_USB*%
X132110000Y-95788909D03*
D33*
%TO.P,J1,B5,CC2*%
%TO.N,Net-(J1-CC2)*%
X132110000Y-95138909D03*
%TO.P,J1,B6,D+*%
%TO.N,Net-(J1-D+-PadA6)*%
X132110000Y-94138909D03*
%TO.P,J1,B7,D-*%
%TO.N,Net-(J1-D--PadA7)*%
X132110000Y-92638909D03*
%TO.P,J1,B8,SBU2*%
%TO.N,unconnected-(J1-SBU2-PadB8)*%
X132110000Y-91638909D03*
D32*
%TO.P,J1,B9,VBUS*%
%TO.N,+5V_USB*%
X132110000Y-90988909D03*
%TO.P,J1,B12,GND*%
%TO.N,GND1*%
X132110000Y-90188909D03*
D34*
%TO.P,J1,S1,SHIELD*%
X131535000Y-88278909D03*
X127605000Y-88278909D03*
X131535000Y-98498909D03*
X127605000Y-98498909D03*
%TD*%
D16*
%TO.P,D2,1,K*%
%TO.N,Net-(D2-K)*%
X138145000Y-100941409D03*
%TO.P,D2,2,A*%
%TO.N,Net-(D2-A)*%
X138145000Y-102816409D03*
%TD*%
D23*
%TO.P,R5,1*%
%TO.N,VCCIO*%
X142155000Y-100926409D03*
%TO.P,R5,2*%
%TO.N,Net-(D1-A)*%
X142155000Y-102751409D03*
%TD*%
D35*
%TO.N,GND1*%
X144205000Y-98648909D03*
X127645000Y-99688909D03*
X131335000Y-86878909D03*
X140085000Y-87458909D03*
X133945000Y-85648909D03*
X133905000Y-90108909D03*
X148075000Y-96768909D03*
X133895000Y-96728909D03*
X140180000Y-90718264D03*
X128135000Y-89648909D03*
X133055000Y-98348909D03*
X133925000Y-87888909D03*
X142455000Y-95038909D03*
X147795000Y-87238909D03*
X144215000Y-96158909D03*
X137405000Y-98948909D03*
%TO.N,+5V_USB*%
X140180000Y-96408909D03*
X138895000Y-96408909D03*
%TO.N,GND2*%
X165495000Y-86848909D03*
X161495000Y-102208909D03*
X164532652Y-84488474D03*
X164715000Y-83318909D03*
X160015000Y-96748909D03*
X166300000Y-90500000D03*
X163685000Y-102218909D03*
X165875000Y-102198909D03*
X160105000Y-90418909D03*
X162945000Y-93598909D03*
%TO.N,VCCIO*%
X151855000Y-87928909D03*
X137625159Y-92638909D03*
X144901091Y-91082818D03*
X137625159Y-94128909D03*
X150705000Y-98018909D03*
%TO.N,/RS485_P*%
X160947169Y-93163909D03*
%TO.N,/RS485_N*%
X160947169Y-94013909D03*
%TO.N,+V_OUT*%
X162475000Y-89710000D03*
X162455000Y-88433909D03*
%TO.N,+5V_ISO*%
X157375000Y-98048909D03*
%TO.N,Net-(J1-D--PadA7)*%
X133084389Y-93738908D03*
X133084388Y-92538909D03*
%TO.N,Net-(U1-TXD)*%
X146945000Y-92398909D03*
%TO.N,Net-(U1-CBUS2)*%
X142030000Y-90031409D03*
X146155000Y-92388909D03*
X140455000Y-90020499D03*
%TO.N,Net-(U1-CBUS3)*%
X148051091Y-94262818D03*
%TO.N,Net-(U5-R)*%
X147725000Y-92388909D03*
%TD*%
D36*
%TO.N,GND1*%
X139441000Y-87814909D02*
X138885000Y-87258909D01*
X142455000Y-94363909D02*
X142455000Y-95038909D01*
X146785000Y-87258909D02*
X147775000Y-87258909D01*
X127605000Y-98248909D02*
X127605000Y-88028909D01*
X140180000Y-90718264D02*
X140180000Y-91438909D01*
X144995000Y-98658909D02*
X144215000Y-98658909D01*
X141665000Y-87413069D02*
X141263160Y-87814909D01*
X133965000Y-85668909D02*
X133945000Y-85648909D01*
X148090000Y-96753909D02*
X148075000Y-96768909D01*
X134715000Y-96748909D02*
X133915000Y-96748909D01*
X134695000Y-90108909D02*
X133905000Y-90108909D01*
X134742500Y-85668909D02*
X133965000Y-85668909D01*
X131635000Y-98348909D02*
X131535000Y-98248909D01*
X128135000Y-89648909D02*
X128135000Y-88558909D01*
X128135000Y-88558909D02*
X127605000Y-88028909D01*
X140180000Y-93063909D02*
X140505000Y-93388909D01*
X127605000Y-99648909D02*
X127645000Y-99688909D01*
X131535000Y-88278909D02*
X131535000Y-89363909D01*
X128135000Y-89018909D02*
X128135000Y-89648909D01*
X131335000Y-86878909D02*
X131318826Y-86895083D01*
X144215000Y-98658909D02*
X144205000Y-98648909D01*
X144225000Y-96148909D02*
X144215000Y-96158909D01*
X132110000Y-96588909D02*
X131535000Y-97163909D01*
X151570000Y-96753909D02*
X148090000Y-96753909D01*
X132467500Y-101438909D02*
X132467500Y-99181409D01*
X131318826Y-88062735D02*
X131535000Y-88278909D01*
X133055000Y-98263909D02*
X133055000Y-98348909D01*
X131318826Y-86895083D02*
X131318826Y-88062735D01*
X133915000Y-96748909D02*
X133895000Y-96728909D01*
X144975000Y-96148909D02*
X144225000Y-96148909D01*
X127605000Y-86061409D02*
X126742500Y-85198909D01*
X140180000Y-91438909D02*
X140180000Y-93063909D01*
X131535000Y-89363909D02*
X132110000Y-89938909D01*
X136615000Y-98948909D02*
X137405000Y-98948909D01*
X141665000Y-87238909D02*
X141665000Y-87413069D01*
X147775000Y-87258909D02*
X147795000Y-87238909D01*
X141263160Y-87814909D02*
X139441000Y-87814909D01*
X127605000Y-88028909D02*
X127605000Y-86061409D01*
X133055000Y-98348909D02*
X131635000Y-98348909D01*
X132110000Y-90188909D02*
X132190000Y-90108909D01*
X142455000Y-94363909D02*
X141480000Y-94363909D01*
X127605000Y-98248909D02*
X127605000Y-99648909D01*
X132467500Y-99181409D02*
X131535000Y-98248909D01*
X133925000Y-87888909D02*
X134695000Y-87888909D01*
X141480000Y-94363909D02*
X140505000Y-93388909D01*
X131535000Y-97163909D02*
X131535000Y-98248909D01*
D37*
%TO.N,+5V_USB*%
X133335000Y-95788909D02*
X132110000Y-95788909D01*
X146895000Y-98658909D02*
X146615000Y-98938909D01*
X138895000Y-96408909D02*
X138885000Y-96408909D01*
X134415000Y-100748909D02*
X134415000Y-103158909D01*
X135655000Y-88828909D02*
X136595000Y-87888909D01*
X135655000Y-91263909D02*
X135655000Y-95538909D01*
X146615000Y-98938909D02*
X146615000Y-103962909D01*
X135655000Y-97738909D02*
X135655000Y-96648909D01*
X147108000Y-104012909D02*
X149352000Y-101768909D01*
X135655000Y-96648909D02*
X135655000Y-95538909D01*
X137485000Y-97808909D02*
X135725000Y-97808909D01*
X146795000Y-104012909D02*
X147108000Y-104012909D01*
D38*
X132110000Y-90988909D02*
X132560908Y-90988909D01*
D37*
X135655000Y-91263909D02*
X135655000Y-88828909D01*
X135655000Y-95538909D02*
X135655000Y-97738909D01*
X135655000Y-97738909D02*
X135655000Y-98948909D01*
X134415000Y-103158909D02*
X135269000Y-104012909D01*
X135725000Y-97808909D02*
X135655000Y-97738909D01*
X135655000Y-95538909D02*
X133585000Y-95538909D01*
X133660000Y-91263909D02*
X135655000Y-91263909D01*
X138885000Y-96408909D02*
X137485000Y-97808909D01*
X135655000Y-99508909D02*
X134415000Y-100748909D01*
X135655000Y-98948909D02*
X135655000Y-99508909D01*
X133385000Y-90988909D02*
X133660000Y-91263909D01*
D39*
X140180000Y-95338909D02*
X140180000Y-96408909D01*
D37*
X151745000Y-101768909D02*
X152985000Y-103008909D01*
X134715000Y-98948909D02*
X135655000Y-98948909D01*
X135645000Y-96658909D02*
X135655000Y-96648909D01*
X133585000Y-95538909D02*
X133335000Y-95788909D01*
X132110000Y-90988909D02*
X133385000Y-90988909D01*
X135269000Y-104012909D02*
X146795000Y-104012909D01*
X149352000Y-101768909D02*
X151745000Y-101768909D01*
D36*
%TO.N,GND2*%
X164545000Y-86110909D02*
X164545000Y-85593909D01*
X164462000Y-86193909D02*
X164545000Y-86110909D01*
X165510000Y-90512095D02*
X166287905Y-90512095D01*
X162955000Y-93588909D02*
X162945000Y-93598909D01*
X161365000Y-90388909D02*
X160135000Y-90388909D01*
X161505000Y-102218909D02*
X161495000Y-102208909D01*
X165885000Y-102208909D02*
X165875000Y-102198909D01*
X163685000Y-102998909D02*
X163685000Y-102218909D01*
X165885000Y-102966409D02*
X165885000Y-102208909D01*
X164061000Y-86209909D02*
X164045000Y-86209909D01*
D37*
X156520000Y-96753909D02*
X160010000Y-96753909D01*
D36*
X160135000Y-90388909D02*
X160105000Y-90418909D01*
X161505000Y-103008909D02*
X161505000Y-102218909D01*
X164545000Y-85593909D02*
X164545000Y-84500822D01*
X164532652Y-84488474D02*
X164532652Y-84506257D01*
X164545000Y-84500822D02*
X164532652Y-84488474D01*
X164061000Y-84977909D02*
X164045000Y-84977909D01*
X166287905Y-90512095D02*
X166300000Y-90500000D01*
X163960000Y-93588909D02*
X162955000Y-93588909D01*
X164545000Y-85076909D02*
X164545000Y-85593909D01*
X165505000Y-83338909D02*
X164735000Y-83338909D01*
X165495000Y-87868909D02*
X165495000Y-86848909D01*
D37*
X161535000Y-96748909D02*
X160015000Y-96748909D01*
D36*
X164462000Y-84993909D02*
X164545000Y-85076909D01*
X164735000Y-83338909D02*
X164715000Y-83318909D01*
X164045000Y-86193909D02*
X164462000Y-86193909D01*
D37*
X160010000Y-96753909D02*
X160015000Y-96748909D01*
D36*
X164045000Y-84993909D02*
X164462000Y-84993909D01*
%TO.N,Net-(D1-A)*%
X142155000Y-102751409D02*
X144470000Y-102751409D01*
X144470000Y-102751409D02*
X144515000Y-102796409D01*
%TO.N,Net-(U1-USBDP)*%
X136567500Y-92661409D02*
X136567500Y-92338909D01*
X136567500Y-92201409D02*
X136630000Y-92138909D01*
X136567500Y-92338909D02*
X136567500Y-92201409D01*
X138555000Y-93063909D02*
X138430000Y-93188909D01*
X138430000Y-93188909D02*
X137095000Y-93188909D01*
X136595000Y-92311409D02*
X136567500Y-92338909D01*
X136595000Y-90108909D02*
X136595000Y-92311409D01*
X137095000Y-93188909D02*
X136567500Y-92661409D01*
%TO.N,Net-(D4-A)*%
X165885000Y-99366409D02*
X163655000Y-97136409D01*
X165885000Y-101091409D02*
X165885000Y-99366409D01*
%TO.N,Net-(U1-USBDM)*%
X136615000Y-96748909D02*
X136615000Y-94511409D01*
X138420000Y-93578909D02*
X137115000Y-93578909D01*
X138555000Y-93713909D02*
X138420000Y-93578909D01*
X137115000Y-93578909D02*
X136567500Y-94126409D01*
X136567500Y-94126409D02*
X136567500Y-94463909D01*
X136615000Y-94511409D02*
X136567500Y-94463909D01*
D37*
%TO.N,VCCIO*%
X151825000Y-89208909D02*
X151855000Y-89178909D01*
X152955000Y-93353910D02*
X152544999Y-92943909D01*
X152155000Y-98018909D02*
X152955000Y-97218909D01*
X151855000Y-89178909D02*
X151855000Y-92658909D01*
X137855159Y-94358909D02*
X138550000Y-94358909D01*
X139530000Y-95338909D02*
X138555000Y-94363909D01*
X137625159Y-92638909D02*
X137625159Y-90418750D01*
X150205000Y-97518909D02*
X150705000Y-98018909D01*
X151855000Y-87928909D02*
X151855000Y-89178909D01*
X150705000Y-98018909D02*
X152155000Y-98018909D01*
D36*
X141263160Y-88562909D02*
X139481000Y-88562909D01*
X141665000Y-89138909D02*
X141665000Y-88964749D01*
D37*
X152955000Y-97218909D02*
X152955000Y-93353910D01*
D36*
X141480000Y-91438909D02*
X141480000Y-89323909D01*
D37*
X138550000Y-94358909D02*
X138555000Y-94363909D01*
X137625159Y-94128909D02*
X137855159Y-94358909D01*
X141252500Y-101828909D02*
X136617500Y-101828909D01*
X136617500Y-101828909D02*
X135755000Y-100966409D01*
X146465000Y-97518909D02*
X146935000Y-97518909D01*
X151855000Y-92658909D02*
X151570000Y-92943909D01*
X152544999Y-92943909D02*
X151570000Y-92943909D01*
X146935000Y-97518909D02*
X150205000Y-97518909D01*
X144725000Y-92038909D02*
X144895000Y-92038909D01*
X139530000Y-95338909D02*
X139530000Y-97891409D01*
X145895000Y-101548909D02*
X145895000Y-98088909D01*
D36*
X139481000Y-88562909D02*
X138885000Y-89158909D01*
D37*
X146875000Y-96148909D02*
X146875000Y-97458909D01*
X145595000Y-101848909D02*
X145895000Y-101548909D01*
D36*
X146875000Y-97458909D02*
X146935000Y-97518909D01*
D37*
X145895000Y-98088909D02*
X146465000Y-97518909D01*
X142155000Y-100926409D02*
X141252500Y-101828909D01*
X146725000Y-89208909D02*
X151825000Y-89208909D01*
X137625159Y-90418750D02*
X138885000Y-89158909D01*
X139530000Y-97891409D02*
X136455000Y-100966409D01*
D36*
X141480000Y-89323909D02*
X141665000Y-89138909D01*
D37*
X144125000Y-91438909D02*
X144725000Y-92038909D01*
X142155000Y-100926409D02*
X143077500Y-101848909D01*
D36*
X144885000Y-91098909D02*
X144901091Y-91082818D01*
X141665000Y-88964749D02*
X141263160Y-88562909D01*
D37*
X141480000Y-91438909D02*
X144125000Y-91438909D01*
X136455000Y-100966409D02*
X135755000Y-100966409D01*
X143077500Y-101848909D02*
X145595000Y-101848909D01*
D36*
X144885000Y-92198909D02*
X144885000Y-91098909D01*
D38*
%TO.N,Net-(D1-K)*%
X141480000Y-97876409D02*
X144515000Y-100911409D01*
X141480000Y-95338909D02*
X141480000Y-97876409D01*
%TO.N,Net-(D2-K)*%
X140830000Y-98256409D02*
X138145000Y-100941409D01*
X140830000Y-95338909D02*
X140830000Y-98256409D01*
D36*
%TO.N,Net-(D2-A)*%
X135755000Y-102791409D02*
X138120000Y-102791409D01*
X138120000Y-102791409D02*
X138145000Y-102816409D01*
%TO.N,/RS485_P*%
X164683499Y-93037909D02*
X165044999Y-92676409D01*
X171660001Y-89570908D02*
X172705000Y-88525909D01*
X162085000Y-92638909D02*
X163191251Y-92638909D01*
X163191251Y-92638909D02*
X163590251Y-93037909D01*
X167810000Y-92150012D02*
X167810000Y-90905711D01*
X161147168Y-93363908D02*
X160947169Y-93163909D01*
X170784375Y-89570908D02*
X171660001Y-89570908D01*
X170313957Y-89570908D02*
X170415957Y-89570908D01*
X163590251Y-93037909D02*
X164683499Y-93037909D01*
X167283603Y-92676409D02*
X167810000Y-92150012D01*
X162085000Y-92638909D02*
X161360001Y-93363908D01*
X166095000Y-92676409D02*
X167283603Y-92676409D01*
X170415957Y-89570908D02*
X170784375Y-89570908D01*
X169803957Y-89110908D02*
X169905957Y-89110908D01*
X170109957Y-89314908D02*
X170109957Y-89366908D01*
X169599957Y-89366908D02*
X169599957Y-89314908D01*
X169144803Y-89570908D02*
X169395957Y-89570908D01*
X161360001Y-93363908D02*
X161147168Y-93363908D01*
X165044999Y-92676409D02*
X166095000Y-92676409D01*
X167810000Y-90905711D02*
X169144803Y-89570908D01*
X169395957Y-89570908D02*
G75*
G03*
X169600008Y-89366908I43J204008D01*
G01*
X169599957Y-89314908D02*
G75*
G02*
X169803957Y-89110857I204043J8D01*
G01*
X169905957Y-89110908D02*
G75*
G02*
X170109992Y-89314908I43J-203992D01*
G01*
X170109957Y-89366908D02*
G75*
G03*
X170313957Y-89570943I204043J8D01*
G01*
%TO.N,/RS485_N*%
X165044999Y-94501409D02*
X166095000Y-94501409D01*
X171660001Y-90020910D02*
X172705000Y-91065909D01*
X168260000Y-91092107D02*
X169331197Y-90020910D01*
X164683499Y-94139909D02*
X165044999Y-94501409D01*
X162085000Y-94538909D02*
X163191251Y-94538909D01*
X166095000Y-94501409D02*
X168260000Y-92336409D01*
X162085000Y-94538909D02*
X161360001Y-93813910D01*
X169331197Y-90020910D02*
X171660001Y-90020910D01*
X168260000Y-92336409D02*
X168260000Y-91092107D01*
X161147168Y-93813910D02*
X160947169Y-94013909D01*
X163590251Y-94139909D02*
X164683499Y-94139909D01*
X161360001Y-93813910D02*
X161147168Y-93813910D01*
X163191251Y-94538909D02*
X163590251Y-94139909D01*
D37*
%TO.N,+V_OUT*%
X164570000Y-89740000D02*
X165080000Y-89230000D01*
X162430000Y-88433909D02*
X160665000Y-86668909D01*
X162455000Y-88433909D02*
X162430000Y-88433909D01*
X157985000Y-91478909D02*
X161391091Y-91478909D01*
X174079000Y-87782909D02*
X174079000Y-97311909D01*
X174079000Y-97311909D02*
X172705000Y-98685909D01*
X162475000Y-89710000D02*
X162475000Y-90368909D01*
X160665000Y-86668909D02*
X160605000Y-86668909D01*
X168163909Y-89230000D02*
X170085000Y-87308909D01*
X173605000Y-87308909D02*
X174079000Y-87782909D01*
X163580000Y-89740000D02*
X164570000Y-89740000D01*
X162481091Y-89740000D02*
X163580000Y-89740000D01*
X170085000Y-87308909D02*
X173605000Y-87308909D01*
X163580000Y-89740000D02*
X163610000Y-89770000D01*
X162481091Y-90388909D02*
X162481091Y-89740000D01*
X161391091Y-91478909D02*
X162481091Y-90388909D01*
X163610000Y-89770000D02*
X163610000Y-90512095D01*
X165080000Y-89230000D02*
X168163909Y-89230000D01*
X156520000Y-92943909D02*
X157985000Y-91478909D01*
D40*
%TO.N,+5V_ISO*%
X158065000Y-101158909D02*
X158115000Y-101108909D01*
X156580000Y-98803909D02*
X155085000Y-97308909D01*
X156795000Y-90558909D02*
X156795000Y-87788909D01*
X158065000Y-100288909D02*
X156580000Y-98803909D01*
X163675000Y-101108909D02*
X163685000Y-101098909D01*
D37*
X157335000Y-98048909D02*
X156580000Y-98803909D01*
X165045000Y-85393909D02*
X165045000Y-85793909D01*
X165045000Y-85793909D02*
X165045000Y-86193909D01*
X161535000Y-99018909D02*
X161535000Y-101078909D01*
X164065000Y-89058909D02*
X164525000Y-88598909D01*
D40*
X156795000Y-85398909D02*
X155525000Y-84128909D01*
D37*
X165045000Y-86358909D02*
X165045000Y-86193909D01*
X157375000Y-98048909D02*
X157335000Y-98048909D01*
D40*
X158065000Y-103008909D02*
X158065000Y-100908909D01*
D37*
X165045000Y-84993909D02*
X165045000Y-85393909D01*
D40*
X163685000Y-98991409D02*
X163655000Y-98961409D01*
X156795000Y-87788909D02*
X156795000Y-85398909D01*
D37*
X164525000Y-86878909D02*
X165045000Y-86358909D01*
D40*
X163685000Y-101098909D02*
X163685000Y-98991409D01*
D37*
X156945000Y-89058909D02*
X164065000Y-89058909D01*
D40*
X155085000Y-97308909D02*
X155085000Y-92268909D01*
X161505000Y-101108909D02*
X163675000Y-101108909D01*
D36*
X161535000Y-101078909D02*
X161505000Y-101108909D01*
D40*
X158115000Y-101108909D02*
X161505000Y-101108909D01*
D37*
X164525000Y-88598909D02*
X164525000Y-86878909D01*
D40*
X158065000Y-100908909D02*
X158065000Y-100288909D01*
X155085000Y-92268909D02*
X156795000Y-90558909D01*
X158065000Y-100908909D02*
X158065000Y-101158909D01*
D37*
X156795000Y-88908909D02*
X156945000Y-89058909D01*
D36*
%TO.N,Net-(J1-D+-PadA6)*%
X131502590Y-94138909D02*
X131235000Y-93871319D01*
X131480000Y-93138909D02*
X132110000Y-93138909D01*
X132110000Y-93138909D02*
X133942500Y-93138909D01*
X131235000Y-93871319D02*
X131235000Y-93383909D01*
X131235000Y-93383909D02*
X131480000Y-93138909D01*
X133942500Y-93138909D02*
X134742500Y-92338909D01*
X132110000Y-94138909D02*
X131502590Y-94138909D01*
%TO.N,Net-(J1-CC1)*%
X131395000Y-92138909D02*
X132110000Y-92138909D01*
X129645000Y-88288141D02*
X129645000Y-90388909D01*
X128567500Y-85198909D02*
X129645000Y-86276409D01*
X129645000Y-90388909D02*
X131395000Y-92138909D01*
X129656000Y-87820677D02*
X129656000Y-88277141D01*
X129645000Y-86276409D02*
X129645000Y-87809677D01*
X129656000Y-88277141D02*
X129645000Y-88288141D01*
X129645000Y-87809677D02*
X129656000Y-87820677D01*
%TO.N,Net-(J1-D--PadA7)*%
X134742500Y-94463909D02*
X133917500Y-93638909D01*
X133917500Y-93638909D02*
X132110000Y-93638909D01*
X132110000Y-92638909D02*
X132984388Y-92638909D01*
X132984390Y-93638909D02*
X133084389Y-93738908D01*
X132984388Y-92638909D02*
X133084388Y-92538909D01*
X132110000Y-93638909D02*
X132984390Y-93638909D01*
%TO.N,Net-(J1-CC2)*%
X130055000Y-99898909D02*
X130055000Y-95848909D01*
X130055000Y-95848909D02*
X130765000Y-95138909D01*
X130765000Y-95138909D02*
X132110000Y-95138909D01*
X130642500Y-101198909D02*
X130642500Y-100486409D01*
X130642500Y-100486409D02*
X130055000Y-99898909D01*
D41*
%TO.N,+1.8V_ISO*%
X160975000Y-83758909D02*
X163185000Y-83758909D01*
X160605000Y-84128909D02*
X160975000Y-83758909D01*
X163605000Y-83338909D02*
X163605000Y-83798909D01*
D36*
X164045000Y-85393909D02*
X163628000Y-85393909D01*
X163365000Y-85130909D02*
X163365000Y-83578909D01*
X163365000Y-83578909D02*
X163605000Y-83338909D01*
X163628000Y-85393909D02*
X163365000Y-85130909D01*
D41*
X163185000Y-83758909D02*
X163605000Y-83338909D01*
D36*
%TO.N,+3.3V_ISO*%
X163595000Y-85823909D02*
X163625000Y-85793909D01*
D41*
X162785000Y-85428909D02*
X159365000Y-85428909D01*
X163150000Y-85793909D02*
X162785000Y-85428909D01*
X164045000Y-85793909D02*
X163625000Y-85793909D01*
X163625000Y-85793909D02*
X163150000Y-85793909D01*
X159365000Y-85428909D02*
X158065000Y-84128909D01*
D36*
X163595000Y-87868909D02*
X163595000Y-85823909D01*
%TO.N,Net-(U1-RXD)*%
X140825000Y-91433909D02*
X140825000Y-90908909D01*
X140830000Y-91438909D02*
X140825000Y-91433909D01*
X141005000Y-89148909D02*
X141015000Y-89138909D01*
X141005000Y-90728909D02*
X141005000Y-89148909D01*
X140825000Y-90908909D02*
X141005000Y-90728909D01*
%TO.N,Net-(U1-TXD)*%
X150050000Y-95483909D02*
X147505000Y-92938909D01*
X145574448Y-92949909D02*
X144195552Y-92949909D01*
X145585448Y-92938909D02*
X145574448Y-92949909D01*
X146955000Y-92408909D02*
X146945000Y-92398909D01*
X144195552Y-92949909D02*
X144184552Y-92938909D01*
X144184552Y-92938909D02*
X143115000Y-92938909D01*
X142990000Y-93063909D02*
X142455000Y-93063909D01*
X147505000Y-92938909D02*
X146955000Y-92938909D01*
X146955000Y-92938909D02*
X146955000Y-92408909D01*
X143115000Y-92938909D02*
X142990000Y-93063909D01*
X146955000Y-92938909D02*
X145585448Y-92938909D01*
X151570000Y-95483909D02*
X150050000Y-95483909D01*
%TO.N,Net-(U1-CBUS2)*%
X146155000Y-91558909D02*
X146155000Y-92388909D01*
X139893410Y-90020499D02*
X138555000Y-91358909D01*
X138555000Y-91358909D02*
X138555000Y-92413909D01*
X142032500Y-90028909D02*
X144625000Y-90028909D01*
X140455000Y-90020499D02*
X139893410Y-90020499D01*
X144625000Y-90028909D02*
X146155000Y-91558909D01*
X142030000Y-90031409D02*
X142032500Y-90028909D01*
%TO.N,Net-(U1-CBUS3)*%
X143806000Y-93347909D02*
X143440000Y-93713909D01*
X147064000Y-93347909D02*
X143806000Y-93347909D01*
X143440000Y-93713909D02*
X142455000Y-93713909D01*
X148051091Y-94262818D02*
X147978909Y-94262818D01*
X147978909Y-94262818D02*
X147064000Y-93347909D01*
%TO.N,RS_ACT*%
X138124776Y-86578685D02*
X137215000Y-85668909D01*
X142315000Y-89138909D02*
X142315000Y-88813910D01*
X138391552Y-86311909D02*
X152628000Y-86311909D01*
X137909000Y-86794461D02*
X138124776Y-86578685D01*
X152628000Y-86311909D02*
X152985000Y-86668909D01*
X142315000Y-88813910D02*
X141666999Y-88165909D01*
X141666999Y-88165909D02*
X138351552Y-88165909D01*
X137909000Y-87723357D02*
X137909000Y-86794461D01*
X138124776Y-86578685D02*
X138391552Y-86311909D01*
X138351552Y-88165909D02*
X137909000Y-87723357D01*
X137215000Y-85668909D02*
X136567500Y-85668909D01*
D37*
%TO.N,Net-(J3-Pin_4)*%
X170822000Y-95488909D02*
X172705000Y-93605909D01*
X159940000Y-94213909D02*
X161215000Y-95488909D01*
X161215000Y-95488909D02*
X170822000Y-95488909D01*
X156520000Y-94213909D02*
X159940000Y-94213909D01*
D36*
%TO.N,Net-(U3-VOA)*%
X141015000Y-86913910D02*
X141015000Y-87238909D01*
X148276000Y-92169909D02*
X148276000Y-92160677D01*
X148276000Y-92160677D02*
X147953232Y-91837909D01*
X147953232Y-91837909D02*
X147944000Y-91837909D01*
X150320000Y-94213909D02*
X148276000Y-92169909D01*
X141266001Y-86662909D02*
X141015000Y-86913910D01*
X151570000Y-94213909D02*
X150320000Y-94213909D01*
X142769000Y-86662909D02*
X141266001Y-86662909D01*
X147944000Y-91837909D02*
X142769000Y-86662909D01*
%TO.N,Net-(U5-R)*%
X142635000Y-87238909D02*
X142315000Y-87238909D01*
X147725000Y-92388909D02*
X147725000Y-92328909D01*
X147725000Y-92328909D02*
X142635000Y-87238909D01*
D37*
%TO.N,Net-(J3-Pin_5)*%
X160150000Y-95483909D02*
X160812000Y-96145909D01*
X160812000Y-96145909D02*
X172705000Y-96145909D01*
X156520000Y-95483909D02*
X160150000Y-95483909D01*
%TD*%
%TA.AperFunction,Conductor*%
%TO.N,GND1*%
G36*
X153794795Y-82659094D02*
G01*
X153840550Y-82711898D01*
X153851754Y-82764063D01*
X153851179Y-82873190D01*
X153849785Y-83137505D01*
X153849745Y-83145023D01*
X153849745Y-83145035D01*
X153849696Y-83154159D01*
X153829652Y-83221092D01*
X153776603Y-83266562D01*
X153707392Y-83276134D01*
X153652815Y-83253812D01*
X153561788Y-83187677D01*
X153407445Y-83109036D01*
X153242701Y-83055507D01*
X153242699Y-83055506D01*
X153242698Y-83055506D01*
X153111271Y-83034690D01*
X153071611Y-83028409D01*
X152898389Y-83028409D01*
X152858728Y-83034690D01*
X152727302Y-83055506D01*
X152562552Y-83109037D01*
X152408211Y-83187677D01*
X152362220Y-83221092D01*
X152268072Y-83289495D01*
X152268070Y-83289497D01*
X152268069Y-83289497D01*
X152145588Y-83411978D01*
X152145588Y-83411979D01*
X152145586Y-83411981D01*
X152101859Y-83472165D01*
X152043768Y-83552120D01*
X151965128Y-83706461D01*
X151911597Y-83871211D01*
X151904371Y-83916837D01*
X151884500Y-84042298D01*
X151884500Y-84215520D01*
X151911598Y-84386610D01*
X151965127Y-84551354D01*
X152043768Y-84705697D01*
X152145586Y-84845837D01*
X152268072Y-84968323D01*
X152408212Y-85070141D01*
X152562555Y-85148782D01*
X152727299Y-85202311D01*
X152898389Y-85229409D01*
X152898390Y-85229409D01*
X153071610Y-85229409D01*
X153071611Y-85229409D01*
X153242701Y-85202311D01*
X153407445Y-85148782D01*
X153561788Y-85070141D01*
X153642482Y-85011512D01*
X153708285Y-84988033D01*
X153776339Y-85003858D01*
X153825035Y-85053963D01*
X153839364Y-85112485D01*
X153836347Y-85684447D01*
X153816309Y-85751382D01*
X153763265Y-85796858D01*
X153694055Y-85806436D01*
X153639464Y-85784111D01*
X153561791Y-85727679D01*
X153561790Y-85727678D01*
X153561788Y-85727677D01*
X153407445Y-85649036D01*
X153242701Y-85595507D01*
X153242699Y-85595506D01*
X153242698Y-85595506D01*
X153111271Y-85574690D01*
X153071611Y-85568409D01*
X152898389Y-85568409D01*
X152858728Y-85574690D01*
X152727302Y-85595506D01*
X152562552Y-85649037D01*
X152408211Y-85727677D01*
X152328256Y-85785768D01*
X152268072Y-85829495D01*
X152268070Y-85829497D01*
X152268069Y-85829497D01*
X152172477Y-85925090D01*
X152111154Y-85958575D01*
X152084796Y-85961409D01*
X138345408Y-85961409D01*
X138256264Y-85985295D01*
X138256263Y-85985295D01*
X138256261Y-85985296D01*
X138256260Y-85985296D01*
X138193360Y-86021612D01*
X138125460Y-86038085D01*
X138059433Y-86015232D01*
X138043679Y-86001906D01*
X137430213Y-85388440D01*
X137430208Y-85388436D01*
X137392499Y-85366665D01*
X137344283Y-85316098D01*
X137330499Y-85259278D01*
X137330499Y-85171038D01*
X137330498Y-85171032D01*
X137330271Y-85168922D01*
X137324091Y-85111426D01*
X137308692Y-85070140D01*
X137273797Y-84976580D01*
X137273793Y-84976573D01*
X137187547Y-84861364D01*
X137187544Y-84861361D01*
X137072335Y-84775115D01*
X137072328Y-84775111D01*
X136937486Y-84724819D01*
X136937485Y-84724818D01*
X136937483Y-84724818D01*
X136877873Y-84718409D01*
X136877863Y-84718409D01*
X136257129Y-84718409D01*
X136257123Y-84718410D01*
X136197516Y-84724817D01*
X136062671Y-84775111D01*
X136062664Y-84775115D01*
X135947455Y-84861361D01*
X135901498Y-84922751D01*
X135845563Y-84964622D01*
X135775872Y-84969605D01*
X135714549Y-84936119D01*
X135693335Y-84905818D01*
X135693149Y-84905934D01*
X135691170Y-84902725D01*
X135689845Y-84900833D01*
X135689356Y-84899786D01*
X135597315Y-84750563D01*
X135473345Y-84626593D01*
X135324124Y-84534552D01*
X135324119Y-84534550D01*
X135157697Y-84479403D01*
X135157690Y-84479402D01*
X135054986Y-84468909D01*
X134992500Y-84468909D01*
X134992500Y-86900047D01*
X134972815Y-86967086D01*
X134956181Y-86987728D01*
X134945000Y-86998909D01*
X134945000Y-89984909D01*
X134925315Y-90051948D01*
X134872511Y-90097703D01*
X134821000Y-90108909D01*
X134695000Y-90108909D01*
X134695000Y-90234909D01*
X134675315Y-90301948D01*
X134622511Y-90347703D01*
X134571000Y-90358909D01*
X133695001Y-90358909D01*
X133695001Y-90469863D01*
X133675316Y-90536902D01*
X133622512Y-90582657D01*
X133553354Y-90592601D01*
X133538908Y-90589638D01*
X133469344Y-90570999D01*
X133441018Y-90563409D01*
X133441017Y-90563409D01*
X133306640Y-90563409D01*
X133239601Y-90543724D01*
X133193846Y-90490920D01*
X133183022Y-90429679D01*
X133184999Y-90404553D01*
X133185000Y-90404543D01*
X133185000Y-89973274D01*
X133184999Y-89973259D01*
X133182100Y-89936419D01*
X133182099Y-89936413D01*
X133136283Y-89778715D01*
X133136282Y-89778712D01*
X133056555Y-89643899D01*
X133056553Y-89643897D01*
X133052682Y-89637353D01*
X133052681Y-89637351D01*
X133033895Y-89618565D01*
X133033894Y-89618565D01*
X132286776Y-90365684D01*
X132286775Y-90365685D01*
X132250368Y-90402091D01*
X132189044Y-90435576D01*
X132162688Y-90438409D01*
X131806309Y-90438409D01*
X131739270Y-90418724D01*
X131693515Y-90365920D01*
X131683571Y-90296762D01*
X131712596Y-90233206D01*
X131718629Y-90226727D01*
X131756448Y-90188909D01*
X131090905Y-89523366D01*
X131057420Y-89462043D01*
X131062404Y-89392351D01*
X131090905Y-89348004D01*
X131269095Y-89169814D01*
X131330418Y-89136329D01*
X131400110Y-89141313D01*
X131444457Y-89169814D01*
X132110000Y-89835357D01*
X132361435Y-89583922D01*
X133695000Y-89583922D01*
X133695000Y-89858909D01*
X134445000Y-89858909D01*
X134445000Y-88138909D01*
X133695001Y-88138909D01*
X133695001Y-88413895D01*
X133705494Y-88516606D01*
X133760641Y-88683028D01*
X133760643Y-88683033D01*
X133852684Y-88832254D01*
X133931658Y-88911228D01*
X133965143Y-88972551D01*
X133960159Y-89042243D01*
X133931658Y-89086590D01*
X133852684Y-89165563D01*
X133760643Y-89314784D01*
X133760641Y-89314789D01*
X133705494Y-89481211D01*
X133705493Y-89481218D01*
X133695000Y-89583922D01*
X132361435Y-89583922D01*
X132775543Y-89169814D01*
X132836866Y-89136329D01*
X132906558Y-89141313D01*
X132950905Y-89169814D01*
X133027118Y-89246027D01*
X133034999Y-89168895D01*
X133034999Y-87388937D01*
X133034998Y-87388921D01*
X133033410Y-87373375D01*
X133032444Y-87363922D01*
X133695000Y-87363922D01*
X133695000Y-87638909D01*
X134445000Y-87638909D01*
X134445000Y-86632771D01*
X134464685Y-86565732D01*
X134481319Y-86545090D01*
X134492500Y-86533909D01*
X134492500Y-85918909D01*
X133730001Y-85918909D01*
X133730001Y-86168895D01*
X133740494Y-86271606D01*
X133795641Y-86438028D01*
X133795643Y-86438033D01*
X133887684Y-86587254D01*
X133961657Y-86661227D01*
X133995142Y-86722550D01*
X133990158Y-86792242D01*
X133961658Y-86836588D01*
X133852684Y-86945563D01*
X133760643Y-87094784D01*
X133760641Y-87094789D01*
X133705494Y-87261211D01*
X133705493Y-87261218D01*
X133695000Y-87363922D01*
X133032444Y-87363922D01*
X133024505Y-87286211D01*
X132988849Y-87178609D01*
X131799456Y-88368003D01*
X131738133Y-88401488D01*
X131668441Y-88396504D01*
X131624094Y-88368003D01*
X131445905Y-88189814D01*
X131412420Y-88128491D01*
X131417404Y-88058799D01*
X131445905Y-88014452D01*
X132667012Y-86793344D01*
X132667012Y-86793343D01*
X132604126Y-86754553D01*
X132604119Y-86754550D01*
X132437697Y-86699403D01*
X132437690Y-86699402D01*
X132334980Y-86688909D01*
X130735028Y-86688909D01*
X130735012Y-86688910D01*
X130632302Y-86699403D01*
X130465880Y-86754550D01*
X130465875Y-86754552D01*
X130316654Y-86846593D01*
X130207181Y-86956067D01*
X130145858Y-86989552D01*
X130076166Y-86984568D01*
X130020233Y-86942696D01*
X129995816Y-86877232D01*
X129995500Y-86868386D01*
X129995500Y-86230267D01*
X129995500Y-86230265D01*
X129971614Y-86141121D01*
X129925470Y-86061197D01*
X129366818Y-85502545D01*
X129352114Y-85475617D01*
X129335522Y-85449799D01*
X129334630Y-85443598D01*
X129333333Y-85441222D01*
X129330499Y-85414864D01*
X129330499Y-85168922D01*
X133730000Y-85168922D01*
X133730000Y-85418909D01*
X134492500Y-85418909D01*
X134492500Y-84468909D01*
X134492499Y-84468908D01*
X134430028Y-84468909D01*
X134430011Y-84468910D01*
X134327302Y-84479403D01*
X134160880Y-84534550D01*
X134160875Y-84534552D01*
X134011654Y-84626593D01*
X133887684Y-84750563D01*
X133795643Y-84899784D01*
X133795641Y-84899789D01*
X133740494Y-85066211D01*
X133740493Y-85066218D01*
X133730000Y-85168922D01*
X129330499Y-85168922D01*
X129330499Y-84701038D01*
X129330498Y-84701032D01*
X129330271Y-84698922D01*
X129324091Y-84641426D01*
X129290496Y-84551354D01*
X129273797Y-84506580D01*
X129273793Y-84506573D01*
X129187547Y-84391364D01*
X129187544Y-84391361D01*
X129072335Y-84305115D01*
X129072328Y-84305111D01*
X128937486Y-84254819D01*
X128937485Y-84254818D01*
X128937483Y-84254818D01*
X128877873Y-84248409D01*
X128877863Y-84248409D01*
X128257129Y-84248409D01*
X128257123Y-84248410D01*
X128197516Y-84254817D01*
X128062671Y-84305111D01*
X128062664Y-84305115D01*
X127947455Y-84391361D01*
X127901498Y-84452751D01*
X127845563Y-84494622D01*
X127775872Y-84499605D01*
X127714549Y-84466119D01*
X127693335Y-84435818D01*
X127693149Y-84435934D01*
X127691170Y-84432725D01*
X127689845Y-84430833D01*
X127689356Y-84429786D01*
X127597315Y-84280563D01*
X127473345Y-84156593D01*
X127324124Y-84064552D01*
X127324119Y-84064550D01*
X127157697Y-84009403D01*
X127157690Y-84009402D01*
X127054986Y-83998909D01*
X126992500Y-83998909D01*
X126992500Y-86398908D01*
X127054972Y-86398908D01*
X127054986Y-86398907D01*
X127157697Y-86388414D01*
X127324119Y-86333267D01*
X127324124Y-86333265D01*
X127473345Y-86241224D01*
X127597315Y-86117254D01*
X127689354Y-85968035D01*
X127689842Y-85966990D01*
X127690368Y-85966391D01*
X127693149Y-85961884D01*
X127693918Y-85962358D01*
X127736007Y-85914544D01*
X127803198Y-85895382D01*
X127870082Y-85915588D01*
X127901498Y-85945066D01*
X127947455Y-86006456D01*
X128062664Y-86092702D01*
X128062671Y-86092706D01*
X128107618Y-86109470D01*
X128197517Y-86143000D01*
X128257127Y-86149409D01*
X128877872Y-86149408D01*
X128937483Y-86143000D01*
X128937482Y-86143000D01*
X128945196Y-86142171D01*
X128945451Y-86144551D01*
X129003367Y-86147644D01*
X129049817Y-86176908D01*
X129258181Y-86385272D01*
X129291666Y-86446595D01*
X129294500Y-86472953D01*
X129294500Y-87121330D01*
X129274815Y-87188369D01*
X129222011Y-87234124D01*
X129152853Y-87244068D01*
X129089297Y-87215043D01*
X129066141Y-87180338D01*
X129058849Y-87178609D01*
X127958552Y-88278908D01*
X127958552Y-88278909D01*
X129058849Y-89379207D01*
X129066741Y-89377336D01*
X129092566Y-89340037D01*
X129157082Y-89313214D01*
X129225858Y-89325529D01*
X129277058Y-89373072D01*
X129294500Y-89436486D01*
X129294500Y-90435053D01*
X129305142Y-90474770D01*
X129318384Y-90524194D01*
X129318385Y-90524195D01*
X129364527Y-90604117D01*
X129364529Y-90604120D01*
X129364530Y-90604121D01*
X131179788Y-92419379D01*
X131222499Y-92444038D01*
X131230202Y-92452116D01*
X131240422Y-92456617D01*
X131253885Y-92476953D01*
X131270715Y-92494603D01*
X131273833Y-92507085D01*
X131278991Y-92514876D01*
X131283876Y-92547289D01*
X131284489Y-92549740D01*
X131284500Y-92550557D01*
X131284501Y-92752047D01*
X131287554Y-92775242D01*
X131287653Y-92782516D01*
X131280143Y-92809439D01*
X131275836Y-92837054D01*
X131270208Y-92845056D01*
X131268881Y-92849816D01*
X131263478Y-92854627D01*
X131251345Y-92871882D01*
X130954531Y-93168695D01*
X130954527Y-93168700D01*
X130914282Y-93238408D01*
X130914282Y-93238409D01*
X130908386Y-93248619D01*
X130899174Y-93283000D01*
X130884500Y-93337765D01*
X130884500Y-93917463D01*
X130903778Y-93989409D01*
X130908386Y-94006607D01*
X130948983Y-94076924D01*
X130954531Y-94086532D01*
X131222121Y-94354121D01*
X131253972Y-94385972D01*
X131287457Y-94447295D01*
X131289230Y-94489837D01*
X131284835Y-94523223D01*
X131284500Y-94525770D01*
X131284500Y-94627090D01*
X131284501Y-94664408D01*
X131264817Y-94731448D01*
X131212013Y-94777203D01*
X131160501Y-94788409D01*
X130718856Y-94788409D01*
X130629712Y-94812295D01*
X130629709Y-94812296D01*
X130549791Y-94858436D01*
X130549786Y-94858440D01*
X129774531Y-95633695D01*
X129774530Y-95633697D01*
X129736758Y-95699121D01*
X129728386Y-95713621D01*
X129704500Y-95802765D01*
X129704500Y-99945053D01*
X129728255Y-100033706D01*
X129728386Y-100034196D01*
X129728387Y-100034199D01*
X129774527Y-100114117D01*
X129774531Y-100114122D01*
X130075284Y-100414875D01*
X130108769Y-100476198D01*
X130103785Y-100545890D01*
X130061915Y-100601822D01*
X130022452Y-100631364D01*
X129936206Y-100746573D01*
X129936202Y-100746580D01*
X129885908Y-100881426D01*
X129879501Y-100941025D01*
X129879500Y-100941044D01*
X129879500Y-101936779D01*
X129879501Y-101936785D01*
X129885908Y-101996392D01*
X129936202Y-102131237D01*
X129936206Y-102131244D01*
X130022452Y-102246453D01*
X130022455Y-102246456D01*
X130137664Y-102332702D01*
X130137671Y-102332706D01*
X130162826Y-102342088D01*
X130272517Y-102383000D01*
X130332127Y-102389409D01*
X130952872Y-102389408D01*
X131012483Y-102383000D01*
X131147331Y-102332705D01*
X131262546Y-102246455D01*
X131308502Y-102185065D01*
X131364434Y-102143196D01*
X131434125Y-102138212D01*
X131495448Y-102171697D01*
X131516665Y-102201998D01*
X131516851Y-102201884D01*
X131518819Y-102205075D01*
X131520151Y-102206977D01*
X131520642Y-102208030D01*
X131612684Y-102357254D01*
X131736654Y-102481224D01*
X131885875Y-102573265D01*
X131885880Y-102573267D01*
X132052302Y-102628414D01*
X132052309Y-102628415D01*
X132155019Y-102638908D01*
X132717500Y-102638908D01*
X132779972Y-102638908D01*
X132779986Y-102638907D01*
X132882697Y-102628414D01*
X133049119Y-102573267D01*
X133049124Y-102573265D01*
X133198345Y-102481224D01*
X133322315Y-102357254D01*
X133414356Y-102208033D01*
X133414358Y-102208028D01*
X133469505Y-102041606D01*
X133469506Y-102041599D01*
X133479999Y-101938895D01*
X133480000Y-101938882D01*
X133480000Y-101688909D01*
X132717500Y-101688909D01*
X132717500Y-102638908D01*
X132155019Y-102638908D01*
X132217499Y-102638907D01*
X132217500Y-102638907D01*
X132217500Y-101562909D01*
X132237185Y-101495870D01*
X132289989Y-101450115D01*
X132341500Y-101438909D01*
X132467500Y-101438909D01*
X132467500Y-101312909D01*
X132487185Y-101245870D01*
X132539989Y-101200115D01*
X132591500Y-101188909D01*
X133479999Y-101188909D01*
X133479999Y-100938937D01*
X133479998Y-100938922D01*
X133469505Y-100836211D01*
X133414358Y-100669789D01*
X133414356Y-100669784D01*
X133322315Y-100520563D01*
X133198345Y-100396593D01*
X133049124Y-100304552D01*
X133049119Y-100304550D01*
X132970849Y-100278614D01*
X132971070Y-100277945D01*
X132970258Y-100277899D01*
X132970104Y-100278367D01*
X132968369Y-100277792D01*
X132967977Y-100277770D01*
X132967247Y-100277420D01*
X132882697Y-100249403D01*
X132779986Y-100238909D01*
X132691747Y-100238909D01*
X132624708Y-100219224D01*
X132578953Y-100166420D01*
X132569009Y-100097262D01*
X132598034Y-100033706D01*
X132626649Y-100009371D01*
X132667012Y-99984473D01*
X132667013Y-99984473D01*
X131445905Y-98763365D01*
X131412420Y-98702042D01*
X131417404Y-98632350D01*
X131445905Y-98588003D01*
X131624094Y-98409814D01*
X131685417Y-98376329D01*
X131755109Y-98381313D01*
X131799456Y-98409814D01*
X132988849Y-99599207D01*
X133024505Y-99491606D01*
X133024506Y-99491599D01*
X133034999Y-99388895D01*
X133034999Y-97608936D01*
X133034998Y-97608923D01*
X133027117Y-97531790D01*
X133027117Y-97531789D01*
X132950904Y-97608003D01*
X132889581Y-97641488D01*
X132819889Y-97636504D01*
X132775542Y-97608003D01*
X132110000Y-96942461D01*
X131444457Y-97608004D01*
X131383134Y-97641489D01*
X131313442Y-97636505D01*
X131269095Y-97608004D01*
X131090905Y-97429814D01*
X131057420Y-97368491D01*
X131062404Y-97298799D01*
X131090905Y-97254452D01*
X131756448Y-96588909D01*
X131718628Y-96551089D01*
X131685143Y-96489766D01*
X131690127Y-96420074D01*
X131731999Y-96364141D01*
X131797463Y-96339724D01*
X131806285Y-96339408D01*
X132162690Y-96339408D01*
X132229728Y-96359093D01*
X132250370Y-96375727D01*
X133033895Y-97159252D01*
X133052678Y-97140470D01*
X133052683Y-97140463D01*
X133136282Y-96999105D01*
X133136283Y-96999102D01*
X133182099Y-96841404D01*
X133182100Y-96841398D01*
X133184999Y-96804558D01*
X133185000Y-96804543D01*
X133185000Y-96373274D01*
X133184999Y-96373264D01*
X133183022Y-96348139D01*
X133197386Y-96279762D01*
X133246437Y-96230004D01*
X133306640Y-96214409D01*
X133391016Y-96214409D01*
X133391018Y-96214409D01*
X133499237Y-96185412D01*
X133529001Y-96168227D01*
X133596899Y-96151755D01*
X133662926Y-96174607D01*
X133706117Y-96229528D01*
X133715000Y-96275615D01*
X133715000Y-96498909D01*
X134591000Y-96498909D01*
X134658039Y-96518594D01*
X134703794Y-96571398D01*
X134715000Y-96622909D01*
X134715000Y-96874909D01*
X134695315Y-96941948D01*
X134642511Y-96987703D01*
X134591000Y-96998909D01*
X133715001Y-96998909D01*
X133715001Y-97273895D01*
X133725494Y-97376606D01*
X133780641Y-97543028D01*
X133780643Y-97543033D01*
X133872684Y-97692254D01*
X133996654Y-97816224D01*
X134122170Y-97893643D01*
X134168894Y-97945591D01*
X134180117Y-98014554D01*
X134152273Y-98078636D01*
X134131385Y-98098448D01*
X134107452Y-98116364D01*
X134021206Y-98231573D01*
X134021202Y-98231580D01*
X133970908Y-98366426D01*
X133964501Y-98426025D01*
X133964500Y-98426044D01*
X133964500Y-99471779D01*
X133964501Y-99471785D01*
X133970908Y-99531392D01*
X134021202Y-99666237D01*
X134021206Y-99666244D01*
X134107452Y-99781453D01*
X134107455Y-99781456D01*
X134222664Y-99867702D01*
X134222671Y-99867706D01*
X134357513Y-99917999D01*
X134357514Y-99917999D01*
X134357517Y-99918000D01*
X134358641Y-99918120D01*
X134359456Y-99918458D01*
X134365062Y-99919783D01*
X134364847Y-99920691D01*
X134423191Y-99944856D01*
X134463041Y-100002247D01*
X134465537Y-100072072D01*
X134433069Y-100129091D01*
X134153737Y-100408424D01*
X134074517Y-100487643D01*
X134074513Y-100487649D01*
X134018498Y-100584669D01*
X134018497Y-100584672D01*
X133989500Y-100692891D01*
X133989500Y-103102891D01*
X133989500Y-103214927D01*
X134018497Y-103323146D01*
X134074515Y-103420172D01*
X134928513Y-104274169D01*
X134928515Y-104274172D01*
X135007737Y-104353394D01*
X135068385Y-104388409D01*
X135100624Y-104407022D01*
X135148839Y-104457590D01*
X135162061Y-104526197D01*
X135136093Y-104591062D01*
X135079178Y-104631589D01*
X135038623Y-104638409D01*
X126759428Y-104638409D01*
X126750582Y-104638093D01*
X126550442Y-104623778D01*
X126532931Y-104621260D01*
X126341211Y-104579555D01*
X126324238Y-104574572D01*
X126247105Y-104545803D01*
X126140385Y-104505998D01*
X126124299Y-104498652D01*
X125952085Y-104404616D01*
X125937210Y-104395057D01*
X125780132Y-104277469D01*
X125766762Y-104265884D01*
X125628019Y-104127142D01*
X125616433Y-104113770D01*
X125498848Y-103956695D01*
X125489283Y-103941812D01*
X125457812Y-103884177D01*
X125395247Y-103769600D01*
X125387906Y-103753526D01*
X125319328Y-103569665D01*
X125314348Y-103552701D01*
X125299145Y-103482816D01*
X125272639Y-103360969D01*
X125270122Y-103343463D01*
X125266744Y-103296240D01*
X125257789Y-103171035D01*
X125255816Y-103143448D01*
X125255500Y-103134602D01*
X125255500Y-99984472D01*
X126472986Y-99984472D01*
X126472986Y-99984474D01*
X126535873Y-100023264D01*
X126535879Y-100023267D01*
X126702302Y-100078414D01*
X126702309Y-100078415D01*
X126805019Y-100088908D01*
X128404971Y-100088908D01*
X128404987Y-100088907D01*
X128507697Y-100078414D01*
X128674120Y-100023267D01*
X128737012Y-99984473D01*
X128737013Y-99984473D01*
X127605000Y-98852461D01*
X126472986Y-99984472D01*
X125255500Y-99984472D01*
X125255500Y-97608922D01*
X126105000Y-97608922D01*
X126105000Y-99388880D01*
X126105001Y-99388896D01*
X126115494Y-99491605D01*
X126115495Y-99491611D01*
X126151148Y-99599207D01*
X126151149Y-99599207D01*
X127251448Y-98498909D01*
X127251448Y-98498908D01*
X127958552Y-98498908D01*
X127958552Y-98498909D01*
X129058849Y-99599207D01*
X129094505Y-99491606D01*
X129094506Y-99491599D01*
X129104999Y-99388895D01*
X129104999Y-97608937D01*
X129104998Y-97608921D01*
X129094505Y-97506211D01*
X129058849Y-97398609D01*
X127958552Y-98498908D01*
X127251448Y-98498908D01*
X126151149Y-97398609D01*
X126151148Y-97398609D01*
X126115494Y-97506209D01*
X126105000Y-97608922D01*
X125255500Y-97608922D01*
X125255500Y-97013343D01*
X126472986Y-97013343D01*
X127605000Y-98145357D01*
X127605001Y-98145357D01*
X128737012Y-97013344D01*
X128737012Y-97013343D01*
X128674126Y-96974553D01*
X128674119Y-96974550D01*
X128507697Y-96919403D01*
X128507690Y-96919402D01*
X128404980Y-96908909D01*
X126805028Y-96908909D01*
X126805012Y-96908910D01*
X126702302Y-96919403D01*
X126535880Y-96974550D01*
X126535875Y-96974552D01*
X126472986Y-97013343D01*
X125255500Y-97013343D01*
X125255500Y-89764472D01*
X126472986Y-89764472D01*
X126472986Y-89764474D01*
X126535873Y-89803264D01*
X126535879Y-89803267D01*
X126702302Y-89858414D01*
X126702309Y-89858415D01*
X126805019Y-89868908D01*
X128404971Y-89868908D01*
X128404987Y-89868907D01*
X128507697Y-89858414D01*
X128674120Y-89803267D01*
X128737012Y-89764473D01*
X128737013Y-89764473D01*
X127605000Y-88632461D01*
X126472986Y-89764472D01*
X125255500Y-89764472D01*
X125255500Y-87388922D01*
X126105000Y-87388922D01*
X126105000Y-89168880D01*
X126105001Y-89168896D01*
X126115494Y-89271605D01*
X126115495Y-89271611D01*
X126151148Y-89379207D01*
X126151149Y-89379207D01*
X127251448Y-88278909D01*
X127251448Y-88278908D01*
X126151149Y-87178609D01*
X126151148Y-87178609D01*
X126115494Y-87286209D01*
X126105000Y-87388922D01*
X125255500Y-87388922D01*
X125255500Y-86793343D01*
X126472986Y-86793343D01*
X127605000Y-87925357D01*
X127605001Y-87925357D01*
X128737012Y-86793344D01*
X128737012Y-86793343D01*
X128674126Y-86754553D01*
X128674119Y-86754550D01*
X128507697Y-86699403D01*
X128507690Y-86699402D01*
X128404980Y-86688909D01*
X126805028Y-86688909D01*
X126805012Y-86688910D01*
X126702302Y-86699403D01*
X126535880Y-86754550D01*
X126535875Y-86754552D01*
X126472986Y-86793343D01*
X125255500Y-86793343D01*
X125255500Y-85698895D01*
X125730001Y-85698895D01*
X125740494Y-85801606D01*
X125795641Y-85968028D01*
X125795643Y-85968033D01*
X125887684Y-86117254D01*
X126011654Y-86241224D01*
X126160875Y-86333265D01*
X126160880Y-86333267D01*
X126327302Y-86388414D01*
X126327309Y-86388415D01*
X126430019Y-86398908D01*
X126492499Y-86398907D01*
X126492500Y-86398907D01*
X126492500Y-85448909D01*
X125730001Y-85448909D01*
X125730001Y-85698895D01*
X125255500Y-85698895D01*
X125255500Y-84698922D01*
X125730000Y-84698922D01*
X125730000Y-84948909D01*
X126492500Y-84948909D01*
X126492500Y-83998909D01*
X126492499Y-83998908D01*
X126430028Y-83998909D01*
X126430011Y-83998910D01*
X126327302Y-84009403D01*
X126160880Y-84064550D01*
X126160875Y-84064552D01*
X126011654Y-84156593D01*
X125887684Y-84280563D01*
X125795643Y-84429784D01*
X125795641Y-84429789D01*
X125740494Y-84596211D01*
X125740493Y-84596218D01*
X125730000Y-84698922D01*
X125255500Y-84698922D01*
X125255500Y-84143334D01*
X125255816Y-84134489D01*
X125270129Y-83934350D01*
X125272645Y-83916844D01*
X125314355Y-83725105D01*
X125319334Y-83708147D01*
X125387909Y-83524289D01*
X125395248Y-83508219D01*
X125489299Y-83335976D01*
X125498843Y-83321125D01*
X125616441Y-83164031D01*
X125628015Y-83150674D01*
X125766767Y-83011922D01*
X125780131Y-83000343D01*
X125937210Y-82882755D01*
X125952087Y-82873193D01*
X126124308Y-82779153D01*
X126140377Y-82771814D01*
X126324247Y-82703234D01*
X126341198Y-82698257D01*
X126532936Y-82656547D01*
X126550437Y-82654030D01*
X126750456Y-82639725D01*
X126759302Y-82639409D01*
X153727756Y-82639409D01*
X153794795Y-82659094D01*
G37*
%TD.AperFunction*%
%TA.AperFunction,Conductor*%
G36*
X151823314Y-102499197D02*
G01*
X151836647Y-102497281D01*
X151856790Y-102506480D01*
X151878427Y-102511187D01*
X151896152Y-102524455D01*
X151900203Y-102526306D01*
X151906681Y-102532338D01*
X151987441Y-102613098D01*
X152020926Y-102674421D01*
X152021377Y-102724970D01*
X151984500Y-102910363D01*
X151984500Y-102910368D01*
X151984500Y-103107450D01*
X151984500Y-103107452D01*
X151984499Y-103107452D01*
X152022947Y-103300738D01*
X152022950Y-103300748D01*
X152098364Y-103482816D01*
X152098371Y-103482829D01*
X152207860Y-103646690D01*
X152207863Y-103646694D01*
X152347214Y-103786045D01*
X152347218Y-103786048D01*
X152511079Y-103895537D01*
X152511092Y-103895544D01*
X152658726Y-103956695D01*
X152693165Y-103970960D01*
X152693169Y-103970960D01*
X152693170Y-103970961D01*
X152886456Y-104009409D01*
X152886459Y-104009409D01*
X153083543Y-104009409D01*
X153213582Y-103983541D01*
X153276835Y-103970960D01*
X153458914Y-103895541D01*
X153458919Y-103895537D01*
X153458922Y-103895536D01*
X153502705Y-103866281D01*
X153534341Y-103845141D01*
X153601018Y-103824263D01*
X153668399Y-103842747D01*
X153715089Y-103894725D01*
X153727211Y-103950560D01*
X153716629Y-104516726D01*
X153695695Y-104583386D01*
X153642046Y-104628146D01*
X153592651Y-104638409D01*
X147338377Y-104638409D01*
X147271338Y-104618724D01*
X147225583Y-104565920D01*
X147215639Y-104496762D01*
X147244664Y-104433206D01*
X147276377Y-104407022D01*
X147290288Y-104398990D01*
X147369263Y-104353394D01*
X148991694Y-102730961D01*
X149053015Y-102697478D01*
X149122707Y-102702462D01*
X149167054Y-102730963D01*
X149195000Y-102758909D01*
X150011988Y-102758909D01*
X149979075Y-102815916D01*
X149945000Y-102943083D01*
X149945000Y-103074735D01*
X149979075Y-103201902D01*
X150011988Y-103258909D01*
X149195000Y-103258909D01*
X149195000Y-103806753D01*
X149201401Y-103866281D01*
X149201403Y-103866288D01*
X149251645Y-104000995D01*
X149251649Y-104001002D01*
X149337809Y-104116096D01*
X149337812Y-104116099D01*
X149452906Y-104202259D01*
X149452913Y-104202263D01*
X149587620Y-104252505D01*
X149587627Y-104252507D01*
X149647155Y-104258908D01*
X149647172Y-104258909D01*
X150195000Y-104258909D01*
X150195000Y-103441921D01*
X150252007Y-103474834D01*
X150379174Y-103508909D01*
X150510826Y-103508909D01*
X150637993Y-103474834D01*
X150695000Y-103441921D01*
X150695000Y-104258909D01*
X151242828Y-104258909D01*
X151242844Y-104258908D01*
X151302372Y-104252507D01*
X151302379Y-104252505D01*
X151437086Y-104202263D01*
X151437093Y-104202259D01*
X151552187Y-104116099D01*
X151552190Y-104116096D01*
X151638350Y-104001002D01*
X151638354Y-104000995D01*
X151688596Y-103866288D01*
X151688598Y-103866281D01*
X151694999Y-103806753D01*
X151695000Y-103806736D01*
X151695000Y-103258909D01*
X150878012Y-103258909D01*
X150910925Y-103201902D01*
X150945000Y-103074735D01*
X150945000Y-102943083D01*
X150910925Y-102815916D01*
X150878012Y-102758909D01*
X151695000Y-102758909D01*
X151695000Y-102620019D01*
X151701238Y-102598773D01*
X151702818Y-102576685D01*
X151710890Y-102565901D01*
X151714685Y-102552980D01*
X151731418Y-102538480D01*
X151744690Y-102520752D01*
X151757310Y-102516044D01*
X151767489Y-102507225D01*
X151789406Y-102504073D01*
X151810154Y-102496335D01*
X151823314Y-102499197D01*
G37*
%TD.AperFunction*%
%TA.AperFunction,Conductor*%
G36*
X140273039Y-91458594D02*
G01*
X140318794Y-91511398D01*
X140330000Y-91562909D01*
X140330000Y-92358995D01*
X140330001Y-92358996D01*
X140405098Y-92349110D01*
X140405103Y-92349109D01*
X140544979Y-92291171D01*
X140544981Y-92291170D01*
X140665095Y-92199003D01*
X140692782Y-92162922D01*
X140749209Y-92121719D01*
X140791154Y-92114408D01*
X140943138Y-92114408D01*
X140990545Y-92108168D01*
X141094579Y-92059656D01*
X141094581Y-92059653D01*
X141102594Y-92055917D01*
X141171672Y-92045425D01*
X141207405Y-92055917D01*
X141215419Y-92059654D01*
X141215421Y-92059656D01*
X141319455Y-92108168D01*
X141366861Y-92114409D01*
X141593138Y-92114408D01*
X141593139Y-92114408D01*
X141606436Y-92112657D01*
X141640545Y-92108168D01*
X141640546Y-92108167D01*
X141647539Y-92107247D01*
X141716574Y-92118013D01*
X141768829Y-92164394D01*
X141787713Y-92231663D01*
X141786661Y-92246370D01*
X141779500Y-92300767D01*
X141779500Y-92527041D01*
X141779501Y-92527047D01*
X141785741Y-92574454D01*
X141785742Y-92574456D01*
X141785742Y-92574457D01*
X141837991Y-92686504D01*
X141848483Y-92755581D01*
X141837991Y-92791314D01*
X141785740Y-92903365D01*
X141779500Y-92950768D01*
X141779500Y-93177041D01*
X141779501Y-93177047D01*
X141785741Y-93224454D01*
X141785742Y-93224456D01*
X141785742Y-93224457D01*
X141837991Y-93336504D01*
X141848483Y-93405581D01*
X141837991Y-93441314D01*
X141785740Y-93553365D01*
X141779500Y-93600769D01*
X141779500Y-93752751D01*
X141759815Y-93819790D01*
X141730987Y-93851126D01*
X141694908Y-93878810D01*
X141602736Y-93998930D01*
X141544801Y-94138800D01*
X141544800Y-94138805D01*
X141534911Y-94213908D01*
X141534912Y-94213909D01*
X143375087Y-94213909D01*
X143373818Y-94204268D01*
X143384583Y-94135233D01*
X143430962Y-94082976D01*
X143480576Y-94065141D01*
X143486132Y-94064409D01*
X143486144Y-94064409D01*
X143575288Y-94040523D01*
X143655212Y-93994379D01*
X143764363Y-93885228D01*
X143825686Y-93851743D01*
X143852044Y-93848909D01*
X146109999Y-93848909D01*
X146109999Y-93822409D01*
X146129684Y-93755370D01*
X146182488Y-93709615D01*
X146233999Y-93698409D01*
X146867456Y-93698409D01*
X146934495Y-93718094D01*
X146955137Y-93734728D01*
X147464272Y-94243863D01*
X147497757Y-94305186D01*
X147500591Y-94331544D01*
X147500591Y-94335293D01*
X147535565Y-94465815D01*
X147538108Y-94475306D01*
X147610579Y-94600829D01*
X147610581Y-94600831D01*
X147610582Y-94600833D01*
X147713076Y-94703327D01*
X147713077Y-94703328D01*
X147713079Y-94703329D01*
X147838602Y-94775800D01*
X147838603Y-94775800D01*
X147838606Y-94775802D01*
X147978616Y-94813318D01*
X147978619Y-94813318D01*
X148123563Y-94813318D01*
X148123566Y-94813318D01*
X148263576Y-94775802D01*
X148389106Y-94703327D01*
X148491600Y-94600833D01*
X148491600Y-94600832D01*
X148493740Y-94598693D01*
X148555063Y-94565208D01*
X148624755Y-94570192D01*
X148669102Y-94598693D01*
X149834788Y-95764379D01*
X149901275Y-95802765D01*
X149914712Y-95810523D01*
X150003856Y-95834409D01*
X150003857Y-95834409D01*
X150096144Y-95834409D01*
X150315976Y-95834409D01*
X150383015Y-95854094D01*
X150428770Y-95906898D01*
X150438714Y-95976056D01*
X150409689Y-96039612D01*
X150379096Y-96065141D01*
X150343450Y-96086221D01*
X150343438Y-96086230D01*
X150227321Y-96202347D01*
X150227314Y-96202356D01*
X150143718Y-96343710D01*
X150097899Y-96501422D01*
X150097704Y-96503907D01*
X150097705Y-96503909D01*
X151446000Y-96503909D01*
X151513039Y-96523594D01*
X151558794Y-96576398D01*
X151570000Y-96627909D01*
X151570000Y-96879909D01*
X151550315Y-96946948D01*
X151497511Y-96992703D01*
X151446000Y-97003909D01*
X150097705Y-97003909D01*
X150081173Y-97021792D01*
X150079855Y-97028065D01*
X150030800Y-97077819D01*
X149970606Y-97093409D01*
X147646460Y-97093409D01*
X147579421Y-97073724D01*
X147533666Y-97020920D01*
X147523722Y-96951762D01*
X147547193Y-96895098D01*
X147562306Y-96874909D01*
X147568796Y-96866240D01*
X147619091Y-96731392D01*
X147625500Y-96671782D01*
X147625499Y-95626037D01*
X147619091Y-95566426D01*
X147609294Y-95540160D01*
X147568797Y-95431580D01*
X147568793Y-95431573D01*
X147482547Y-95316364D01*
X147482544Y-95316361D01*
X147367335Y-95230115D01*
X147367328Y-95230111D01*
X147232486Y-95179819D01*
X147232485Y-95179818D01*
X147232483Y-95179818D01*
X147172873Y-95173409D01*
X147172863Y-95173409D01*
X146577129Y-95173409D01*
X146577123Y-95173410D01*
X146517516Y-95179817D01*
X146382671Y-95230111D01*
X146382664Y-95230115D01*
X146267455Y-95316361D01*
X146267452Y-95316364D01*
X146181206Y-95431573D01*
X146181201Y-95431583D01*
X146173817Y-95451380D01*
X146131945Y-95507313D01*
X146066480Y-95531729D01*
X145998207Y-95516876D01*
X145948803Y-95467470D01*
X145939930Y-95447049D01*
X145909358Y-95354789D01*
X145909356Y-95354784D01*
X145817315Y-95205563D01*
X145768920Y-95157168D01*
X145735435Y-95095845D01*
X145740419Y-95026153D01*
X145782291Y-94970220D01*
X145791505Y-94963948D01*
X145828343Y-94941226D01*
X145952315Y-94817254D01*
X146044356Y-94668033D01*
X146044358Y-94668028D01*
X146099505Y-94501606D01*
X146099506Y-94501599D01*
X146109999Y-94398895D01*
X146110000Y-94398882D01*
X146110000Y-94348909D01*
X145135000Y-94348909D01*
X145135000Y-94793909D01*
X145149133Y-94808042D01*
X145168039Y-94813594D01*
X145213794Y-94866398D01*
X145225000Y-94917909D01*
X145225000Y-97317475D01*
X145242166Y-97348913D01*
X145245000Y-97375271D01*
X145245000Y-99883908D01*
X145294972Y-99883908D01*
X145294984Y-99883907D01*
X145332897Y-99880034D01*
X145347971Y-99882836D01*
X145363147Y-99880654D01*
X145381622Y-99889091D01*
X145401590Y-99892803D01*
X145412756Y-99903309D01*
X145426703Y-99909679D01*
X145437683Y-99926764D01*
X145452475Y-99940683D01*
X145456751Y-99956436D01*
X145464477Y-99968457D01*
X145469500Y-100003392D01*
X145469500Y-100175529D01*
X145449815Y-100242568D01*
X145397011Y-100288323D01*
X145327853Y-100298267D01*
X145271190Y-100274797D01*
X145228136Y-100242568D01*
X145210554Y-100229406D01*
X145077391Y-100179738D01*
X145077389Y-100179737D01*
X145077387Y-100179737D01*
X145018537Y-100173409D01*
X145018521Y-100173409D01*
X144359399Y-100173409D01*
X144292360Y-100153724D01*
X144271718Y-100137090D01*
X143318523Y-99183895D01*
X143995001Y-99183895D01*
X144005494Y-99286606D01*
X144060641Y-99453028D01*
X144060643Y-99453033D01*
X144152684Y-99602254D01*
X144276654Y-99726224D01*
X144425875Y-99818265D01*
X144425880Y-99818267D01*
X144592302Y-99873414D01*
X144592309Y-99873415D01*
X144695019Y-99883908D01*
X144744999Y-99883907D01*
X144745000Y-99883907D01*
X144745000Y-98908909D01*
X143995001Y-98908909D01*
X143995001Y-99183895D01*
X143318523Y-99183895D01*
X141891819Y-97757191D01*
X141858334Y-97695868D01*
X141855500Y-97669510D01*
X141855500Y-96673895D01*
X143975001Y-96673895D01*
X143985494Y-96776606D01*
X144040641Y-96943028D01*
X144040643Y-96943033D01*
X144132684Y-97092254D01*
X144256654Y-97216224D01*
X144399833Y-97304538D01*
X144446557Y-97356486D01*
X144457780Y-97425449D01*
X144429936Y-97489531D01*
X144399833Y-97515616D01*
X144276654Y-97591593D01*
X144152684Y-97715563D01*
X144060643Y-97864784D01*
X144060641Y-97864789D01*
X144005494Y-98031211D01*
X144005493Y-98031218D01*
X143995000Y-98133922D01*
X143995000Y-98408909D01*
X144745000Y-98408909D01*
X144745000Y-97490342D01*
X144727834Y-97458905D01*
X144725000Y-97432547D01*
X144725000Y-96398909D01*
X143975001Y-96398909D01*
X143975001Y-96673895D01*
X141855500Y-96673895D01*
X141855500Y-95842172D01*
X141867118Y-95789767D01*
X141869420Y-95784831D01*
X141874259Y-95774454D01*
X141880500Y-95727048D01*
X141880499Y-95130708D01*
X141900183Y-95063670D01*
X141952987Y-95017915D01*
X142020686Y-95007770D01*
X142067304Y-95013908D01*
X142067317Y-95013909D01*
X142305000Y-95013909D01*
X142605000Y-95013909D01*
X142842683Y-95013909D01*
X142842697Y-95013908D01*
X142955104Y-94999108D01*
X142955108Y-94999107D01*
X143094978Y-94941172D01*
X143215094Y-94849003D01*
X143307263Y-94728887D01*
X143365198Y-94589017D01*
X143365199Y-94589012D01*
X143375088Y-94513909D01*
X142605000Y-94513909D01*
X142605000Y-95013909D01*
X142305000Y-95013909D01*
X142305000Y-94513909D01*
X141534912Y-94513909D01*
X141536138Y-94523223D01*
X141525373Y-94592258D01*
X141478993Y-94644514D01*
X141413201Y-94663409D01*
X141366867Y-94663409D01*
X141351839Y-94665387D01*
X141319455Y-94669650D01*
X141319453Y-94669651D01*
X141319450Y-94669651D01*
X141207404Y-94721900D01*
X141138326Y-94732392D01*
X141102594Y-94721900D01*
X141094579Y-94718162D01*
X140990545Y-94669650D01*
X140990543Y-94669649D01*
X140990544Y-94669649D01*
X140943140Y-94663409D01*
X140716867Y-94663409D01*
X140701839Y-94665387D01*
X140669455Y-94669650D01*
X140669453Y-94669651D01*
X140669450Y-94669651D01*
X140557404Y-94721900D01*
X140488326Y-94732392D01*
X140452594Y-94721900D01*
X140444579Y-94718162D01*
X140340545Y-94669650D01*
X140340543Y-94669649D01*
X140340544Y-94669649D01*
X140293140Y-94663409D01*
X140066867Y-94663409D01*
X140051839Y-94665387D01*
X140019455Y-94669650D01*
X140019453Y-94669651D01*
X140019450Y-94669651D01*
X139907404Y-94721900D01*
X139838326Y-94732392D01*
X139802594Y-94721900D01*
X139794579Y-94718162D01*
X139690545Y-94669650D01*
X139690543Y-94669649D01*
X139690544Y-94669649D01*
X139643140Y-94663409D01*
X139643139Y-94663409D01*
X139507610Y-94663409D01*
X139478169Y-94654764D01*
X139448183Y-94648241D01*
X139443167Y-94644486D01*
X139440571Y-94643724D01*
X139419929Y-94627090D01*
X139266818Y-94473979D01*
X139233333Y-94412656D01*
X139231853Y-94398895D01*
X143660001Y-94398895D01*
X143670494Y-94501606D01*
X143725641Y-94668028D01*
X143725643Y-94668033D01*
X143817684Y-94817254D01*
X143941654Y-94941224D01*
X144092608Y-95034333D01*
X144139332Y-95086281D01*
X144150555Y-95155244D01*
X144133050Y-95204968D01*
X144040645Y-95354780D01*
X144040641Y-95354789D01*
X143985494Y-95521211D01*
X143985493Y-95521218D01*
X143975000Y-95623922D01*
X143975000Y-95898909D01*
X144725000Y-95898909D01*
X144725000Y-95228909D01*
X144710866Y-95214775D01*
X144691961Y-95209224D01*
X144646206Y-95156420D01*
X144635000Y-95104909D01*
X144635000Y-94348909D01*
X143660001Y-94348909D01*
X143660001Y-94398895D01*
X139231853Y-94398895D01*
X139230499Y-94386298D01*
X139230499Y-94250776D01*
X139230499Y-94250771D01*
X139224259Y-94203364D01*
X139175747Y-94099330D01*
X139175745Y-94099328D01*
X139172008Y-94091313D01*
X139161516Y-94022236D01*
X139172008Y-93986502D01*
X139175743Y-93978491D01*
X139175747Y-93978488D01*
X139224259Y-93874454D01*
X139230500Y-93827048D01*
X139230499Y-93600771D01*
X139224259Y-93553364D01*
X139175747Y-93449330D01*
X139175745Y-93449328D01*
X139172008Y-93441313D01*
X139161516Y-93372236D01*
X139172008Y-93336502D01*
X139175743Y-93328491D01*
X139175747Y-93328488D01*
X139224259Y-93224454D01*
X139230500Y-93177048D01*
X139230499Y-92950771D01*
X139224259Y-92903364D01*
X139175747Y-92799330D01*
X139175745Y-92799328D01*
X139172008Y-92791313D01*
X139161516Y-92722236D01*
X139172008Y-92686502D01*
X139175743Y-92678491D01*
X139175747Y-92678488D01*
X139224259Y-92574454D01*
X139230500Y-92527048D01*
X139230499Y-92300771D01*
X139230498Y-92300767D01*
X139223338Y-92246369D01*
X139226318Y-92227258D01*
X139224274Y-92208020D01*
X139231592Y-92193444D01*
X139234105Y-92177334D01*
X139246945Y-92162866D01*
X139255626Y-92145579D01*
X139269659Y-92137275D01*
X139280485Y-92125079D01*
X139299109Y-92119850D01*
X139315758Y-92110000D01*
X139339102Y-92108623D01*
X139347755Y-92106195D01*
X139350855Y-92106271D01*
X139366637Y-92106854D01*
X139369455Y-92108168D01*
X139416861Y-92114409D01*
X139571127Y-92114408D01*
X139573420Y-92114493D01*
X139604458Y-92124865D01*
X139635881Y-92134092D01*
X139638057Y-92136094D01*
X139639687Y-92136639D01*
X139642632Y-92140303D01*
X139667217Y-92162921D01*
X139694902Y-92199001D01*
X139815021Y-92291172D01*
X139954896Y-92349109D01*
X139954901Y-92349110D01*
X140029998Y-92358996D01*
X140030000Y-92358995D01*
X140030000Y-91562909D01*
X140032550Y-91554223D01*
X140031262Y-91545262D01*
X140042240Y-91521221D01*
X140049685Y-91495870D01*
X140056525Y-91489942D01*
X140060287Y-91481706D01*
X140082521Y-91467416D01*
X140102489Y-91450115D01*
X140113003Y-91447827D01*
X140119065Y-91443932D01*
X140154000Y-91438909D01*
X140206000Y-91438909D01*
X140273039Y-91458594D01*
G37*
%TD.AperFunction*%
%TA.AperFunction,Conductor*%
G36*
X139023834Y-96974337D02*
G01*
X139079767Y-97016209D01*
X139104184Y-97081673D01*
X139104500Y-97090519D01*
X139104500Y-97663798D01*
X139084815Y-97730837D01*
X139068181Y-97751479D01*
X137657069Y-99162590D01*
X137595746Y-99196075D01*
X137569388Y-99198909D01*
X136739000Y-99198909D01*
X136671961Y-99179224D01*
X136626206Y-99126420D01*
X136615000Y-99074909D01*
X136615000Y-98822909D01*
X136634685Y-98755870D01*
X136687489Y-98710115D01*
X136739000Y-98698909D01*
X137614999Y-98698909D01*
X137614999Y-98423937D01*
X137614998Y-98423924D01*
X137603983Y-98316103D01*
X137616752Y-98247410D01*
X137664633Y-98196525D01*
X137664998Y-98196312D01*
X137746263Y-98149394D01*
X138892819Y-97002838D01*
X138954142Y-96969353D01*
X139023834Y-96974337D01*
G37*
%TD.AperFunction*%
%TA.AperFunction,Conductor*%
G36*
X145490314Y-86670431D02*
G01*
X145518351Y-86675451D01*
X145523410Y-86680149D01*
X145530033Y-86682094D01*
X145548679Y-86703613D01*
X145569551Y-86722994D01*
X145571267Y-86729680D01*
X145575788Y-86734898D01*
X145579840Y-86763084D01*
X145586921Y-86790670D01*
X145585194Y-86800314D01*
X145585732Y-86804056D01*
X145580700Y-86825412D01*
X145570495Y-86856207D01*
X145570493Y-86856218D01*
X145560000Y-86958922D01*
X145560000Y-87008909D01*
X148009999Y-87008909D01*
X148009999Y-86958937D01*
X148009998Y-86958922D01*
X147999505Y-86856211D01*
X147989300Y-86825413D01*
X147986898Y-86755585D01*
X148022630Y-86695543D01*
X148085150Y-86664350D01*
X148107006Y-86662409D01*
X151763847Y-86662409D01*
X151830886Y-86682094D01*
X151876641Y-86734898D01*
X151886320Y-86767011D01*
X151909365Y-86912516D01*
X151911598Y-86926610D01*
X151965127Y-87091354D01*
X152019524Y-87198115D01*
X152032420Y-87266783D01*
X152006144Y-87331524D01*
X151949037Y-87371781D01*
X151909039Y-87378409D01*
X151782525Y-87378409D01*
X151653993Y-87412849D01*
X151642511Y-87415926D01*
X151516988Y-87488397D01*
X151516982Y-87488402D01*
X151414493Y-87590891D01*
X151414488Y-87590897D01*
X151342017Y-87716420D01*
X151342016Y-87716424D01*
X151304500Y-87856434D01*
X151304500Y-88001384D01*
X151342016Y-88141394D01*
X151412887Y-88264147D01*
X151429500Y-88326145D01*
X151429500Y-88659409D01*
X151409815Y-88726448D01*
X151357011Y-88772203D01*
X151305500Y-88783409D01*
X147833467Y-88783409D01*
X147766428Y-88763724D01*
X147720673Y-88710920D01*
X147717285Y-88702743D01*
X147703796Y-88666578D01*
X147703793Y-88666573D01*
X147617547Y-88551364D01*
X147617544Y-88551361D01*
X147502335Y-88465115D01*
X147502329Y-88465112D01*
X147482529Y-88457727D01*
X147426596Y-88415855D01*
X147402179Y-88350391D01*
X147417031Y-88282118D01*
X147466437Y-88232713D01*
X147486860Y-88223839D01*
X147579117Y-88193268D01*
X147579124Y-88193265D01*
X147728345Y-88101224D01*
X147852315Y-87977254D01*
X147944356Y-87828033D01*
X147944358Y-87828028D01*
X147999505Y-87661606D01*
X147999506Y-87661599D01*
X148009999Y-87558895D01*
X148010000Y-87558882D01*
X148010000Y-87508909D01*
X145560001Y-87508909D01*
X145560001Y-87558895D01*
X145570494Y-87661606D01*
X145625641Y-87828028D01*
X145625643Y-87828033D01*
X145717684Y-87977254D01*
X145841654Y-88101224D01*
X145990875Y-88193265D01*
X145990880Y-88193267D01*
X146083140Y-88223839D01*
X146140585Y-88263611D01*
X146167408Y-88328127D01*
X146155093Y-88396903D01*
X146107550Y-88448103D01*
X146087471Y-88457726D01*
X146067674Y-88465110D01*
X146067664Y-88465115D01*
X145952455Y-88551361D01*
X145952452Y-88551364D01*
X145866206Y-88666573D01*
X145866202Y-88666580D01*
X145815908Y-88801426D01*
X145809501Y-88861025D01*
X145809500Y-88861044D01*
X145809500Y-88908365D01*
X145789815Y-88975404D01*
X145737011Y-89021159D01*
X145667853Y-89031103D01*
X145604297Y-89002078D01*
X145597819Y-88996046D01*
X143475863Y-86874090D01*
X143442378Y-86812767D01*
X143447362Y-86743075D01*
X143489234Y-86687142D01*
X143554698Y-86662725D01*
X143563544Y-86662409D01*
X145462994Y-86662409D01*
X145490314Y-86670431D01*
G37*
%TD.AperFunction*%
%TA.AperFunction,Conductor*%
G36*
X140565091Y-86682094D02*
G01*
X140610846Y-86734898D01*
X140620790Y-86804056D01*
X140609453Y-86840869D01*
X140574426Y-86912517D01*
X140564500Y-86980648D01*
X140564500Y-87497169D01*
X140574426Y-87565300D01*
X140609453Y-87636949D01*
X140621212Y-87705822D01*
X140593868Y-87770119D01*
X140536104Y-87809426D01*
X140498052Y-87815409D01*
X140219936Y-87815409D01*
X140152897Y-87795724D01*
X140107142Y-87742920D01*
X140097198Y-87673762D01*
X140098682Y-87665457D01*
X140099505Y-87661608D01*
X140109999Y-87558895D01*
X140110000Y-87558882D01*
X140110000Y-87508909D01*
X138383500Y-87508909D01*
X138316461Y-87489224D01*
X138270706Y-87436420D01*
X138259500Y-87384909D01*
X138259500Y-87132909D01*
X138279185Y-87065870D01*
X138331989Y-87020115D01*
X138383500Y-87008909D01*
X140109999Y-87008909D01*
X140109999Y-86958937D01*
X140109998Y-86958922D01*
X140099505Y-86856211D01*
X140089300Y-86825413D01*
X140086898Y-86755585D01*
X140122630Y-86695543D01*
X140185150Y-86664350D01*
X140207006Y-86662409D01*
X140498052Y-86662409D01*
X140565091Y-86682094D01*
G37*
%TD.AperFunction*%
%TD*%
%TA.AperFunction,Conductor*%
%TO.N,GND2*%
G36*
X171677736Y-96591094D02*
G01*
X171721180Y-96639113D01*
X171736434Y-96669050D01*
X171763766Y-96722693D01*
X171763770Y-96722701D01*
X171795539Y-96766426D01*
X171865586Y-96862837D01*
X171988072Y-96985323D01*
X172128212Y-97087141D01*
X172282555Y-97165782D01*
X172447299Y-97219311D01*
X172618389Y-97246409D01*
X172618390Y-97246409D01*
X172791610Y-97246409D01*
X172791611Y-97246409D01*
X172962701Y-97219311D01*
X173127445Y-97165782D01*
X173281788Y-97087141D01*
X173421928Y-96985323D01*
X173441819Y-96965432D01*
X173461255Y-96954819D01*
X173477989Y-96940319D01*
X173491320Y-96938402D01*
X173503142Y-96931947D01*
X173525228Y-96933526D01*
X173547147Y-96930375D01*
X173559398Y-96935970D01*
X173572834Y-96936931D01*
X173590560Y-96950201D01*
X173610703Y-96959400D01*
X173617985Y-96970731D01*
X173628767Y-96978803D01*
X173636504Y-96999548D01*
X173648477Y-97018178D01*
X173651628Y-97040096D01*
X173653184Y-97044267D01*
X173653500Y-97053113D01*
X173653500Y-97084298D01*
X173633815Y-97151337D01*
X173617181Y-97171979D01*
X173177915Y-97611244D01*
X173116592Y-97644729D01*
X173051916Y-97641494D01*
X172962704Y-97612507D01*
X172834383Y-97592183D01*
X172791611Y-97585409D01*
X172618389Y-97585409D01*
X172578728Y-97591690D01*
X172447302Y-97612506D01*
X172282552Y-97666037D01*
X172128211Y-97744677D01*
X172048363Y-97802691D01*
X171988072Y-97846495D01*
X171988070Y-97846497D01*
X171988069Y-97846497D01*
X171865588Y-97968978D01*
X171865588Y-97968979D01*
X171865586Y-97968981D01*
X171860170Y-97976436D01*
X171763768Y-98109120D01*
X171685128Y-98263461D01*
X171685127Y-98263463D01*
X171685127Y-98263464D01*
X171681438Y-98274818D01*
X171631597Y-98428211D01*
X171616017Y-98526580D01*
X171604500Y-98599298D01*
X171604500Y-98772520D01*
X171631598Y-98943610D01*
X171685127Y-99108354D01*
X171763768Y-99262697D01*
X171865586Y-99402837D01*
X171988072Y-99525323D01*
X172128212Y-99627141D01*
X172282555Y-99705782D01*
X172285708Y-99706806D01*
X172286752Y-99707520D01*
X172287048Y-99707643D01*
X172287022Y-99707704D01*
X172343383Y-99746239D01*
X172370585Y-99810597D01*
X172358674Y-99879444D01*
X172311433Y-99930922D01*
X172285712Y-99942669D01*
X172186783Y-99974813D01*
X171997439Y-100071289D01*
X171943282Y-100110636D01*
X171943282Y-100110637D01*
X172575591Y-100742946D01*
X172512007Y-100759984D01*
X172397993Y-100825810D01*
X172304901Y-100918902D01*
X172239075Y-101032916D01*
X172222037Y-101096500D01*
X171589728Y-100464191D01*
X171589727Y-100464191D01*
X171550380Y-100518348D01*
X171453904Y-100707691D01*
X171388242Y-100909778D01*
X171388242Y-100909781D01*
X171355000Y-101119662D01*
X171355000Y-101332155D01*
X171388242Y-101542036D01*
X171388242Y-101542039D01*
X171453904Y-101744126D01*
X171550375Y-101933459D01*
X171589728Y-101987625D01*
X172222037Y-101355317D01*
X172239075Y-101418902D01*
X172304901Y-101532916D01*
X172397993Y-101626008D01*
X172512007Y-101691834D01*
X172575590Y-101708871D01*
X171943282Y-102341178D01*
X171943282Y-102341179D01*
X171997449Y-102380533D01*
X172186782Y-102477004D01*
X172388870Y-102542666D01*
X172598754Y-102575909D01*
X172811246Y-102575909D01*
X173021127Y-102542666D01*
X173021130Y-102542666D01*
X173223217Y-102477004D01*
X173412554Y-102380531D01*
X173466716Y-102341179D01*
X173466717Y-102341179D01*
X172834408Y-101708871D01*
X172897993Y-101691834D01*
X173012007Y-101626008D01*
X173105099Y-101532916D01*
X173170925Y-101418902D01*
X173187962Y-101355317D01*
X173820270Y-101987626D01*
X173820270Y-101987625D01*
X173859622Y-101933463D01*
X173956095Y-101744126D01*
X174012569Y-101570317D01*
X174052006Y-101512642D01*
X174116365Y-101485443D01*
X174185211Y-101497357D01*
X174236687Y-101544601D01*
X174254500Y-101608635D01*
X174254500Y-103134477D01*
X174254184Y-103143324D01*
X174239868Y-103343462D01*
X174237350Y-103360973D01*
X174195644Y-103552692D01*
X174190660Y-103569668D01*
X174122089Y-103753512D01*
X174114739Y-103769605D01*
X174020708Y-103941808D01*
X174011143Y-103956692D01*
X173893559Y-104113765D01*
X173881973Y-104127136D01*
X173743231Y-104265877D01*
X173729861Y-104277462D01*
X173572787Y-104395047D01*
X173557903Y-104404612D01*
X173385697Y-104498643D01*
X173369603Y-104505993D01*
X173185764Y-104574561D01*
X173168789Y-104579545D01*
X172977066Y-104621251D01*
X172959555Y-104623769D01*
X172838459Y-104632430D01*
X172759286Y-104638093D01*
X172750451Y-104638409D01*
X154924659Y-104638409D01*
X154857620Y-104618724D01*
X154811865Y-104565920D01*
X154800662Y-104515272D01*
X154799892Y-104404612D01*
X154798781Y-104244998D01*
X154817999Y-104177826D01*
X154870483Y-104131705D01*
X154939570Y-104121280D01*
X154979072Y-104133653D01*
X155045161Y-104167326D01*
X155232294Y-104228130D01*
X155426618Y-104258909D01*
X155623382Y-104258909D01*
X155817705Y-104228130D01*
X156004835Y-104167327D01*
X156180143Y-104078004D01*
X156215125Y-104052587D01*
X156215126Y-104052587D01*
X155654409Y-103491871D01*
X155717993Y-103474834D01*
X155832007Y-103409008D01*
X155925099Y-103315916D01*
X155990925Y-103201902D01*
X156007962Y-103138319D01*
X156568678Y-103699035D01*
X156568678Y-103699034D01*
X156594095Y-103664052D01*
X156683418Y-103488744D01*
X156744221Y-103301614D01*
X156775000Y-103107291D01*
X156775000Y-102910526D01*
X156744221Y-102716203D01*
X156683418Y-102529073D01*
X156594096Y-102353767D01*
X156568678Y-102318782D01*
X156568677Y-102318782D01*
X156007962Y-102879498D01*
X155990925Y-102815916D01*
X155925099Y-102701902D01*
X155832007Y-102608810D01*
X155717993Y-102542984D01*
X155654408Y-102525946D01*
X156215125Y-101965229D01*
X156215125Y-101965228D01*
X156180145Y-101939814D01*
X156004835Y-101850490D01*
X155817705Y-101789687D01*
X155623382Y-101758909D01*
X155426618Y-101758909D01*
X155232294Y-101789687D01*
X155045161Y-101850491D01*
X154961946Y-101892891D01*
X154893277Y-101905787D01*
X154828537Y-101879510D01*
X154788280Y-101822404D01*
X154781656Y-101783279D01*
X154754753Y-97915983D01*
X154773971Y-97848812D01*
X154826455Y-97802691D01*
X154895543Y-97792266D01*
X154959299Y-97820848D01*
X154966431Y-97827443D01*
X157578181Y-100439193D01*
X157611666Y-100500516D01*
X157614500Y-100526874D01*
X157614500Y-102040353D01*
X157594815Y-102107392D01*
X157559390Y-102143455D01*
X157427222Y-102231766D01*
X157427214Y-102231772D01*
X157287863Y-102371123D01*
X157287860Y-102371127D01*
X157178371Y-102534988D01*
X157178364Y-102535001D01*
X157102950Y-102717069D01*
X157102947Y-102717079D01*
X157064500Y-102910365D01*
X157064500Y-102910368D01*
X157064500Y-103107450D01*
X157064500Y-103107452D01*
X157064499Y-103107452D01*
X157102947Y-103300738D01*
X157102950Y-103300748D01*
X157178364Y-103482816D01*
X157178371Y-103482829D01*
X157287860Y-103646690D01*
X157287863Y-103646694D01*
X157427214Y-103786045D01*
X157427218Y-103786048D01*
X157591079Y-103895537D01*
X157591092Y-103895544D01*
X157773160Y-103970958D01*
X157773165Y-103970960D01*
X157773169Y-103970960D01*
X157773170Y-103970961D01*
X157966456Y-104009409D01*
X157966459Y-104009409D01*
X158163543Y-104009409D01*
X158293582Y-103983541D01*
X158356835Y-103970960D01*
X158538914Y-103895541D01*
X158702782Y-103786048D01*
X158842139Y-103646691D01*
X158951632Y-103482823D01*
X159023675Y-103308895D01*
X160280001Y-103308895D01*
X160290494Y-103411606D01*
X160345641Y-103578028D01*
X160345643Y-103578033D01*
X160437684Y-103727254D01*
X160561654Y-103851224D01*
X160710875Y-103943265D01*
X160710880Y-103943267D01*
X160877302Y-103998414D01*
X160877309Y-103998415D01*
X160980019Y-104008908D01*
X161254999Y-104008908D01*
X161255000Y-104008907D01*
X161255000Y-103258909D01*
X161755000Y-103258909D01*
X161755000Y-104008908D01*
X162029972Y-104008908D01*
X162029986Y-104008907D01*
X162132697Y-103998414D01*
X162299119Y-103943267D01*
X162299124Y-103943265D01*
X162448345Y-103851224D01*
X162512319Y-103787251D01*
X162573642Y-103753766D01*
X162643334Y-103758750D01*
X162687681Y-103787251D01*
X162741654Y-103841224D01*
X162890875Y-103933265D01*
X162890880Y-103933267D01*
X163057302Y-103988414D01*
X163057309Y-103988415D01*
X163160019Y-103998908D01*
X163434999Y-103998908D01*
X163435000Y-103998907D01*
X163435000Y-103248909D01*
X163935000Y-103248909D01*
X163935000Y-103998908D01*
X164209972Y-103998908D01*
X164209986Y-103998907D01*
X164312697Y-103988414D01*
X164479119Y-103933267D01*
X164479124Y-103933265D01*
X164628342Y-103841226D01*
X164730487Y-103739081D01*
X164791810Y-103705596D01*
X164861502Y-103710580D01*
X164905850Y-103739080D01*
X164964311Y-103797540D01*
X165112285Y-103888812D01*
X165112290Y-103888814D01*
X165277326Y-103943501D01*
X165379184Y-103953908D01*
X165379197Y-103953909D01*
X165635000Y-103953909D01*
X166135000Y-103953909D01*
X166390803Y-103953909D01*
X166390815Y-103953908D01*
X166492673Y-103943501D01*
X166657709Y-103888814D01*
X166657714Y-103888812D01*
X166805691Y-103797538D01*
X166928629Y-103674600D01*
X167019903Y-103526623D01*
X167019905Y-103526618D01*
X167074592Y-103361582D01*
X167084999Y-103259724D01*
X167085000Y-103259711D01*
X167085000Y-103216409D01*
X166135000Y-103216409D01*
X166135000Y-103953909D01*
X165635000Y-103953909D01*
X165635000Y-103216409D01*
X165036825Y-103216409D01*
X164982496Y-103246075D01*
X164956138Y-103248909D01*
X163935000Y-103248909D01*
X163435000Y-103248909D01*
X162838120Y-103248909D01*
X162824996Y-103256075D01*
X162798638Y-103258909D01*
X161755000Y-103258909D01*
X161255000Y-103258909D01*
X160280001Y-103258909D01*
X160280001Y-103308895D01*
X159023675Y-103308895D01*
X159027051Y-103300744D01*
X159032652Y-103272584D01*
X159050402Y-103183355D01*
X159050402Y-103183354D01*
X159065499Y-103107454D01*
X159065500Y-103107452D01*
X159065500Y-102910365D01*
X159027052Y-102717079D01*
X159027051Y-102717078D01*
X159027051Y-102717074D01*
X158982207Y-102608810D01*
X158951635Y-102535001D01*
X158951628Y-102534988D01*
X158842139Y-102371127D01*
X158842136Y-102371123D01*
X158702785Y-102231772D01*
X158702777Y-102231766D01*
X158570610Y-102143455D01*
X158525804Y-102089843D01*
X158515500Y-102040353D01*
X158515500Y-101683409D01*
X158535185Y-101616370D01*
X158587989Y-101570615D01*
X158639500Y-101559409D01*
X160492820Y-101559409D01*
X160559859Y-101579094D01*
X160592085Y-101609096D01*
X160672454Y-101716455D01*
X160685083Y-101725909D01*
X160787664Y-101802702D01*
X160787673Y-101802707D01*
X160807468Y-101810090D01*
X160863402Y-101851960D01*
X160887820Y-101917424D01*
X160872969Y-101985697D01*
X160823565Y-102035103D01*
X160803141Y-102043978D01*
X160710878Y-102074551D01*
X160710875Y-102074552D01*
X160561654Y-102166593D01*
X160437684Y-102290563D01*
X160345643Y-102439784D01*
X160345641Y-102439789D01*
X160290494Y-102606211D01*
X160290493Y-102606218D01*
X160280000Y-102708922D01*
X160280000Y-102758909D01*
X162351880Y-102758909D01*
X162365004Y-102751743D01*
X162391362Y-102748909D01*
X164558175Y-102748909D01*
X164612504Y-102719243D01*
X164638862Y-102716409D01*
X167085000Y-102716409D01*
X167085000Y-102673106D01*
X167084999Y-102673093D01*
X167074592Y-102571235D01*
X167019905Y-102406199D01*
X167019902Y-102406192D01*
X166990804Y-102359018D01*
X166990803Y-102359017D01*
X166928629Y-102258217D01*
X166805691Y-102135279D01*
X166657714Y-102044005D01*
X166657711Y-102044004D01*
X166567033Y-102013956D01*
X166509589Y-101974183D01*
X166482766Y-101909667D01*
X166495081Y-101840891D01*
X166542625Y-101789691D01*
X166562695Y-101780072D01*
X166580554Y-101773412D01*
X166694331Y-101688240D01*
X166779503Y-101574463D01*
X166829171Y-101441300D01*
X166833958Y-101396773D01*
X166835499Y-101382446D01*
X166835500Y-101382429D01*
X166835500Y-101114790D01*
X166835499Y-100800392D01*
X166835498Y-100800382D01*
X166829171Y-100741517D01*
X166790830Y-100638724D01*
X166779503Y-100608355D01*
X166694331Y-100494578D01*
X166620345Y-100439193D01*
X166580556Y-100409407D01*
X166580554Y-100409406D01*
X166447391Y-100359738D01*
X166447389Y-100359737D01*
X166447387Y-100359737D01*
X166388537Y-100353409D01*
X166388521Y-100353409D01*
X166359500Y-100353409D01*
X166292461Y-100333724D01*
X166246706Y-100280920D01*
X166235500Y-100229409D01*
X166235500Y-99320267D01*
X166235500Y-99320265D01*
X166211614Y-99231121D01*
X166211611Y-99231115D01*
X166165473Y-99151203D01*
X166165470Y-99151200D01*
X166165469Y-99151197D01*
X166100212Y-99085940D01*
X165401192Y-98386920D01*
X164632999Y-97618726D01*
X164599514Y-97557403D01*
X164599899Y-97514281D01*
X164598261Y-97514105D01*
X164599089Y-97506395D01*
X164599091Y-97506392D01*
X164605500Y-97446782D01*
X164605499Y-96826037D01*
X164599091Y-96766426D01*
X164596663Y-96759916D01*
X164588766Y-96738741D01*
X164583782Y-96669050D01*
X164617268Y-96607727D01*
X164678591Y-96574243D01*
X164704948Y-96571409D01*
X171610697Y-96571409D01*
X171677736Y-96591094D01*
G37*
%TD.AperFunction*%
%TA.AperFunction,Conductor*%
G36*
X174173834Y-97921336D02*
G01*
X174229767Y-97963208D01*
X174254184Y-98028672D01*
X174254500Y-98037518D01*
X174254500Y-100843182D01*
X174234815Y-100910221D01*
X174182011Y-100955976D01*
X174112853Y-100965920D01*
X174049297Y-100936895D01*
X174012569Y-100881500D01*
X173956095Y-100707691D01*
X173859624Y-100518358D01*
X173820270Y-100464191D01*
X173820269Y-100464191D01*
X173187962Y-101096499D01*
X173170925Y-101032916D01*
X173105099Y-100918902D01*
X173012007Y-100825810D01*
X172897993Y-100759984D01*
X172834409Y-100742946D01*
X173466716Y-100110637D01*
X173412550Y-100071284D01*
X173223217Y-99974813D01*
X173124287Y-99942669D01*
X173066611Y-99903232D01*
X173039413Y-99838873D01*
X173051328Y-99770027D01*
X173098572Y-99718551D01*
X173124290Y-99706806D01*
X173127445Y-99705782D01*
X173281788Y-99627141D01*
X173421928Y-99525323D01*
X173544414Y-99402837D01*
X173646232Y-99262697D01*
X173724873Y-99108354D01*
X173778402Y-98943610D01*
X173805500Y-98772520D01*
X173805500Y-98599298D01*
X173778402Y-98428208D01*
X173749412Y-98338990D01*
X173747418Y-98269150D01*
X173779661Y-98212994D01*
X174042820Y-97949836D01*
X174104142Y-97916352D01*
X174173834Y-97921336D01*
G37*
%TD.AperFunction*%
%TA.AperFunction,Conductor*%
G36*
X159989429Y-95929094D02*
G01*
X160010071Y-95945728D01*
X160397295Y-96332951D01*
X160430780Y-96394274D01*
X160425796Y-96463965D01*
X160415153Y-96485728D01*
X160375645Y-96549780D01*
X160375641Y-96549789D01*
X160320494Y-96716211D01*
X160320493Y-96716218D01*
X160310000Y-96818922D01*
X160310000Y-96868909D01*
X161411000Y-96868909D01*
X161478039Y-96888594D01*
X161523794Y-96941398D01*
X161535000Y-96992909D01*
X161535000Y-97244909D01*
X161515315Y-97311948D01*
X161462511Y-97357703D01*
X161411000Y-97368909D01*
X160310001Y-97368909D01*
X160310001Y-97418895D01*
X160320494Y-97521606D01*
X160375641Y-97688028D01*
X160375643Y-97688033D01*
X160467684Y-97837254D01*
X160591654Y-97961224D01*
X160740875Y-98053265D01*
X160740880Y-98053267D01*
X160833140Y-98083839D01*
X160890585Y-98123611D01*
X160917408Y-98188127D01*
X160905093Y-98256903D01*
X160857550Y-98308103D01*
X160837471Y-98317726D01*
X160817674Y-98325110D01*
X160817664Y-98325115D01*
X160702455Y-98411361D01*
X160702452Y-98411364D01*
X160616206Y-98526573D01*
X160616202Y-98526580D01*
X160565910Y-98661422D01*
X160565909Y-98661426D01*
X160559500Y-98721036D01*
X160559500Y-98721043D01*
X160559500Y-98721044D01*
X160559500Y-99316779D01*
X160559501Y-99316785D01*
X160565908Y-99376392D01*
X160616202Y-99511237D01*
X160616206Y-99511244D01*
X160702452Y-99626453D01*
X160702455Y-99626456D01*
X160817664Y-99712702D01*
X160817671Y-99712706D01*
X160952516Y-99763000D01*
X160998757Y-99767972D01*
X161063307Y-99794710D01*
X161103155Y-99852103D01*
X161109500Y-99891261D01*
X161109500Y-100234409D01*
X161089815Y-100301448D01*
X161037011Y-100347203D01*
X160985519Y-100358409D01*
X160982139Y-100358409D01*
X160982123Y-100358410D01*
X160922516Y-100364817D01*
X160787671Y-100415111D01*
X160787664Y-100415115D01*
X160672456Y-100501361D01*
X160672455Y-100501362D01*
X160672454Y-100501363D01*
X160592360Y-100608355D01*
X160592087Y-100608720D01*
X160536153Y-100650591D01*
X160492820Y-100658409D01*
X158639500Y-100658409D01*
X158572461Y-100638724D01*
X158526706Y-100585920D01*
X158515500Y-100534409D01*
X158515500Y-100229602D01*
X158515500Y-100229600D01*
X158484799Y-100115023D01*
X158484799Y-100115022D01*
X158425489Y-100012295D01*
X157287106Y-98873912D01*
X157282767Y-98865966D01*
X157275520Y-98860541D01*
X157266285Y-98835781D01*
X157253621Y-98812589D01*
X157254266Y-98803559D01*
X157251103Y-98795077D01*
X157256719Y-98769256D01*
X157258605Y-98742897D01*
X157264423Y-98733843D01*
X157265955Y-98726804D01*
X157287106Y-98698550D01*
X157349928Y-98635728D01*
X157411251Y-98602243D01*
X157437609Y-98599409D01*
X157447472Y-98599409D01*
X157447475Y-98599409D01*
X157587485Y-98561893D01*
X157713015Y-98489418D01*
X157815509Y-98386924D01*
X157887984Y-98261394D01*
X157925500Y-98121384D01*
X157925500Y-97976434D01*
X157887984Y-97836424D01*
X157862489Y-97792266D01*
X157815511Y-97710897D01*
X157815506Y-97710891D01*
X157721131Y-97616516D01*
X157687646Y-97555193D01*
X157692630Y-97485501D01*
X157734502Y-97429568D01*
X157745699Y-97422098D01*
X157746558Y-97421589D01*
X157746561Y-97421587D01*
X157862678Y-97305470D01*
X157862685Y-97305461D01*
X157946281Y-97164107D01*
X157992100Y-97006395D01*
X157992295Y-97003910D01*
X157992295Y-97003909D01*
X156770000Y-97003909D01*
X156770000Y-97553909D01*
X156810352Y-97553909D01*
X156842672Y-97563399D01*
X156875227Y-97572234D01*
X156876117Y-97573220D01*
X156877391Y-97573594D01*
X156899448Y-97599049D01*
X156922061Y-97624084D01*
X156922277Y-97625395D01*
X156923146Y-97626398D01*
X156927943Y-97659764D01*
X156933427Y-97693023D01*
X156932936Y-97694488D01*
X156933090Y-97695556D01*
X156924184Y-97727085D01*
X156921333Y-97733683D01*
X156862016Y-97836424D01*
X156837624Y-97927450D01*
X156834027Y-97935779D01*
X156821186Y-97951230D01*
X156807876Y-97974284D01*
X156685358Y-98096802D01*
X156624035Y-98130287D01*
X156554343Y-98125303D01*
X156509996Y-98096802D01*
X156178784Y-97765590D01*
X156145299Y-97704267D01*
X156150283Y-97634575D01*
X156192155Y-97578642D01*
X156257619Y-97554225D01*
X156266465Y-97553909D01*
X156270000Y-97553909D01*
X156270000Y-96877909D01*
X156289685Y-96810870D01*
X156342489Y-96765115D01*
X156394000Y-96753909D01*
X156520000Y-96753909D01*
X156520000Y-96627909D01*
X156539685Y-96560870D01*
X156592489Y-96515115D01*
X156644000Y-96503909D01*
X157992295Y-96503909D01*
X157992295Y-96503907D01*
X157992100Y-96501422D01*
X157946281Y-96343710D01*
X157862685Y-96202356D01*
X157862678Y-96202347D01*
X157781421Y-96121090D01*
X157747936Y-96059767D01*
X157752920Y-95990075D01*
X157794792Y-95934142D01*
X157860256Y-95909725D01*
X157869102Y-95909409D01*
X159922390Y-95909409D01*
X159989429Y-95929094D01*
G37*
%TD.AperFunction*%
%TA.AperFunction,Conductor*%
G36*
X162670590Y-93209093D02*
G01*
X162716345Y-93261897D01*
X162726289Y-93331055D01*
X162725535Y-93335679D01*
X162725399Y-93336418D01*
X162725204Y-93338908D01*
X162725205Y-93338909D01*
X163377372Y-93338909D01*
X163439373Y-93355522D01*
X163454963Y-93364523D01*
X163544107Y-93388409D01*
X163544109Y-93388409D01*
X164729641Y-93388409D01*
X164729643Y-93388409D01*
X164818787Y-93364523D01*
X164834377Y-93355522D01*
X164896378Y-93338909D01*
X165206752Y-93338909D01*
X165239963Y-93319042D01*
X165309797Y-93321284D01*
X165345372Y-93339813D01*
X165402664Y-93382702D01*
X165402671Y-93382706D01*
X165537517Y-93433000D01*
X165537516Y-93433000D01*
X165544444Y-93433744D01*
X165597127Y-93439409D01*
X166361956Y-93439408D01*
X166383202Y-93445646D01*
X166405290Y-93447226D01*
X166416072Y-93455297D01*
X166428995Y-93459092D01*
X166443496Y-93475828D01*
X166461223Y-93489098D01*
X166465929Y-93501716D01*
X166474750Y-93511896D01*
X166477901Y-93533814D01*
X166485640Y-93554562D01*
X166482777Y-93567722D01*
X166484694Y-93581055D01*
X166475494Y-93601198D01*
X166470788Y-93622835D01*
X166457519Y-93640560D01*
X166455669Y-93644611D01*
X166449637Y-93651089D01*
X166398636Y-93702090D01*
X166337313Y-93735575D01*
X166310955Y-93738409D01*
X165597129Y-93738409D01*
X165597123Y-93738410D01*
X165537516Y-93744817D01*
X165402671Y-93795111D01*
X165402665Y-93795115D01*
X165345371Y-93838005D01*
X165279907Y-93862422D01*
X165211634Y-93847570D01*
X165200525Y-93838909D01*
X164896377Y-93838909D01*
X164834378Y-93822296D01*
X164818787Y-93813295D01*
X164729643Y-93789409D01*
X163544107Y-93789409D01*
X163454963Y-93813295D01*
X163439371Y-93822296D01*
X163377373Y-93838909D01*
X162725204Y-93838909D01*
X162725400Y-93841402D01*
X162725534Y-93842135D01*
X162725490Y-93842548D01*
X162725897Y-93847717D01*
X162724937Y-93847792D01*
X162718212Y-93911620D01*
X162674486Y-93966116D01*
X162608239Y-93988320D01*
X162603551Y-93988409D01*
X162081543Y-93988409D01*
X162014504Y-93968724D01*
X161993862Y-93952090D01*
X161718361Y-93676589D01*
X161684876Y-93615266D01*
X161689860Y-93545574D01*
X161718357Y-93501231D01*
X161993862Y-93225726D01*
X162055185Y-93192242D01*
X162081543Y-93189408D01*
X162603551Y-93189408D01*
X162670590Y-93209093D01*
G37*
%TD.AperFunction*%
%TA.AperFunction,Conductor*%
G36*
X161870967Y-89504094D02*
G01*
X161916722Y-89556898D01*
X161926666Y-89626056D01*
X161924835Y-89634978D01*
X161924500Y-89637523D01*
X161924500Y-89637525D01*
X161924500Y-89782475D01*
X161962016Y-89922485D01*
X162032887Y-90045238D01*
X162037037Y-90060724D01*
X162044477Y-90072301D01*
X162049500Y-90107236D01*
X162049500Y-90167390D01*
X162029815Y-90234429D01*
X162013181Y-90255071D01*
X161251162Y-91017090D01*
X161189839Y-91050575D01*
X161163481Y-91053409D01*
X157928982Y-91053409D01*
X157820763Y-91082406D01*
X157820760Y-91082407D01*
X157723740Y-91138422D01*
X157723734Y-91138426D01*
X156505069Y-92357090D01*
X156443746Y-92390575D01*
X156417388Y-92393409D01*
X155896963Y-92393409D01*
X155829924Y-92373724D01*
X155784169Y-92320920D01*
X155774225Y-92251762D01*
X155803250Y-92188206D01*
X155809266Y-92181744D01*
X157155489Y-90835523D01*
X157214799Y-90732796D01*
X157214800Y-90732793D01*
X157229928Y-90676334D01*
X157229928Y-90676332D01*
X157245500Y-90618218D01*
X157245500Y-89608409D01*
X157265185Y-89541370D01*
X157317989Y-89495615D01*
X157369500Y-89484409D01*
X161803928Y-89484409D01*
X161870967Y-89504094D01*
G37*
%TD.AperFunction*%
%TA.AperFunction,Conductor*%
G36*
X168313504Y-89650802D02*
G01*
X168371368Y-89689963D01*
X168398874Y-89754191D01*
X168387289Y-89823093D01*
X168363432Y-89856596D01*
X167534035Y-90685993D01*
X167534033Y-90685995D01*
X167529530Y-90690499D01*
X167505110Y-90732796D01*
X167504221Y-90734334D01*
X167504198Y-90734373D01*
X167483388Y-90770417D01*
X167483387Y-90770420D01*
X167483386Y-90770422D01*
X167483386Y-90770423D01*
X167473262Y-90808208D01*
X167459500Y-90859567D01*
X167459500Y-91953468D01*
X167439815Y-92020507D01*
X167423181Y-92041149D01*
X167207802Y-92256527D01*
X167146479Y-92290012D01*
X167076787Y-92285028D01*
X167020854Y-92243156D01*
X167003939Y-92212178D01*
X166988798Y-92171582D01*
X166988793Y-92171573D01*
X166902547Y-92056364D01*
X166902544Y-92056361D01*
X166787335Y-91970115D01*
X166787328Y-91970111D01*
X166652482Y-91919817D01*
X166652483Y-91919817D01*
X166592883Y-91913410D01*
X166592881Y-91913409D01*
X166592873Y-91913409D01*
X166592865Y-91913409D01*
X166117368Y-91913409D01*
X166050329Y-91893724D01*
X166004574Y-91840920D01*
X165994630Y-91771762D01*
X166023655Y-91708206D01*
X166072957Y-91675313D01*
X166072579Y-91674503D01*
X166077871Y-91672035D01*
X166078374Y-91671700D01*
X166079121Y-91671452D01*
X166079124Y-91671451D01*
X166228345Y-91579410D01*
X166352315Y-91455440D01*
X166444356Y-91306219D01*
X166444358Y-91306214D01*
X166499505Y-91139792D01*
X166499506Y-91139785D01*
X166509999Y-91037081D01*
X166510000Y-91037068D01*
X166510000Y-90762095D01*
X165634000Y-90762095D01*
X165566961Y-90742410D01*
X165521206Y-90689606D01*
X165510000Y-90638095D01*
X165510000Y-90512095D01*
X165384000Y-90512095D01*
X165316961Y-90492410D01*
X165271206Y-90439606D01*
X165260000Y-90388095D01*
X165260000Y-89779500D01*
X165279685Y-89712461D01*
X165332489Y-89666706D01*
X165384000Y-89655500D01*
X165636000Y-89655500D01*
X165703039Y-89675185D01*
X165748794Y-89727989D01*
X165760000Y-89779500D01*
X165760000Y-90262095D01*
X166509999Y-90262095D01*
X166509999Y-89987123D01*
X166509998Y-89987108D01*
X166499505Y-89884397D01*
X166477671Y-89818504D01*
X166475269Y-89748675D01*
X166511001Y-89688634D01*
X166573522Y-89657441D01*
X166595377Y-89655500D01*
X168219924Y-89655500D01*
X168219927Y-89655500D01*
X168243658Y-89649141D01*
X168313504Y-89650802D01*
G37*
%TD.AperFunction*%
%TA.AperFunction,Conductor*%
G36*
X172759418Y-82639725D02*
G01*
X172959560Y-82654039D01*
X172977062Y-82656556D01*
X173168796Y-82698264D01*
X173185753Y-82703243D01*
X173369613Y-82771820D01*
X173385693Y-82779164D01*
X173557907Y-82873200D01*
X173572781Y-82882758D01*
X173729859Y-83000346D01*
X173743230Y-83011932D01*
X173881974Y-83150677D01*
X173893559Y-83164048D01*
X173928044Y-83210115D01*
X173982789Y-83283247D01*
X174011138Y-83321116D01*
X174020701Y-83335996D01*
X174062191Y-83411979D01*
X174114736Y-83508208D01*
X174122086Y-83524302D01*
X174190654Y-83708143D01*
X174195638Y-83725118D01*
X174237343Y-83916836D01*
X174239861Y-83934348D01*
X174254184Y-84134618D01*
X174254500Y-84143464D01*
X174254500Y-84893290D01*
X174234815Y-84960329D01*
X174182011Y-85006084D01*
X174112853Y-85016028D01*
X174049297Y-84987003D01*
X174014318Y-84936623D01*
X173998354Y-84893822D01*
X173998350Y-84893815D01*
X173912190Y-84778721D01*
X173912187Y-84778718D01*
X173797093Y-84692558D01*
X173797086Y-84692554D01*
X173662379Y-84642312D01*
X173662372Y-84642310D01*
X173602844Y-84635909D01*
X172955000Y-84635909D01*
X172955000Y-85552897D01*
X172897993Y-85519984D01*
X172770826Y-85485909D01*
X172639174Y-85485909D01*
X172512007Y-85519984D01*
X172455000Y-85552897D01*
X172455000Y-84635909D01*
X171807155Y-84635909D01*
X171747627Y-84642310D01*
X171747620Y-84642312D01*
X171612913Y-84692554D01*
X171612906Y-84692558D01*
X171497812Y-84778718D01*
X171497809Y-84778721D01*
X171411649Y-84893815D01*
X171411645Y-84893822D01*
X171361403Y-85028529D01*
X171361401Y-85028536D01*
X171355000Y-85088064D01*
X171355000Y-85735909D01*
X172271988Y-85735909D01*
X172239075Y-85792916D01*
X172205000Y-85920083D01*
X172205000Y-86051735D01*
X172239075Y-86178902D01*
X172271988Y-86235909D01*
X171355000Y-86235909D01*
X171355000Y-86759409D01*
X171335315Y-86826448D01*
X171282511Y-86872203D01*
X171231000Y-86883409D01*
X170028982Y-86883409D01*
X169920763Y-86912406D01*
X169920760Y-86912407D01*
X169823740Y-86968422D01*
X169823734Y-86968426D01*
X168023980Y-88768181D01*
X167962657Y-88801666D01*
X167936299Y-88804500D01*
X166554200Y-88804500D01*
X166487161Y-88784815D01*
X166441406Y-88732011D01*
X166431462Y-88662853D01*
X166436494Y-88641496D01*
X166484505Y-88496606D01*
X166484506Y-88496599D01*
X166494999Y-88393895D01*
X166495000Y-88393882D01*
X166495000Y-88118909D01*
X165745000Y-88118909D01*
X165745000Y-88680500D01*
X165725315Y-88747539D01*
X165672511Y-88793294D01*
X165621000Y-88804500D01*
X165369000Y-88804500D01*
X165301961Y-88784815D01*
X165256206Y-88732011D01*
X165245000Y-88680500D01*
X165245000Y-87618909D01*
X165745000Y-87618909D01*
X166494999Y-87618909D01*
X166494999Y-87343937D01*
X166494998Y-87343922D01*
X166484505Y-87241211D01*
X166429358Y-87074789D01*
X166429356Y-87074784D01*
X166337315Y-86925563D01*
X166213345Y-86801593D01*
X166064124Y-86709552D01*
X166064119Y-86709550D01*
X165897697Y-86654403D01*
X165897690Y-86654402D01*
X165794986Y-86643909D01*
X165745000Y-86643909D01*
X165745000Y-87618909D01*
X165245000Y-87618909D01*
X165245000Y-86812019D01*
X165264685Y-86744980D01*
X165281319Y-86724338D01*
X165296107Y-86709550D01*
X165385485Y-86620172D01*
X165441503Y-86523146D01*
X165461897Y-86447029D01*
X165478573Y-86410230D01*
X165480967Y-86406647D01*
X165495499Y-86333587D01*
X165495500Y-86333585D01*
X165495500Y-86054235D01*
X165495003Y-86051735D01*
X165488312Y-86018099D01*
X165488312Y-85969718D01*
X165495500Y-85933583D01*
X165495500Y-85654235D01*
X165488312Y-85618099D01*
X165488312Y-85569718D01*
X165495500Y-85533583D01*
X165495500Y-85254235D01*
X165488311Y-85218098D01*
X165486403Y-85183077D01*
X165486992Y-85176349D01*
X165495500Y-85133583D01*
X165495500Y-84854235D01*
X165495500Y-84854232D01*
X165495499Y-84854230D01*
X165480967Y-84781173D01*
X165480966Y-84781169D01*
X165461578Y-84752152D01*
X165425601Y-84698308D01*
X165425600Y-84698307D01*
X165389084Y-84673908D01*
X165775000Y-84673908D01*
X165824972Y-84673908D01*
X165824986Y-84673907D01*
X165927697Y-84663414D01*
X166094119Y-84608267D01*
X166094124Y-84608265D01*
X166243345Y-84516224D01*
X166367315Y-84392254D01*
X166459356Y-84243033D01*
X166459358Y-84243028D01*
X166514505Y-84076606D01*
X166514506Y-84076599D01*
X166524999Y-83973895D01*
X166525000Y-83973882D01*
X166525000Y-83698909D01*
X165775000Y-83698909D01*
X165775000Y-84673908D01*
X165389084Y-84673908D01*
X165332585Y-84636157D01*
X165334689Y-84633007D01*
X165297134Y-84602735D01*
X165275078Y-84536437D01*
X165275000Y-84532029D01*
X165275000Y-83572909D01*
X165294685Y-83505870D01*
X165347489Y-83460115D01*
X165399000Y-83448909D01*
X165525000Y-83448909D01*
X165525000Y-83322909D01*
X165544685Y-83255870D01*
X165597489Y-83210115D01*
X165649000Y-83198909D01*
X166524999Y-83198909D01*
X166524999Y-82923937D01*
X166524998Y-82923922D01*
X166514505Y-82821212D01*
X166508276Y-82802411D01*
X166505876Y-82732583D01*
X166541608Y-82672541D01*
X166604129Y-82641350D01*
X166625983Y-82639409D01*
X172689108Y-82639409D01*
X172750572Y-82639409D01*
X172759418Y-82639725D01*
G37*
%TD.AperFunction*%
%TA.AperFunction,Conductor*%
G36*
X164526364Y-84241822D02*
G01*
X164536647Y-84240344D01*
X164559516Y-84250788D01*
X164583784Y-84257351D01*
X164595904Y-84267405D01*
X164600203Y-84269369D01*
X164604831Y-84274812D01*
X164610948Y-84279886D01*
X164662948Y-84337356D01*
X164693331Y-84400274D01*
X164695000Y-84420552D01*
X164695000Y-84616344D01*
X164675315Y-84683383D01*
X164669790Y-84690239D01*
X164622103Y-84761609D01*
X164568491Y-84806414D01*
X164499166Y-84815122D01*
X164436138Y-84784968D01*
X164399418Y-84725525D01*
X164395000Y-84692719D01*
X164395000Y-84363082D01*
X164402082Y-84338960D01*
X164405126Y-84314004D01*
X164411758Y-84306008D01*
X164414685Y-84296043D01*
X164433681Y-84279582D01*
X164449736Y-84260230D01*
X164459639Y-84257089D01*
X164467489Y-84250288D01*
X164492373Y-84246709D01*
X164516338Y-84239111D01*
X164526364Y-84241822D01*
G37*
%TD.AperFunction*%
%TD*%
M02*
