%TF.GenerationSoftware,KiCad,Pcbnew,9.0.2*%
%TF.CreationDate,2025-06-06T06:50:43+02:00*%
%TF.ProjectId,USB-RS485_FT230,5553422d-5253-4343-9835-5f4654323330,rev?*%
%TF.SameCoordinates,Original*%
%TF.FileFunction,Soldermask,Top*%
%TF.FilePolarity,Negative*%
%FSLAX46Y46*%
G04 Gerber Fmt 4.6, Leading zero omitted, Abs format (unit mm)*
G04 Created by KiCad (PCBNEW 9.0.2) date 2025-06-06 06:50:43*
%MOMM*%
%LPD*%
G01*
G04 APERTURE LIST*
G04 Aperture macros list*
%AMRoundRect*
0 Rectangle with rounded corners*
0 $1 Rounding radius*
0 $2 $3 $4 $5 $6 $7 $8 $9 X,Y pos of 4 corners*
0 Add a 4 corners polygon primitive as box body*
4,1,4,$2,$3,$4,$5,$6,$7,$8,$9,$2,$3,0*
0 Add four circle primitives for the rounded corners*
1,1,$1+$1,$2,$3*
1,1,$1+$1,$4,$5*
1,1,$1+$1,$6,$7*
1,1,$1+$1,$8,$9*
0 Add four rect primitives between the rounded corners*
20,1,$1+$1,$2,$3,$4,$5,0*
20,1,$1+$1,$4,$5,$6,$7,0*
20,1,$1+$1,$6,$7,$8,$9,0*
20,1,$1+$1,$8,$9,$2,$3,0*%
G04 Aperture macros list end*
%ADD10RoundRect,0.250000X0.450000X-0.262500X0.450000X0.262500X-0.450000X0.262500X-0.450000X-0.262500X0*%
%ADD11RoundRect,0.150000X0.587500X0.150000X-0.587500X0.150000X-0.587500X-0.150000X0.587500X-0.150000X0*%
%ADD12RoundRect,0.250000X0.250000X0.475000X-0.250000X0.475000X-0.250000X-0.475000X0.250000X-0.475000X0*%
%ADD13RoundRect,0.249999X-0.750001X-0.640001X0.750001X-0.640001X0.750001X0.640001X-0.750001X0.640001X0*%
%ADD14RoundRect,0.250000X0.262500X0.450000X-0.262500X0.450000X-0.262500X-0.450000X0.262500X-0.450000X0*%
%ADD15RoundRect,0.243750X-0.456250X0.243750X-0.456250X-0.243750X0.456250X-0.243750X0.456250X0.243750X0*%
%ADD16RoundRect,0.250000X0.475000X-0.250000X0.475000X0.250000X-0.475000X0.250000X-0.475000X-0.250000X0*%
%ADD17RoundRect,0.250000X-0.475000X0.250000X-0.475000X-0.250000X0.475000X-0.250000X0.475000X0.250000X0*%
%ADD18RoundRect,0.249999X0.750001X0.640001X-0.750001X0.640001X-0.750001X-0.640001X0.750001X-0.640001X0*%
%ADD19R,1.500000X1.500000*%
%ADD20C,1.500000*%
%ADD21RoundRect,0.243750X0.243750X0.456250X-0.243750X0.456250X-0.243750X-0.456250X0.243750X-0.456250X0*%
%ADD22RoundRect,0.250000X-0.450000X0.262500X-0.450000X-0.262500X0.450000X-0.262500X0.450000X0.262500X0*%
%ADD23RoundRect,0.150000X-0.825000X-0.150000X0.825000X-0.150000X0.825000X0.150000X-0.825000X0.150000X0*%
%ADD24RoundRect,0.250000X-0.325000X-0.650000X0.325000X-0.650000X0.325000X0.650000X-0.325000X0.650000X0*%
%ADD25RoundRect,0.250000X-0.262500X-0.450000X0.262500X-0.450000X0.262500X0.450000X-0.262500X0.450000X0*%
%ADD26RoundRect,0.250000X-0.250000X-0.475000X0.250000X-0.475000X0.250000X0.475000X-0.250000X0.475000X0*%
%ADD27RoundRect,0.075000X-0.075000X0.350000X-0.075000X-0.350000X0.075000X-0.350000X0.075000X0.350000X0*%
%ADD28RoundRect,0.075000X-0.350000X0.075000X-0.350000X-0.075000X0.350000X-0.075000X0.350000X0.075000X0*%
%ADD29R,2.100000X2.100000*%
%ADD30RoundRect,0.375000X-0.375000X0.625000X-0.375000X-0.625000X0.375000X-0.625000X0.375000X0.625000X0*%
%ADD31RoundRect,0.500000X-1.400000X0.500000X-1.400000X-0.500000X1.400000X-0.500000X1.400000X0.500000X0*%
%ADD32R,1.700000X1.700000*%
%ADD33C,1.700000*%
%ADD34C,0.650000*%
%ADD35RoundRect,0.150000X-0.425000X0.150000X-0.425000X-0.150000X0.425000X-0.150000X0.425000X0.150000X0*%
%ADD36RoundRect,0.075000X-0.500000X0.075000X-0.500000X-0.075000X0.500000X-0.075000X0.500000X0.075000X0*%
%ADD37RoundRect,0.250000X-0.750000X0.840000X-0.750000X-0.840000X0.750000X-0.840000X0.750000X0.840000X0*%
%ADD38RoundRect,0.243750X-0.243750X-0.456250X0.243750X-0.456250X0.243750X0.456250X-0.243750X0.456250X0*%
G04 APERTURE END LIST*
D10*
%TO.C,R13*%
X100150000Y-104512500D03*
X100150000Y-102687500D03*
%TD*%
D11*
%TO.C,D3*%
X104487500Y-99900000D03*
X104487500Y-98000000D03*
X102612500Y-98950000D03*
%TD*%
D12*
%TO.C,C4*%
X66825000Y-98500000D03*
X64925000Y-98500000D03*
%TD*%
D13*
%TO.C,U2*%
X79735000Y-101340000D03*
X79735000Y-103880000D03*
X89265000Y-103880000D03*
X89265000Y-101340000D03*
%TD*%
D14*
%TO.C,R1*%
X66812500Y-96325000D03*
X64987500Y-96325000D03*
%TD*%
%TO.C,R4*%
X62712500Y-103300000D03*
X60887500Y-103300000D03*
%TD*%
%TO.C,R7*%
X72393750Y-91375000D03*
X70568750Y-91375000D03*
%TD*%
D15*
%TO.C,D1*%
X73500000Y-98987500D03*
X73500000Y-100862500D03*
%TD*%
D14*
%TO.C,R2*%
X66812500Y-94200000D03*
X64987500Y-94200000D03*
%TD*%
D10*
%TO.C,R8*%
X75750000Y-97187500D03*
X75750000Y-95362500D03*
%TD*%
D14*
%TO.C,R11*%
X105462500Y-90610000D03*
X103637500Y-90610000D03*
%TD*%
%TO.C,R16*%
X101862500Y-92750000D03*
X100037500Y-92750000D03*
%TD*%
D11*
%TO.C,Q1*%
X94837500Y-104600000D03*
X94837500Y-102700000D03*
X92962500Y-103650000D03*
%TD*%
D16*
%TO.C,C1*%
X71250000Y-100850000D03*
X71250000Y-98950000D03*
%TD*%
D17*
%TO.C,C5*%
X68925000Y-98950000D03*
X68925000Y-100850000D03*
%TD*%
D18*
%TO.C,U3*%
X89265000Y-97880000D03*
X89265000Y-95340000D03*
X79735000Y-95340000D03*
X79735000Y-97880000D03*
%TD*%
D19*
%TO.C,U4*%
X80680000Y-89810000D03*
D20*
X83220000Y-89810000D03*
X85760000Y-89810000D03*
X88300000Y-89810000D03*
%TD*%
D21*
%TO.C,D4*%
X105487500Y-92750000D03*
X103612500Y-92750000D03*
%TD*%
D22*
%TO.C,R14*%
X97750000Y-102687500D03*
X97750000Y-104512500D03*
%TD*%
D23*
%TO.C,U6*%
X95175000Y-97055000D03*
X95175000Y-98325000D03*
X95175000Y-99595000D03*
X95175000Y-100865000D03*
X100125000Y-100865000D03*
X100125000Y-99595000D03*
X100125000Y-98325000D03*
X100125000Y-97055000D03*
%TD*%
D24*
%TO.C,C7*%
X83000000Y-92500000D03*
X85950000Y-92500000D03*
%TD*%
D10*
%TO.C,R6*%
X74375000Y-91537500D03*
X74375000Y-89712500D03*
%TD*%
D25*
%TO.C,R3*%
X56987500Y-87060000D03*
X58812500Y-87060000D03*
%TD*%
D26*
%TO.C,C3*%
X64975000Y-89850000D03*
X66875000Y-89850000D03*
%TD*%
D27*
%TO.C,U1*%
X71725000Y-93300000D03*
X71075000Y-93300000D03*
X70425000Y-93300000D03*
X69775000Y-93300000D03*
D28*
X68800000Y-94275000D03*
X68800000Y-94925000D03*
X68800000Y-95575000D03*
X68800000Y-96225000D03*
D27*
X69775000Y-97200000D03*
X70425000Y-97200000D03*
X71075000Y-97200000D03*
X71725000Y-97200000D03*
D28*
X72700000Y-96225000D03*
X72700000Y-95575000D03*
X72700000Y-94925000D03*
X72700000Y-94275000D03*
D29*
X70750000Y-95250000D03*
%TD*%
D22*
%TO.C,R15*%
X106650000Y-98037500D03*
X106650000Y-99862500D03*
%TD*%
D26*
%TO.C,C8*%
X88550000Y-92500000D03*
X90450000Y-92500000D03*
%TD*%
D30*
%TO.C,U5*%
X97550000Y-88410000D03*
X95250000Y-88410000D03*
D31*
X95250000Y-94710000D03*
D30*
X92950000Y-88410000D03*
%TD*%
D26*
%TO.C,C6*%
X60900000Y-87060000D03*
X62800000Y-87060000D03*
%TD*%
D22*
%TO.C,R12*%
X104800000Y-102637500D03*
X104800000Y-104462500D03*
%TD*%
D10*
%TO.C,R10*%
X102400000Y-104512500D03*
X102400000Y-102687500D03*
%TD*%
D32*
%TO.C,J2*%
X100975000Y-87610000D03*
D33*
X103515000Y-87610000D03*
X106055000Y-87610000D03*
%TD*%
D12*
%TO.C,C2*%
X66875000Y-92050000D03*
X64975000Y-92050000D03*
%TD*%
D32*
%TO.C,J3*%
X111950000Y-102710000D03*
D33*
X111950000Y-100170000D03*
X111950000Y-97630000D03*
X111950000Y-95090000D03*
X111950000Y-92550000D03*
X111950000Y-90010000D03*
X111950000Y-87470000D03*
%TD*%
D12*
%TO.C,C9*%
X97450000Y-85500000D03*
X95550000Y-85500000D03*
%TD*%
D34*
%TO.C,J1*%
X61280000Y-92360000D03*
X61280000Y-98140000D03*
D35*
X62355000Y-92050000D03*
X62355000Y-92850000D03*
D36*
X62355000Y-94000000D03*
X62355000Y-95000000D03*
X62355000Y-95500000D03*
X62355000Y-96500000D03*
D35*
X62355000Y-97650000D03*
X62355000Y-98450000D03*
X62355000Y-98450000D03*
X62355000Y-97650000D03*
D36*
X62355000Y-97000000D03*
X62355000Y-96000000D03*
X62355000Y-94500000D03*
X62355000Y-93500000D03*
D35*
X62355000Y-92850000D03*
X62355000Y-92050000D03*
D37*
X61780000Y-90140000D03*
X57850000Y-90140000D03*
X61780000Y-100360000D03*
X57850000Y-100360000D03*
%TD*%
D22*
%TO.C,R9*%
X92600000Y-96997500D03*
X92600000Y-98822500D03*
%TD*%
D38*
%TO.C,D2*%
X70543750Y-89150000D03*
X72418750Y-89150000D03*
%TD*%
D22*
%TO.C,R5*%
X75750000Y-99000000D03*
X75750000Y-100825000D03*
%TD*%
M02*
