%TF.GenerationSoftware,KiCad,Pcbnew,9.0.2*%
%TF.CreationDate,2025-06-06T06:50:43+02:00*%
%TF.ProjectId,USB-RS485_FT230,5553422d-5253-4343-9835-5f4654323330,rev?*%
%TF.SameCoordinates,Original*%
%TF.FileFunction,Copper,L2,Bot*%
%TF.FilePolarity,Positive*%
%FSLAX46Y46*%
G04 Gerber Fmt 4.6, Leading zero omitted, Abs format (unit mm)*
G04 Created by KiCad (PCBNEW 9.0.2) date 2025-06-06 06:50:43*
%MOMM*%
%LPD*%
G01*
G04 APERTURE LIST*
%TA.AperFunction,ComponentPad*%
%ADD10R,1.500000X1.500000*%
%TD*%
%TA.AperFunction,ComponentPad*%
%ADD11C,1.500000*%
%TD*%
%TA.AperFunction,ComponentPad*%
%ADD12R,1.700000X1.700000*%
%TD*%
%TA.AperFunction,ComponentPad*%
%ADD13C,1.700000*%
%TD*%
%TA.AperFunction,ViaPad*%
%ADD14C,0.600000*%
%TD*%
%TA.AperFunction,Conductor*%
%ADD15C,0.250000*%
%TD*%
%TA.AperFunction,Conductor*%
%ADD16C,0.200000*%
%TD*%
G04 APERTURE END LIST*
D10*
%TO.P,U4,1,-Vin*%
%TO.N,GND1*%
X80680000Y-89810000D03*
D11*
%TO.P,U4,2,+Vin*%
%TO.N,+5V_USB*%
X83220000Y-89810000D03*
%TO.P,U4,3,-Vout*%
%TO.N,GND2*%
X85760000Y-89810000D03*
%TO.P,U4,4,+Vout*%
%TO.N,+5V_OUT*%
X88300000Y-89810000D03*
%TD*%
D12*
%TO.P,J2,1,Pin_1*%
%TO.N,+5V_OUT*%
X100975000Y-87610000D03*
D13*
%TO.P,J2,2,Pin_2*%
%TO.N,Net-(J2-Pin_2)*%
X103515000Y-87610000D03*
%TO.P,J2,3,Pin_3*%
%TO.N,+3.3V_OUT*%
X106055000Y-87610000D03*
%TD*%
D12*
%TO.P,J3,1,Pin_1*%
%TO.N,GND2*%
X111950000Y-102710000D03*
D13*
%TO.P,J3,2,Pin_2*%
%TO.N,Net-(D3-A1)*%
X111950000Y-100170000D03*
%TO.P,J3,3,Pin_3*%
%TO.N,Net-(D3-A2)*%
X111950000Y-97630000D03*
%TO.P,J3,4,Pin_4*%
%TO.N,Net-(J3-Pin_4)*%
X111950000Y-95090000D03*
%TO.P,J3,5,Pin_5*%
%TO.N,Net-(J3-Pin_5)*%
X111950000Y-92550000D03*
%TO.P,J3,6,Pin_6*%
%TO.N,+3.3V_OUT*%
X111950000Y-90010000D03*
%TO.P,J3,7,Pin_7*%
%TO.N,+5V_OUT*%
X111950000Y-87470000D03*
%TD*%
D14*
%TO.N,GND1*%
X57890000Y-101550000D03*
X61800000Y-88410000D03*
X70425000Y-92579355D03*
X59350000Y-89910000D03*
X63300000Y-100210000D03*
X66037500Y-90987500D03*
X70075000Y-100850000D03*
X72700000Y-96900000D03*
X79750000Y-94160000D03*
%TO.N,+5V_USB*%
X70425000Y-98125000D03*
X69041116Y-97950000D03*
%TO.N,GND2*%
X105150000Y-98995000D03*
X105487500Y-93860000D03*
X97500000Y-87000000D03*
X101450000Y-100860000D03*
X87900000Y-103880000D03*
X101200000Y-104499865D03*
%TO.N,VCCIO*%
X74390101Y-95636657D03*
X74381672Y-96836657D03*
%TO.N,Net-(J1-D--PadA7)*%
X63329389Y-95599999D03*
X63329388Y-94400000D03*
%TO.N,Net-(J3-Pin_5)*%
X96750000Y-100900000D03*
X98350000Y-100900000D03*
%TD*%
D15*
%TO.N,GND1*%
X79750000Y-94160000D02*
X80680000Y-93230000D01*
D16*
X61960000Y-101550000D02*
X63300000Y-100210000D01*
X61800000Y-88410000D02*
X61790000Y-88400000D01*
X57890000Y-101550000D02*
X61960000Y-101550000D01*
D15*
X80680000Y-93230000D02*
X80680000Y-89810000D01*
D16*
X61790000Y-88400000D02*
X60860000Y-88400000D01*
X60860000Y-88400000D02*
X59350000Y-89910000D01*
D15*
%TO.N,+5V_USB*%
X69041116Y-97950000D02*
X69045558Y-97945558D01*
X70045558Y-97945558D02*
X70225000Y-98125000D01*
X70225000Y-98125000D02*
X70425000Y-98125000D01*
X69045558Y-97945558D02*
X70045558Y-97945558D01*
D16*
%TO.N,GND2*%
X97500000Y-87000000D02*
X98925000Y-87000000D01*
X101550000Y-100860000D02*
X103400000Y-102710000D01*
X101450000Y-100860000D02*
X101550000Y-100860000D01*
X103400000Y-102710000D02*
X111950000Y-102710000D01*
X106645000Y-97405000D02*
X105487500Y-96247500D01*
X101199865Y-104499865D02*
X101200000Y-104499730D01*
X101200000Y-101110000D02*
X101450000Y-100860000D01*
X105487500Y-96247500D02*
X105487500Y-93860000D01*
X98925000Y-85275000D02*
X98925000Y-87000000D01*
X111950000Y-102710000D02*
X106645000Y-97405000D01*
X106645000Y-97500000D02*
X106645000Y-97405000D01*
X101200000Y-104499730D02*
X101200000Y-101110000D01*
X98925000Y-89085000D02*
X103700000Y-93860000D01*
X90920000Y-84650000D02*
X95150000Y-84650000D01*
X103700000Y-93860000D02*
X105487500Y-93860000D01*
X98900000Y-85250000D02*
X98925000Y-85275000D01*
X98925000Y-87000000D02*
X98925000Y-89085000D01*
X85760000Y-89810000D02*
X90920000Y-84650000D01*
X85760000Y-92500000D02*
X85760000Y-89810000D01*
X101200000Y-104499865D02*
X101199865Y-104499865D01*
X98300000Y-84650000D02*
X98900000Y-85250000D01*
X105150000Y-98995000D02*
X106645000Y-97500000D01*
X87900000Y-103880000D02*
X85760000Y-101740000D01*
X95150000Y-84650000D02*
X98300000Y-84650000D01*
X85760000Y-101740000D02*
X85760000Y-92500000D01*
D15*
%TO.N,VCCIO*%
X74381672Y-96836657D02*
X74381672Y-95645086D01*
X74381672Y-95645086D02*
X74390101Y-95636657D01*
D16*
%TO.N,Net-(J1-D--PadA7)*%
X63329388Y-94400000D02*
X63329388Y-95599998D01*
X63329388Y-95599998D02*
X63329389Y-95599999D01*
%TO.N,Net-(J3-Pin_5)*%
X96750000Y-100900000D02*
X98350000Y-100900000D01*
%TD*%
%TA.AperFunction,Conductor*%
%TO.N,GND1*%
G36*
X83943039Y-84520185D02*
G01*
X83988794Y-84572989D01*
X84000000Y-84624500D01*
X84000000Y-88601610D01*
X83980315Y-88668649D01*
X83927511Y-88714404D01*
X83858353Y-88724348D01*
X83819706Y-88712095D01*
X83700032Y-88651118D01*
X83512826Y-88590290D01*
X83318422Y-88559500D01*
X83318417Y-88559500D01*
X83121583Y-88559500D01*
X83121578Y-88559500D01*
X82927173Y-88590290D01*
X82739970Y-88651117D01*
X82564594Y-88740476D01*
X82473741Y-88806485D01*
X82405354Y-88856172D01*
X82405352Y-88856174D01*
X82405351Y-88856174D01*
X82266174Y-88995351D01*
X82266174Y-88995352D01*
X82266172Y-88995354D01*
X82253953Y-89012172D01*
X82154318Y-89149307D01*
X82098988Y-89191972D01*
X82029374Y-89197951D01*
X81967579Y-89165345D01*
X81933222Y-89104506D01*
X81930000Y-89076421D01*
X81930000Y-89012172D01*
X81929999Y-89012155D01*
X81923598Y-88952627D01*
X81923596Y-88952620D01*
X81873354Y-88817913D01*
X81873350Y-88817906D01*
X81787190Y-88702812D01*
X81787187Y-88702809D01*
X81672093Y-88616649D01*
X81672086Y-88616645D01*
X81537379Y-88566403D01*
X81537372Y-88566401D01*
X81477844Y-88560000D01*
X80930000Y-88560000D01*
X80930000Y-89376988D01*
X80872993Y-89344075D01*
X80745826Y-89310000D01*
X80614174Y-89310000D01*
X80487007Y-89344075D01*
X80430000Y-89376988D01*
X80430000Y-88560000D01*
X79882155Y-88560000D01*
X79822627Y-88566401D01*
X79822620Y-88566403D01*
X79687913Y-88616645D01*
X79687906Y-88616649D01*
X79572812Y-88702809D01*
X79572809Y-88702812D01*
X79486649Y-88817906D01*
X79486645Y-88817913D01*
X79436403Y-88952620D01*
X79436401Y-88952627D01*
X79430000Y-89012155D01*
X79430000Y-89560000D01*
X80246988Y-89560000D01*
X80214075Y-89617007D01*
X80180000Y-89744174D01*
X80180000Y-89875826D01*
X80214075Y-90002993D01*
X80246988Y-90060000D01*
X79430000Y-90060000D01*
X79430000Y-90607844D01*
X79436401Y-90667372D01*
X79436403Y-90667379D01*
X79486645Y-90802086D01*
X79486649Y-90802093D01*
X79572809Y-90917187D01*
X79572812Y-90917190D01*
X79687906Y-91003350D01*
X79687913Y-91003354D01*
X79822620Y-91053596D01*
X79822627Y-91053598D01*
X79882155Y-91059999D01*
X79882172Y-91060000D01*
X80430000Y-91060000D01*
X80430000Y-90243012D01*
X80487007Y-90275925D01*
X80614174Y-90310000D01*
X80745826Y-90310000D01*
X80872993Y-90275925D01*
X80930000Y-90243012D01*
X80930000Y-91060000D01*
X81477828Y-91060000D01*
X81477844Y-91059999D01*
X81537372Y-91053598D01*
X81537379Y-91053596D01*
X81672086Y-91003354D01*
X81672093Y-91003350D01*
X81787187Y-90917190D01*
X81787190Y-90917187D01*
X81873350Y-90802093D01*
X81873354Y-90802086D01*
X81923596Y-90667379D01*
X81923598Y-90667372D01*
X81929999Y-90607844D01*
X81930000Y-90607827D01*
X81930000Y-90543578D01*
X81949685Y-90476539D01*
X82002489Y-90430784D01*
X82071647Y-90420840D01*
X82135203Y-90449865D01*
X82154314Y-90470688D01*
X82266172Y-90624646D01*
X82405354Y-90763828D01*
X82564595Y-90879524D01*
X82638513Y-90917187D01*
X82739970Y-90968882D01*
X82739972Y-90968882D01*
X82739975Y-90968884D01*
X82840317Y-91001487D01*
X82927173Y-91029709D01*
X83121578Y-91060500D01*
X83121583Y-91060500D01*
X83318422Y-91060500D01*
X83512826Y-91029709D01*
X83547665Y-91018389D01*
X83700025Y-90968884D01*
X83819706Y-90907903D01*
X83888374Y-90895008D01*
X83953115Y-90921284D01*
X83993372Y-90978391D01*
X84000000Y-91018389D01*
X84000000Y-105875500D01*
X83980315Y-105942539D01*
X83927511Y-105988294D01*
X83876000Y-105999500D01*
X56258676Y-105999500D01*
X56191637Y-105979815D01*
X56170995Y-105963181D01*
X55536819Y-105329005D01*
X55503334Y-105267682D01*
X55500500Y-105241324D01*
X55500500Y-98064234D01*
X60704500Y-98064234D01*
X60704500Y-98215765D01*
X60743719Y-98362136D01*
X60781602Y-98427750D01*
X60819485Y-98493365D01*
X60926635Y-98600515D01*
X61057865Y-98676281D01*
X61204234Y-98715500D01*
X61204236Y-98715500D01*
X61355764Y-98715500D01*
X61355766Y-98715500D01*
X61502135Y-98676281D01*
X61633365Y-98600515D01*
X61740515Y-98493365D01*
X61816281Y-98362135D01*
X61855500Y-98215766D01*
X61855500Y-98064234D01*
X61816281Y-97917865D01*
X61789312Y-97871153D01*
X68240616Y-97871153D01*
X68240616Y-98028846D01*
X68271377Y-98183489D01*
X68271380Y-98183501D01*
X68331718Y-98329172D01*
X68331725Y-98329185D01*
X68419326Y-98460288D01*
X68419329Y-98460292D01*
X68530823Y-98571786D01*
X68530827Y-98571789D01*
X68661930Y-98659390D01*
X68661943Y-98659397D01*
X68797387Y-98715499D01*
X68807619Y-98719737D01*
X68943603Y-98746786D01*
X68962269Y-98750499D01*
X68962272Y-98750500D01*
X68962274Y-98750500D01*
X69119960Y-98750500D01*
X69119961Y-98750499D01*
X69274613Y-98719737D01*
X69420295Y-98659394D01*
X69420301Y-98659390D01*
X69521224Y-98591956D01*
X69539270Y-98586305D01*
X69555180Y-98576081D01*
X69586141Y-98571629D01*
X69587902Y-98571078D01*
X69590115Y-98571058D01*
X69694014Y-98571058D01*
X69761053Y-98590743D01*
X69797118Y-98626170D01*
X69803211Y-98635289D01*
X69803213Y-98635292D01*
X69914707Y-98746786D01*
X69914711Y-98746789D01*
X70045814Y-98834390D01*
X70045827Y-98834397D01*
X70191498Y-98894735D01*
X70191503Y-98894737D01*
X70346153Y-98925499D01*
X70346156Y-98925500D01*
X70346158Y-98925500D01*
X70503844Y-98925500D01*
X70503845Y-98925499D01*
X70658497Y-98894737D01*
X70804179Y-98834394D01*
X70935289Y-98746789D01*
X71046789Y-98635289D01*
X71134394Y-98504179D01*
X71138873Y-98493367D01*
X71152574Y-98460288D01*
X71194737Y-98358497D01*
X71225500Y-98203842D01*
X71225500Y-98046158D01*
X71225500Y-98046155D01*
X71225499Y-98046153D01*
X71222056Y-98028842D01*
X71194737Y-97891503D01*
X71151300Y-97786635D01*
X71134397Y-97745827D01*
X71134390Y-97745814D01*
X71046789Y-97614711D01*
X71046786Y-97614707D01*
X70935292Y-97503213D01*
X70935288Y-97503210D01*
X70804185Y-97415609D01*
X70804172Y-97415602D01*
X70658501Y-97355264D01*
X70658489Y-97355261D01*
X70503845Y-97324500D01*
X70503842Y-97324500D01*
X70346158Y-97324500D01*
X70327506Y-97328210D01*
X70262016Y-97341236D01*
X70253678Y-97341236D01*
X70248880Y-97343124D01*
X70213637Y-97341236D01*
X70167587Y-97332076D01*
X70167586Y-97332075D01*
X70167585Y-97332075D01*
X70107168Y-97320058D01*
X70107165Y-97320058D01*
X70107164Y-97320058D01*
X69576818Y-97320058D01*
X69509779Y-97300373D01*
X69507927Y-97299160D01*
X69420300Y-97240609D01*
X69420288Y-97240602D01*
X69274617Y-97180264D01*
X69274605Y-97180261D01*
X69119961Y-97149500D01*
X69119958Y-97149500D01*
X68962274Y-97149500D01*
X68962271Y-97149500D01*
X68807626Y-97180261D01*
X68807614Y-97180264D01*
X68661943Y-97240602D01*
X68661930Y-97240609D01*
X68530827Y-97328210D01*
X68530823Y-97328213D01*
X68419329Y-97439707D01*
X68419326Y-97439711D01*
X68331725Y-97570814D01*
X68331718Y-97570827D01*
X68271380Y-97716498D01*
X68271377Y-97716510D01*
X68240616Y-97871153D01*
X61789312Y-97871153D01*
X61740515Y-97786635D01*
X61633365Y-97679485D01*
X61521167Y-97614707D01*
X61502136Y-97603719D01*
X61428950Y-97584109D01*
X61355766Y-97564500D01*
X61204234Y-97564500D01*
X61057863Y-97603719D01*
X60926635Y-97679485D01*
X60926632Y-97679487D01*
X60819487Y-97786632D01*
X60819485Y-97786635D01*
X60743719Y-97917863D01*
X60704500Y-98064234D01*
X55500500Y-98064234D01*
X55500500Y-96757810D01*
X73581172Y-96757810D01*
X73581172Y-96915503D01*
X73611933Y-97070146D01*
X73611936Y-97070158D01*
X73672274Y-97215829D01*
X73672281Y-97215842D01*
X73759882Y-97346945D01*
X73759885Y-97346949D01*
X73871379Y-97458443D01*
X73871383Y-97458446D01*
X74002486Y-97546047D01*
X74002499Y-97546054D01*
X74141717Y-97603719D01*
X74148175Y-97606394D01*
X74302825Y-97637156D01*
X74302828Y-97637157D01*
X74302830Y-97637157D01*
X74460516Y-97637157D01*
X74460517Y-97637156D01*
X74615169Y-97606394D01*
X74760851Y-97546051D01*
X74891961Y-97458446D01*
X75003461Y-97346946D01*
X75091066Y-97215836D01*
X75151409Y-97070154D01*
X75182172Y-96915499D01*
X75182172Y-96757815D01*
X75182172Y-96757812D01*
X75182171Y-96757810D01*
X75151410Y-96603167D01*
X75151409Y-96603160D01*
X75091066Y-96457478D01*
X75028069Y-96363196D01*
X75022419Y-96345151D01*
X75012195Y-96329242D01*
X75007743Y-96298280D01*
X75007192Y-96296520D01*
X75007172Y-96294307D01*
X75007172Y-96191622D01*
X75026857Y-96124583D01*
X75028070Y-96122731D01*
X75099491Y-96015842D01*
X75099491Y-96015841D01*
X75099495Y-96015836D01*
X75159838Y-95870154D01*
X75190601Y-95715499D01*
X75190601Y-95557815D01*
X75190601Y-95557812D01*
X75190600Y-95557810D01*
X75159839Y-95403167D01*
X75159838Y-95403160D01*
X75144652Y-95366497D01*
X75099498Y-95257484D01*
X75099491Y-95257471D01*
X75011890Y-95126368D01*
X75011887Y-95126364D01*
X74900393Y-95014870D01*
X74900389Y-95014867D01*
X74769286Y-94927266D01*
X74769273Y-94927259D01*
X74623602Y-94866921D01*
X74623590Y-94866918D01*
X74468946Y-94836157D01*
X74468943Y-94836157D01*
X74311259Y-94836157D01*
X74311256Y-94836157D01*
X74156611Y-94866918D01*
X74156599Y-94866921D01*
X74010928Y-94927259D01*
X74010915Y-94927266D01*
X73879812Y-95014867D01*
X73879808Y-95014870D01*
X73768314Y-95126364D01*
X73768311Y-95126368D01*
X73680710Y-95257471D01*
X73680703Y-95257484D01*
X73620365Y-95403155D01*
X73620362Y-95403167D01*
X73589601Y-95557810D01*
X73589601Y-95715503D01*
X73620362Y-95870146D01*
X73620365Y-95870158D01*
X73680703Y-96015829D01*
X73680710Y-96015841D01*
X73735274Y-96097501D01*
X73740924Y-96115547D01*
X73751149Y-96131457D01*
X73755600Y-96162416D01*
X73756152Y-96164178D01*
X73756172Y-96166392D01*
X73756172Y-96294307D01*
X73736487Y-96361346D01*
X73735298Y-96363160D01*
X73714474Y-96394325D01*
X73672281Y-96457472D01*
X73672274Y-96457485D01*
X73611936Y-96603155D01*
X73611933Y-96603167D01*
X73581172Y-96757810D01*
X55500500Y-96757810D01*
X55500500Y-94321153D01*
X62528888Y-94321153D01*
X62528888Y-94478846D01*
X62559649Y-94633489D01*
X62559652Y-94633501D01*
X62619990Y-94779172D01*
X62619997Y-94779185D01*
X62707990Y-94910874D01*
X62713640Y-94928920D01*
X62723865Y-94944830D01*
X62728316Y-94975789D01*
X62728868Y-94977551D01*
X62728888Y-94979765D01*
X62728888Y-95020234D01*
X62709203Y-95087273D01*
X62707990Y-95089125D01*
X62619998Y-95220813D01*
X62619991Y-95220826D01*
X62559653Y-95366497D01*
X62559650Y-95366509D01*
X62528889Y-95521152D01*
X62528889Y-95678845D01*
X62559650Y-95833488D01*
X62559653Y-95833500D01*
X62619991Y-95979171D01*
X62619998Y-95979184D01*
X62707599Y-96110287D01*
X62707602Y-96110291D01*
X62819096Y-96221785D01*
X62819100Y-96221788D01*
X62950203Y-96309389D01*
X62950216Y-96309396D01*
X63095887Y-96369734D01*
X63095892Y-96369736D01*
X63250542Y-96400498D01*
X63250545Y-96400499D01*
X63250547Y-96400499D01*
X63408233Y-96400499D01*
X63408234Y-96400498D01*
X63562886Y-96369736D01*
X63708568Y-96309393D01*
X63839678Y-96221788D01*
X63951178Y-96110288D01*
X64038783Y-95979178D01*
X64099126Y-95833496D01*
X64129889Y-95678841D01*
X64129889Y-95521157D01*
X64129889Y-95521154D01*
X64129888Y-95521152D01*
X64106419Y-95403167D01*
X64099126Y-95366502D01*
X64053970Y-95257484D01*
X64038786Y-95220826D01*
X64038779Y-95220813D01*
X63950786Y-95089122D01*
X63945135Y-95071075D01*
X63934911Y-95055166D01*
X63930459Y-95024204D01*
X63929908Y-95022444D01*
X63929888Y-95020231D01*
X63929888Y-94979765D01*
X63949573Y-94912726D01*
X63950786Y-94910874D01*
X64038778Y-94779185D01*
X64038778Y-94779184D01*
X64038782Y-94779179D01*
X64099125Y-94633497D01*
X64129888Y-94478842D01*
X64129888Y-94321158D01*
X64129888Y-94321155D01*
X64129887Y-94321153D01*
X64099126Y-94166510D01*
X64099125Y-94166503D01*
X64099123Y-94166498D01*
X64038785Y-94020827D01*
X64038778Y-94020814D01*
X63951177Y-93889711D01*
X63951174Y-93889707D01*
X63839680Y-93778213D01*
X63839676Y-93778210D01*
X63708573Y-93690609D01*
X63708560Y-93690602D01*
X63562889Y-93630264D01*
X63562877Y-93630261D01*
X63408233Y-93599500D01*
X63408230Y-93599500D01*
X63250546Y-93599500D01*
X63250543Y-93599500D01*
X63095898Y-93630261D01*
X63095886Y-93630264D01*
X62950215Y-93690602D01*
X62950202Y-93690609D01*
X62819099Y-93778210D01*
X62819095Y-93778213D01*
X62707601Y-93889707D01*
X62707598Y-93889711D01*
X62619997Y-94020814D01*
X62619990Y-94020827D01*
X62559652Y-94166498D01*
X62559649Y-94166510D01*
X62528888Y-94321153D01*
X55500500Y-94321153D01*
X55500500Y-92284234D01*
X60704500Y-92284234D01*
X60704500Y-92435765D01*
X60743719Y-92582136D01*
X60781602Y-92647750D01*
X60819485Y-92713365D01*
X60926635Y-92820515D01*
X61057865Y-92896281D01*
X61204234Y-92935500D01*
X61204236Y-92935500D01*
X61355764Y-92935500D01*
X61355766Y-92935500D01*
X61502135Y-92896281D01*
X61633365Y-92820515D01*
X61740515Y-92713365D01*
X61816281Y-92582135D01*
X61855500Y-92435766D01*
X61855500Y-92284234D01*
X61816281Y-92137865D01*
X61740515Y-92006635D01*
X61633365Y-91899485D01*
X61567750Y-91861602D01*
X61502136Y-91823719D01*
X61428950Y-91804109D01*
X61355766Y-91784500D01*
X61204234Y-91784500D01*
X61057863Y-91823719D01*
X60926635Y-91899485D01*
X60926632Y-91899487D01*
X60819487Y-92006632D01*
X60819485Y-92006635D01*
X60743719Y-92137863D01*
X60704500Y-92284234D01*
X55500500Y-92284234D01*
X55500500Y-85258676D01*
X55520185Y-85191637D01*
X55536819Y-85170995D01*
X56170995Y-84536819D01*
X56232318Y-84503334D01*
X56258676Y-84500500D01*
X83876000Y-84500500D01*
X83943039Y-84520185D01*
G37*
%TD.AperFunction*%
%TD*%
%TA.AperFunction,Conductor*%
%TO.N,GND2*%
G36*
X112808363Y-84520185D02*
G01*
X112829005Y-84536819D01*
X113463181Y-85170995D01*
X113496666Y-85232318D01*
X113499500Y-85258676D01*
X113499500Y-87085657D01*
X113479815Y-87152696D01*
X113427011Y-87198451D01*
X113357853Y-87208395D01*
X113294297Y-87179370D01*
X113257569Y-87123975D01*
X113247045Y-87091585D01*
X113201557Y-86951588D01*
X113105051Y-86762184D01*
X113105049Y-86762181D01*
X113105048Y-86762179D01*
X112980109Y-86590213D01*
X112829786Y-86439890D01*
X112657820Y-86314951D01*
X112468414Y-86218444D01*
X112468413Y-86218443D01*
X112468412Y-86218443D01*
X112266243Y-86152754D01*
X112266241Y-86152753D01*
X112266240Y-86152753D01*
X112104957Y-86127208D01*
X112056287Y-86119500D01*
X111843713Y-86119500D01*
X111795042Y-86127208D01*
X111633760Y-86152753D01*
X111431585Y-86218444D01*
X111242179Y-86314951D01*
X111070213Y-86439890D01*
X110919890Y-86590213D01*
X110794951Y-86762179D01*
X110698444Y-86951585D01*
X110632753Y-87153760D01*
X110599500Y-87363713D01*
X110599500Y-87576287D01*
X110632754Y-87786243D01*
X110642430Y-87816024D01*
X110698444Y-87988414D01*
X110794951Y-88177820D01*
X110919890Y-88349786D01*
X111070213Y-88500109D01*
X111242182Y-88625050D01*
X111250946Y-88629516D01*
X111301742Y-88677491D01*
X111318536Y-88745312D01*
X111295998Y-88811447D01*
X111250946Y-88850484D01*
X111242182Y-88854949D01*
X111070213Y-88979890D01*
X110919890Y-89130213D01*
X110794951Y-89302179D01*
X110698444Y-89491585D01*
X110632753Y-89693760D01*
X110599500Y-89903713D01*
X110599500Y-90116286D01*
X110627017Y-90290025D01*
X110632754Y-90326243D01*
X110689252Y-90500126D01*
X110698444Y-90528414D01*
X110794951Y-90717820D01*
X110919890Y-90889786D01*
X111070213Y-91040109D01*
X111242182Y-91165050D01*
X111250946Y-91169516D01*
X111301742Y-91217491D01*
X111318536Y-91285312D01*
X111295998Y-91351447D01*
X111250946Y-91390484D01*
X111242182Y-91394949D01*
X111070213Y-91519890D01*
X110919890Y-91670213D01*
X110794951Y-91842179D01*
X110698444Y-92031585D01*
X110632753Y-92233760D01*
X110628697Y-92259370D01*
X110599500Y-92443713D01*
X110599500Y-92656287D01*
X110632754Y-92866243D01*
X110642430Y-92896024D01*
X110698444Y-93068414D01*
X110794951Y-93257820D01*
X110919890Y-93429786D01*
X111070213Y-93580109D01*
X111242182Y-93705050D01*
X111250946Y-93709516D01*
X111301742Y-93757491D01*
X111318536Y-93825312D01*
X111295998Y-93891447D01*
X111250946Y-93930484D01*
X111242182Y-93934949D01*
X111070213Y-94059890D01*
X110919890Y-94210213D01*
X110794951Y-94382179D01*
X110698444Y-94571585D01*
X110632753Y-94773760D01*
X110628697Y-94799370D01*
X110599500Y-94983713D01*
X110599500Y-95196287D01*
X110632754Y-95406243D01*
X110642430Y-95436024D01*
X110698444Y-95608414D01*
X110794951Y-95797820D01*
X110919890Y-95969786D01*
X111070213Y-96120109D01*
X111242182Y-96245050D01*
X111250946Y-96249516D01*
X111301742Y-96297491D01*
X111318536Y-96365312D01*
X111295998Y-96431447D01*
X111250946Y-96470484D01*
X111242182Y-96474949D01*
X111070213Y-96599890D01*
X110919890Y-96750213D01*
X110794951Y-96922179D01*
X110698444Y-97111585D01*
X110632753Y-97313760D01*
X110628697Y-97339370D01*
X110599500Y-97523713D01*
X110599500Y-97736287D01*
X110632754Y-97946243D01*
X110642430Y-97976024D01*
X110698444Y-98148414D01*
X110794951Y-98337820D01*
X110919890Y-98509786D01*
X111070213Y-98660109D01*
X111242182Y-98785050D01*
X111250946Y-98789516D01*
X111301742Y-98837491D01*
X111318536Y-98905312D01*
X111295998Y-98971447D01*
X111250946Y-99010484D01*
X111242182Y-99014949D01*
X111070213Y-99139890D01*
X110919890Y-99290213D01*
X110794951Y-99462179D01*
X110698444Y-99651585D01*
X110632753Y-99853760D01*
X110625675Y-99898451D01*
X110599500Y-100063713D01*
X110599500Y-100276287D01*
X110632754Y-100486243D01*
X110691324Y-100666503D01*
X110698444Y-100688414D01*
X110794951Y-100877820D01*
X110919890Y-101049786D01*
X111033818Y-101163714D01*
X111067303Y-101225037D01*
X111062319Y-101294729D01*
X111020447Y-101350662D01*
X110989471Y-101367577D01*
X110857912Y-101416646D01*
X110857906Y-101416649D01*
X110742812Y-101502809D01*
X110742809Y-101502812D01*
X110656649Y-101617906D01*
X110656645Y-101617913D01*
X110606403Y-101752620D01*
X110606401Y-101752627D01*
X110600000Y-101812155D01*
X110600000Y-102460000D01*
X111516988Y-102460000D01*
X111484075Y-102517007D01*
X111450000Y-102644174D01*
X111450000Y-102775826D01*
X111484075Y-102902993D01*
X111516988Y-102960000D01*
X110600000Y-102960000D01*
X110600000Y-103607844D01*
X110606401Y-103667372D01*
X110606403Y-103667379D01*
X110656645Y-103802086D01*
X110656649Y-103802093D01*
X110742809Y-103917187D01*
X110742812Y-103917190D01*
X110857906Y-104003350D01*
X110857913Y-104003354D01*
X110992620Y-104053596D01*
X110992627Y-104053598D01*
X111052155Y-104059999D01*
X111052172Y-104060000D01*
X111700000Y-104060000D01*
X111700000Y-103143012D01*
X111757007Y-103175925D01*
X111884174Y-103210000D01*
X112015826Y-103210000D01*
X112142993Y-103175925D01*
X112200000Y-103143012D01*
X112200000Y-104060000D01*
X112847828Y-104060000D01*
X112847844Y-104059999D01*
X112907372Y-104053598D01*
X112907379Y-104053596D01*
X113042086Y-104003354D01*
X113042093Y-104003350D01*
X113157187Y-103917190D01*
X113157190Y-103917187D01*
X113243350Y-103802093D01*
X113243355Y-103802084D01*
X113259318Y-103759286D01*
X113301189Y-103703352D01*
X113366653Y-103678934D01*
X113434926Y-103693785D01*
X113484332Y-103743190D01*
X113499500Y-103802618D01*
X113499500Y-105241324D01*
X113479815Y-105308363D01*
X113463181Y-105329005D01*
X112829005Y-105963181D01*
X112767682Y-105996666D01*
X112741324Y-105999500D01*
X85124000Y-105999500D01*
X85056961Y-105979815D01*
X85011206Y-105927011D01*
X85000000Y-105875500D01*
X85000000Y-100821153D01*
X95949500Y-100821153D01*
X95949500Y-100978846D01*
X95980261Y-101133489D01*
X95980264Y-101133501D01*
X96040602Y-101279172D01*
X96040609Y-101279185D01*
X96128210Y-101410288D01*
X96128213Y-101410292D01*
X96239707Y-101521786D01*
X96239711Y-101521789D01*
X96370814Y-101609390D01*
X96370827Y-101609397D01*
X96494719Y-101660714D01*
X96516503Y-101669737D01*
X96671153Y-101700499D01*
X96671156Y-101700500D01*
X96671158Y-101700500D01*
X96828844Y-101700500D01*
X96828845Y-101700499D01*
X96983497Y-101669737D01*
X97129179Y-101609394D01*
X97129185Y-101609390D01*
X97260875Y-101521398D01*
X97327553Y-101500520D01*
X97329766Y-101500500D01*
X97770234Y-101500500D01*
X97837273Y-101520185D01*
X97839125Y-101521398D01*
X97970814Y-101609390D01*
X97970827Y-101609397D01*
X98094719Y-101660714D01*
X98116503Y-101669737D01*
X98271153Y-101700499D01*
X98271156Y-101700500D01*
X98271158Y-101700500D01*
X98428844Y-101700500D01*
X98428845Y-101700499D01*
X98583497Y-101669737D01*
X98729179Y-101609394D01*
X98860289Y-101521789D01*
X98971789Y-101410289D01*
X99059394Y-101279179D01*
X99119737Y-101133497D01*
X99150500Y-100978842D01*
X99150500Y-100821158D01*
X99150500Y-100821155D01*
X99150499Y-100821153D01*
X99119738Y-100666510D01*
X99119737Y-100666503D01*
X99073279Y-100554342D01*
X99059397Y-100520827D01*
X99059390Y-100520814D01*
X98971789Y-100389711D01*
X98971786Y-100389707D01*
X98860292Y-100278213D01*
X98860288Y-100278210D01*
X98729185Y-100190609D01*
X98729172Y-100190602D01*
X98583501Y-100130264D01*
X98583489Y-100130261D01*
X98428845Y-100099500D01*
X98428842Y-100099500D01*
X98271158Y-100099500D01*
X98271155Y-100099500D01*
X98116510Y-100130261D01*
X98116498Y-100130264D01*
X97970827Y-100190602D01*
X97970814Y-100190609D01*
X97839125Y-100278602D01*
X97772447Y-100299480D01*
X97770234Y-100299500D01*
X97329766Y-100299500D01*
X97262727Y-100279815D01*
X97260875Y-100278602D01*
X97129185Y-100190609D01*
X97129172Y-100190602D01*
X96983501Y-100130264D01*
X96983489Y-100130261D01*
X96828845Y-100099500D01*
X96828842Y-100099500D01*
X96671158Y-100099500D01*
X96671155Y-100099500D01*
X96516510Y-100130261D01*
X96516498Y-100130264D01*
X96370827Y-100190602D01*
X96370814Y-100190609D01*
X96239711Y-100278210D01*
X96239707Y-100278213D01*
X96128213Y-100389707D01*
X96128210Y-100389711D01*
X96040609Y-100520814D01*
X96040602Y-100520827D01*
X95980264Y-100666498D01*
X95980261Y-100666510D01*
X95949500Y-100821153D01*
X85000000Y-100821153D01*
X85000000Y-91028018D01*
X85019685Y-90960979D01*
X85072489Y-90915224D01*
X85141647Y-90905280D01*
X85180295Y-90917533D01*
X85280164Y-90968418D01*
X85467294Y-91029221D01*
X85661618Y-91060000D01*
X85858382Y-91060000D01*
X86052705Y-91029221D01*
X86239835Y-90968418D01*
X86415143Y-90879095D01*
X86450125Y-90853678D01*
X86450126Y-90853678D01*
X85889409Y-90292962D01*
X85952993Y-90275925D01*
X86067007Y-90210099D01*
X86160099Y-90117007D01*
X86225925Y-90002993D01*
X86242962Y-89939410D01*
X86803678Y-90500126D01*
X86803678Y-90500125D01*
X86829097Y-90465141D01*
X86919234Y-90288236D01*
X86967208Y-90237439D01*
X87035029Y-90220644D01*
X87101164Y-90243181D01*
X87140204Y-90288235D01*
X87141115Y-90290024D01*
X87141116Y-90290025D01*
X87230476Y-90465405D01*
X87346172Y-90624646D01*
X87485354Y-90763828D01*
X87644595Y-90879524D01*
X87714661Y-90915224D01*
X87819970Y-90968882D01*
X87819972Y-90968882D01*
X87819975Y-90968884D01*
X87920317Y-91001487D01*
X88007173Y-91029709D01*
X88201578Y-91060500D01*
X88201583Y-91060500D01*
X88398422Y-91060500D01*
X88592826Y-91029709D01*
X88598030Y-91028018D01*
X88780025Y-90968884D01*
X88955405Y-90879524D01*
X89114646Y-90763828D01*
X89253828Y-90624646D01*
X89369524Y-90465405D01*
X89458884Y-90290025D01*
X89519709Y-90102826D01*
X89535521Y-90002993D01*
X89550500Y-89908422D01*
X89550500Y-89711577D01*
X89519709Y-89517173D01*
X89458882Y-89329970D01*
X89369523Y-89154594D01*
X89351809Y-89130213D01*
X89253828Y-88995354D01*
X89114646Y-88856172D01*
X88955405Y-88740476D01*
X88944053Y-88734692D01*
X88780029Y-88651117D01*
X88592826Y-88590290D01*
X88398422Y-88559500D01*
X88398417Y-88559500D01*
X88201583Y-88559500D01*
X88201578Y-88559500D01*
X88007173Y-88590290D01*
X87819970Y-88651117D01*
X87644594Y-88740476D01*
X87559210Y-88802512D01*
X87485354Y-88856172D01*
X87485352Y-88856174D01*
X87485351Y-88856174D01*
X87346174Y-88995351D01*
X87346174Y-88995352D01*
X87346172Y-88995354D01*
X87296485Y-89063741D01*
X87230476Y-89154594D01*
X87140204Y-89331764D01*
X87092229Y-89382560D01*
X87024408Y-89399355D01*
X86958274Y-89376818D01*
X86919234Y-89331764D01*
X86829096Y-89154858D01*
X86803678Y-89119873D01*
X86803677Y-89119873D01*
X86242962Y-89680589D01*
X86225925Y-89617007D01*
X86160099Y-89502993D01*
X86067007Y-89409901D01*
X85952993Y-89344075D01*
X85889408Y-89327037D01*
X86450125Y-88766320D01*
X86450125Y-88766319D01*
X86415145Y-88740905D01*
X86239835Y-88651581D01*
X86052705Y-88590778D01*
X85858382Y-88560000D01*
X85661618Y-88560000D01*
X85467294Y-88590778D01*
X85280164Y-88651581D01*
X85180295Y-88702467D01*
X85111625Y-88715363D01*
X85046885Y-88689087D01*
X85006628Y-88631980D01*
X85000000Y-88591982D01*
X85000000Y-86712135D01*
X99624500Y-86712135D01*
X99624500Y-88507870D01*
X99624501Y-88507876D01*
X99630908Y-88567483D01*
X99681202Y-88702328D01*
X99681206Y-88702335D01*
X99767452Y-88817544D01*
X99767455Y-88817547D01*
X99882664Y-88903793D01*
X99882671Y-88903797D01*
X100017517Y-88954091D01*
X100017516Y-88954091D01*
X100024444Y-88954835D01*
X100077127Y-88960500D01*
X101872872Y-88960499D01*
X101932483Y-88954091D01*
X102067331Y-88903796D01*
X102182546Y-88817546D01*
X102268796Y-88702331D01*
X102317810Y-88570916D01*
X102359681Y-88514984D01*
X102425145Y-88490566D01*
X102493418Y-88505417D01*
X102521673Y-88526569D01*
X102635213Y-88640109D01*
X102807179Y-88765048D01*
X102807181Y-88765049D01*
X102807184Y-88765051D01*
X102996588Y-88861557D01*
X103198757Y-88927246D01*
X103408713Y-88960500D01*
X103408714Y-88960500D01*
X103621286Y-88960500D01*
X103621287Y-88960500D01*
X103831243Y-88927246D01*
X104033412Y-88861557D01*
X104222816Y-88765051D01*
X104309138Y-88702335D01*
X104394786Y-88640109D01*
X104394788Y-88640106D01*
X104394792Y-88640104D01*
X104545104Y-88489792D01*
X104545106Y-88489788D01*
X104545109Y-88489786D01*
X104670048Y-88317820D01*
X104670047Y-88317820D01*
X104670051Y-88317816D01*
X104674514Y-88309054D01*
X104722488Y-88258259D01*
X104790308Y-88241463D01*
X104856444Y-88263999D01*
X104895486Y-88309056D01*
X104899951Y-88317820D01*
X105024890Y-88489786D01*
X105175213Y-88640109D01*
X105347179Y-88765048D01*
X105347181Y-88765049D01*
X105347184Y-88765051D01*
X105536588Y-88861557D01*
X105738757Y-88927246D01*
X105948713Y-88960500D01*
X105948714Y-88960500D01*
X106161286Y-88960500D01*
X106161287Y-88960500D01*
X106371243Y-88927246D01*
X106573412Y-88861557D01*
X106762816Y-88765051D01*
X106849138Y-88702335D01*
X106934786Y-88640109D01*
X106934788Y-88640106D01*
X106934792Y-88640104D01*
X107085104Y-88489792D01*
X107085106Y-88489788D01*
X107085109Y-88489786D01*
X107210048Y-88317820D01*
X107210047Y-88317820D01*
X107210051Y-88317816D01*
X107306557Y-88128412D01*
X107372246Y-87926243D01*
X107405500Y-87716287D01*
X107405500Y-87503713D01*
X107372246Y-87293757D01*
X107306557Y-87091588D01*
X107210051Y-86902184D01*
X107210049Y-86902181D01*
X107210048Y-86902179D01*
X107085109Y-86730213D01*
X106934786Y-86579890D01*
X106762820Y-86454951D01*
X106573414Y-86358444D01*
X106573413Y-86358443D01*
X106573412Y-86358443D01*
X106371243Y-86292754D01*
X106371241Y-86292753D01*
X106371240Y-86292753D01*
X106209957Y-86267208D01*
X106161287Y-86259500D01*
X105948713Y-86259500D01*
X105900042Y-86267208D01*
X105738760Y-86292753D01*
X105536585Y-86358444D01*
X105347179Y-86454951D01*
X105175213Y-86579890D01*
X105024890Y-86730213D01*
X104899949Y-86902182D01*
X104895484Y-86910946D01*
X104847509Y-86961742D01*
X104779688Y-86978536D01*
X104713553Y-86955998D01*
X104674516Y-86910946D01*
X104670050Y-86902182D01*
X104545109Y-86730213D01*
X104394786Y-86579890D01*
X104222820Y-86454951D01*
X104033414Y-86358444D01*
X104033413Y-86358443D01*
X104033412Y-86358443D01*
X103831243Y-86292754D01*
X103831241Y-86292753D01*
X103831240Y-86292753D01*
X103669957Y-86267208D01*
X103621287Y-86259500D01*
X103408713Y-86259500D01*
X103360042Y-86267208D01*
X103198760Y-86292753D01*
X102996585Y-86358444D01*
X102807179Y-86454951D01*
X102635215Y-86579889D01*
X102521673Y-86693431D01*
X102460350Y-86726915D01*
X102390658Y-86721931D01*
X102334725Y-86680059D01*
X102317810Y-86649082D01*
X102268797Y-86517671D01*
X102268793Y-86517664D01*
X102182547Y-86402455D01*
X102182544Y-86402452D01*
X102067335Y-86316206D01*
X102067328Y-86316202D01*
X101932482Y-86265908D01*
X101932483Y-86265908D01*
X101872883Y-86259501D01*
X101872881Y-86259500D01*
X101872873Y-86259500D01*
X101872864Y-86259500D01*
X100077129Y-86259500D01*
X100077123Y-86259501D01*
X100017516Y-86265908D01*
X99882671Y-86316202D01*
X99882664Y-86316206D01*
X99767455Y-86402452D01*
X99767452Y-86402455D01*
X99681206Y-86517664D01*
X99681202Y-86517671D01*
X99630908Y-86652517D01*
X99624501Y-86712116D01*
X99624500Y-86712135D01*
X85000000Y-86712135D01*
X85000000Y-84624500D01*
X85019685Y-84557461D01*
X85072489Y-84511706D01*
X85124000Y-84500500D01*
X112741324Y-84500500D01*
X112808363Y-84520185D01*
G37*
%TD.AperFunction*%
%TD*%
M02*
