M48
; DRILL file {KiCad 9.0.2} date 2025-06-06T06:50:42+0200
; FORMAT={-:-/ absolute / metric / decimal}
; #@! TF.CreationDate,2025-06-06T06:50:42+02:00
; #@! TF.GenerationSoftware,Kicad,Pcbnew,9.0.2
; #@! TF.FileFunction,Plated,1,2,PTH
FMAT,2
METRIC
; #@! TA.AperFunction,Plated,PTH,ViaDrill
T1C0.300
; #@! TA.AperFunction,Plated,PTH,ComponentDrill
T2C1.000
%
G90
G05
T1
X57.89Y-101.55
X59.35Y-89.91
X61.8Y-88.41
X63.3Y-100.21
X63.329Y-94.4
X63.329Y-95.6
X66.037Y-90.987
X69.041Y-97.95
X70.075Y-100.85
X70.425Y-92.579
X70.425Y-98.125
X72.7Y-96.9
X74.382Y-96.837
X74.39Y-95.637
X79.75Y-94.16
X87.9Y-103.88
X96.75Y-100.9
X97.5Y-87.0
X98.35Y-100.9
X101.2Y-104.5
X101.45Y-100.86
X105.15Y-98.995
X105.487Y-93.86
T2
X80.68Y-89.81
X83.22Y-89.81
X85.76Y-89.81
X88.3Y-89.81
X100.975Y-87.61
X103.515Y-87.61
X106.055Y-87.61
X111.95Y-87.47
X111.95Y-90.01
X111.95Y-92.55
X111.95Y-95.09
X111.95Y-97.63
X111.95Y-100.17
X111.95Y-102.71
M30
