%TF.GenerationSoftware,KiCad,Pcbnew,9.0.2*%
%TF.CreationDate,2025-06-06T06:50:43+02:00*%
%TF.ProjectId,USB-RS485_FT230,5553422d-5253-4343-9835-5f4654323330,rev?*%
%TF.SameCoordinates,Original*%
%TF.FileFunction,Legend,Top*%
%TF.FilePolarity,Positive*%
%FSLAX46Y46*%
G04 Gerber Fmt 4.6, Leading zero omitted, Abs format (unit mm)*
G04 Created by KiCad (PCBNEW 9.0.2) date 2025-06-06 06:50:43*
%MOMM*%
%LPD*%
G01*
G04 APERTURE LIST*
%ADD10C,0.250000*%
%ADD11C,0.150000*%
%ADD12C,0.200000*%
%ADD13C,0.120000*%
G04 APERTURE END LIST*
D10*
X108704949Y-100378904D02*
X109181139Y-100378904D01*
X108609711Y-100664619D02*
X108943044Y-99664619D01*
X108943044Y-99664619D02*
X109276377Y-100664619D01*
X108773996Y-95314619D02*
X108440663Y-94838428D01*
X108202568Y-95314619D02*
X108202568Y-94314619D01*
X108202568Y-94314619D02*
X108583520Y-94314619D01*
X108583520Y-94314619D02*
X108678758Y-94362238D01*
X108678758Y-94362238D02*
X108726377Y-94409857D01*
X108726377Y-94409857D02*
X108773996Y-94505095D01*
X108773996Y-94505095D02*
X108773996Y-94647952D01*
X108773996Y-94647952D02*
X108726377Y-94743190D01*
X108726377Y-94743190D02*
X108678758Y-94790809D01*
X108678758Y-94790809D02*
X108583520Y-94838428D01*
X108583520Y-94838428D02*
X108202568Y-94838428D01*
X109107330Y-95314619D02*
X109631139Y-94647952D01*
X109107330Y-94647952D02*
X109631139Y-95314619D01*
X108528758Y-87114619D02*
X108052568Y-87114619D01*
X108052568Y-87114619D02*
X108004949Y-87590809D01*
X108004949Y-87590809D02*
X108052568Y-87543190D01*
X108052568Y-87543190D02*
X108147806Y-87495571D01*
X108147806Y-87495571D02*
X108385901Y-87495571D01*
X108385901Y-87495571D02*
X108481139Y-87543190D01*
X108481139Y-87543190D02*
X108528758Y-87590809D01*
X108528758Y-87590809D02*
X108576377Y-87686047D01*
X108576377Y-87686047D02*
X108576377Y-87924142D01*
X108576377Y-87924142D02*
X108528758Y-88019380D01*
X108528758Y-88019380D02*
X108481139Y-88067000D01*
X108481139Y-88067000D02*
X108385901Y-88114619D01*
X108385901Y-88114619D02*
X108147806Y-88114619D01*
X108147806Y-88114619D02*
X108052568Y-88067000D01*
X108052568Y-88067000D02*
X108004949Y-88019380D01*
X108862092Y-87114619D02*
X109195425Y-88114619D01*
X109195425Y-88114619D02*
X109528758Y-87114619D01*
X108126377Y-102312238D02*
X108031139Y-102264619D01*
X108031139Y-102264619D02*
X107888282Y-102264619D01*
X107888282Y-102264619D02*
X107745425Y-102312238D01*
X107745425Y-102312238D02*
X107650187Y-102407476D01*
X107650187Y-102407476D02*
X107602568Y-102502714D01*
X107602568Y-102502714D02*
X107554949Y-102693190D01*
X107554949Y-102693190D02*
X107554949Y-102836047D01*
X107554949Y-102836047D02*
X107602568Y-103026523D01*
X107602568Y-103026523D02*
X107650187Y-103121761D01*
X107650187Y-103121761D02*
X107745425Y-103217000D01*
X107745425Y-103217000D02*
X107888282Y-103264619D01*
X107888282Y-103264619D02*
X107983520Y-103264619D01*
X107983520Y-103264619D02*
X108126377Y-103217000D01*
X108126377Y-103217000D02*
X108173996Y-103169380D01*
X108173996Y-103169380D02*
X108173996Y-102836047D01*
X108173996Y-102836047D02*
X107983520Y-102836047D01*
X108602568Y-103264619D02*
X108602568Y-102264619D01*
X108602568Y-102264619D02*
X109173996Y-103264619D01*
X109173996Y-103264619D02*
X109173996Y-102264619D01*
X109650187Y-103264619D02*
X109650187Y-102264619D01*
X109650187Y-102264619D02*
X109888282Y-102264619D01*
X109888282Y-102264619D02*
X110031139Y-102312238D01*
X110031139Y-102312238D02*
X110126377Y-102407476D01*
X110126377Y-102407476D02*
X110173996Y-102502714D01*
X110173996Y-102502714D02*
X110221615Y-102693190D01*
X110221615Y-102693190D02*
X110221615Y-102836047D01*
X110221615Y-102836047D02*
X110173996Y-103026523D01*
X110173996Y-103026523D02*
X110126377Y-103121761D01*
X110126377Y-103121761D02*
X110031139Y-103217000D01*
X110031139Y-103217000D02*
X109888282Y-103264619D01*
X109888282Y-103264619D02*
X109650187Y-103264619D01*
X109035901Y-97690809D02*
X109178758Y-97738428D01*
X109178758Y-97738428D02*
X109226377Y-97786047D01*
X109226377Y-97786047D02*
X109273996Y-97881285D01*
X109273996Y-97881285D02*
X109273996Y-98024142D01*
X109273996Y-98024142D02*
X109226377Y-98119380D01*
X109226377Y-98119380D02*
X109178758Y-98167000D01*
X109178758Y-98167000D02*
X109083520Y-98214619D01*
X109083520Y-98214619D02*
X108702568Y-98214619D01*
X108702568Y-98214619D02*
X108702568Y-97214619D01*
X108702568Y-97214619D02*
X109035901Y-97214619D01*
X109035901Y-97214619D02*
X109131139Y-97262238D01*
X109131139Y-97262238D02*
X109178758Y-97309857D01*
X109178758Y-97309857D02*
X109226377Y-97405095D01*
X109226377Y-97405095D02*
X109226377Y-97500333D01*
X109226377Y-97500333D02*
X109178758Y-97595571D01*
X109178758Y-97595571D02*
X109131139Y-97643190D01*
X109131139Y-97643190D02*
X109035901Y-97690809D01*
X109035901Y-97690809D02*
X108702568Y-97690809D01*
X107457330Y-89564619D02*
X108076377Y-89564619D01*
X108076377Y-89564619D02*
X107743044Y-89945571D01*
X107743044Y-89945571D02*
X107885901Y-89945571D01*
X107885901Y-89945571D02*
X107981139Y-89993190D01*
X107981139Y-89993190D02*
X108028758Y-90040809D01*
X108028758Y-90040809D02*
X108076377Y-90136047D01*
X108076377Y-90136047D02*
X108076377Y-90374142D01*
X108076377Y-90374142D02*
X108028758Y-90469380D01*
X108028758Y-90469380D02*
X107981139Y-90517000D01*
X107981139Y-90517000D02*
X107885901Y-90564619D01*
X107885901Y-90564619D02*
X107600187Y-90564619D01*
X107600187Y-90564619D02*
X107504949Y-90517000D01*
X107504949Y-90517000D02*
X107457330Y-90469380D01*
X108362092Y-89564619D02*
X108695425Y-90564619D01*
X108695425Y-90564619D02*
X109028758Y-89564619D01*
X109266854Y-89564619D02*
X109885901Y-89564619D01*
X109885901Y-89564619D02*
X109552568Y-89945571D01*
X109552568Y-89945571D02*
X109695425Y-89945571D01*
X109695425Y-89945571D02*
X109790663Y-89993190D01*
X109790663Y-89993190D02*
X109838282Y-90040809D01*
X109838282Y-90040809D02*
X109885901Y-90136047D01*
X109885901Y-90136047D02*
X109885901Y-90374142D01*
X109885901Y-90374142D02*
X109838282Y-90469380D01*
X109838282Y-90469380D02*
X109790663Y-90517000D01*
X109790663Y-90517000D02*
X109695425Y-90564619D01*
X109695425Y-90564619D02*
X109409711Y-90564619D01*
X109409711Y-90564619D02*
X109314473Y-90517000D01*
X109314473Y-90517000D02*
X109266854Y-90469380D01*
X108159711Y-92014619D02*
X108731139Y-92014619D01*
X108445425Y-93014619D02*
X108445425Y-92014619D01*
X108969235Y-93014619D02*
X109493044Y-92347952D01*
X108969235Y-92347952D02*
X109493044Y-93014619D01*
D11*
X83738095Y-102064819D02*
X83738095Y-102874342D01*
X83738095Y-102874342D02*
X83785714Y-102969580D01*
X83785714Y-102969580D02*
X83833333Y-103017200D01*
X83833333Y-103017200D02*
X83928571Y-103064819D01*
X83928571Y-103064819D02*
X84119047Y-103064819D01*
X84119047Y-103064819D02*
X84214285Y-103017200D01*
X84214285Y-103017200D02*
X84261904Y-102969580D01*
X84261904Y-102969580D02*
X84309523Y-102874342D01*
X84309523Y-102874342D02*
X84309523Y-102064819D01*
X84738095Y-102160057D02*
X84785714Y-102112438D01*
X84785714Y-102112438D02*
X84880952Y-102064819D01*
X84880952Y-102064819D02*
X85119047Y-102064819D01*
X85119047Y-102064819D02*
X85214285Y-102112438D01*
X85214285Y-102112438D02*
X85261904Y-102160057D01*
X85261904Y-102160057D02*
X85309523Y-102255295D01*
X85309523Y-102255295D02*
X85309523Y-102350533D01*
X85309523Y-102350533D02*
X85261904Y-102493390D01*
X85261904Y-102493390D02*
X84690476Y-103064819D01*
X84690476Y-103064819D02*
X85309523Y-103064819D01*
X73379761Y-102804819D02*
X73046428Y-102328628D01*
X72808333Y-102804819D02*
X72808333Y-101804819D01*
X72808333Y-101804819D02*
X73189285Y-101804819D01*
X73189285Y-101804819D02*
X73284523Y-101852438D01*
X73284523Y-101852438D02*
X73332142Y-101900057D01*
X73332142Y-101900057D02*
X73379761Y-101995295D01*
X73379761Y-101995295D02*
X73379761Y-102138152D01*
X73379761Y-102138152D02*
X73332142Y-102233390D01*
X73332142Y-102233390D02*
X73284523Y-102281009D01*
X73284523Y-102281009D02*
X73189285Y-102328628D01*
X73189285Y-102328628D02*
X72808333Y-102328628D01*
X73713095Y-102804819D02*
X74236904Y-102138152D01*
X73713095Y-102138152D02*
X74236904Y-102804819D01*
X83738095Y-96064819D02*
X83738095Y-96874342D01*
X83738095Y-96874342D02*
X83785714Y-96969580D01*
X83785714Y-96969580D02*
X83833333Y-97017200D01*
X83833333Y-97017200D02*
X83928571Y-97064819D01*
X83928571Y-97064819D02*
X84119047Y-97064819D01*
X84119047Y-97064819D02*
X84214285Y-97017200D01*
X84214285Y-97017200D02*
X84261904Y-96969580D01*
X84261904Y-96969580D02*
X84309523Y-96874342D01*
X84309523Y-96874342D02*
X84309523Y-96064819D01*
X84690476Y-96064819D02*
X85309523Y-96064819D01*
X85309523Y-96064819D02*
X84976190Y-96445771D01*
X84976190Y-96445771D02*
X85119047Y-96445771D01*
X85119047Y-96445771D02*
X85214285Y-96493390D01*
X85214285Y-96493390D02*
X85261904Y-96541009D01*
X85261904Y-96541009D02*
X85309523Y-96636247D01*
X85309523Y-96636247D02*
X85309523Y-96874342D01*
X85309523Y-96874342D02*
X85261904Y-96969580D01*
X85261904Y-96969580D02*
X85214285Y-97017200D01*
X85214285Y-97017200D02*
X85119047Y-97064819D01*
X85119047Y-97064819D02*
X84833333Y-97064819D01*
X84833333Y-97064819D02*
X84738095Y-97017200D01*
X84738095Y-97017200D02*
X84690476Y-96969580D01*
X103416667Y-95204819D02*
X103416667Y-94204819D01*
X103416667Y-94204819D02*
X103797619Y-94204819D01*
X103797619Y-94204819D02*
X103892857Y-94252438D01*
X103892857Y-94252438D02*
X103940476Y-94300057D01*
X103940476Y-94300057D02*
X103988095Y-94395295D01*
X103988095Y-94395295D02*
X103988095Y-94538152D01*
X103988095Y-94538152D02*
X103940476Y-94633390D01*
X103940476Y-94633390D02*
X103892857Y-94681009D01*
X103892857Y-94681009D02*
X103797619Y-94728628D01*
X103797619Y-94728628D02*
X103416667Y-94728628D01*
X104321429Y-94204819D02*
X104559524Y-95204819D01*
X104559524Y-95204819D02*
X104750000Y-94490533D01*
X104750000Y-94490533D02*
X104940476Y-95204819D01*
X104940476Y-95204819D02*
X105178572Y-94204819D01*
X106130952Y-95204819D02*
X105797619Y-94728628D01*
X105559524Y-95204819D02*
X105559524Y-94204819D01*
X105559524Y-94204819D02*
X105940476Y-94204819D01*
X105940476Y-94204819D02*
X106035714Y-94252438D01*
X106035714Y-94252438D02*
X106083333Y-94300057D01*
X106083333Y-94300057D02*
X106130952Y-94395295D01*
X106130952Y-94395295D02*
X106130952Y-94538152D01*
X106130952Y-94538152D02*
X106083333Y-94633390D01*
X106083333Y-94633390D02*
X106035714Y-94681009D01*
X106035714Y-94681009D02*
X105940476Y-94728628D01*
X105940476Y-94728628D02*
X105559524Y-94728628D01*
X94488095Y-91014819D02*
X94488095Y-91824342D01*
X94488095Y-91824342D02*
X94535714Y-91919580D01*
X94535714Y-91919580D02*
X94583333Y-91967200D01*
X94583333Y-91967200D02*
X94678571Y-92014819D01*
X94678571Y-92014819D02*
X94869047Y-92014819D01*
X94869047Y-92014819D02*
X94964285Y-91967200D01*
X94964285Y-91967200D02*
X95011904Y-91919580D01*
X95011904Y-91919580D02*
X95059523Y-91824342D01*
X95059523Y-91824342D02*
X95059523Y-91014819D01*
X96011904Y-91014819D02*
X95535714Y-91014819D01*
X95535714Y-91014819D02*
X95488095Y-91491009D01*
X95488095Y-91491009D02*
X95535714Y-91443390D01*
X95535714Y-91443390D02*
X95630952Y-91395771D01*
X95630952Y-91395771D02*
X95869047Y-91395771D01*
X95869047Y-91395771D02*
X95964285Y-91443390D01*
X95964285Y-91443390D02*
X96011904Y-91491009D01*
X96011904Y-91491009D02*
X96059523Y-91586247D01*
X96059523Y-91586247D02*
X96059523Y-91824342D01*
X96059523Y-91824342D02*
X96011904Y-91919580D01*
X96011904Y-91919580D02*
X95964285Y-91967200D01*
X95964285Y-91967200D02*
X95869047Y-92014819D01*
X95869047Y-92014819D02*
X95630952Y-92014819D01*
X95630952Y-92014819D02*
X95535714Y-91967200D01*
X95535714Y-91967200D02*
X95488095Y-91919580D01*
D12*
X100076190Y-84702219D02*
X100695237Y-84702219D01*
X100695237Y-84702219D02*
X100361904Y-85083171D01*
X100361904Y-85083171D02*
X100504761Y-85083171D01*
X100504761Y-85083171D02*
X100599999Y-85130790D01*
X100599999Y-85130790D02*
X100647618Y-85178409D01*
X100647618Y-85178409D02*
X100695237Y-85273647D01*
X100695237Y-85273647D02*
X100695237Y-85511742D01*
X100695237Y-85511742D02*
X100647618Y-85606980D01*
X100647618Y-85606980D02*
X100599999Y-85654600D01*
X100599999Y-85654600D02*
X100504761Y-85702219D01*
X100504761Y-85702219D02*
X100219047Y-85702219D01*
X100219047Y-85702219D02*
X100123809Y-85654600D01*
X100123809Y-85654600D02*
X100076190Y-85606980D01*
X101123809Y-85606980D02*
X101171428Y-85654600D01*
X101171428Y-85654600D02*
X101123809Y-85702219D01*
X101123809Y-85702219D02*
X101076190Y-85654600D01*
X101076190Y-85654600D02*
X101123809Y-85606980D01*
X101123809Y-85606980D02*
X101123809Y-85702219D01*
X101504761Y-84702219D02*
X102123808Y-84702219D01*
X102123808Y-84702219D02*
X101790475Y-85083171D01*
X101790475Y-85083171D02*
X101933332Y-85083171D01*
X101933332Y-85083171D02*
X102028570Y-85130790D01*
X102028570Y-85130790D02*
X102076189Y-85178409D01*
X102076189Y-85178409D02*
X102123808Y-85273647D01*
X102123808Y-85273647D02*
X102123808Y-85511742D01*
X102123808Y-85511742D02*
X102076189Y-85606980D01*
X102076189Y-85606980D02*
X102028570Y-85654600D01*
X102028570Y-85654600D02*
X101933332Y-85702219D01*
X101933332Y-85702219D02*
X101647618Y-85702219D01*
X101647618Y-85702219D02*
X101552380Y-85654600D01*
X101552380Y-85654600D02*
X101504761Y-85606980D01*
X103790475Y-85702219D02*
X103314285Y-85702219D01*
X103314285Y-85702219D02*
X103314285Y-84702219D01*
X103980952Y-84702219D02*
X104314285Y-85702219D01*
X104314285Y-85702219D02*
X104647618Y-84702219D01*
X105457142Y-85702219D02*
X104980952Y-85702219D01*
X104980952Y-85702219D02*
X104980952Y-84702219D01*
X107028571Y-84702219D02*
X106552381Y-84702219D01*
X106552381Y-84702219D02*
X106504762Y-85178409D01*
X106504762Y-85178409D02*
X106552381Y-85130790D01*
X106552381Y-85130790D02*
X106647619Y-85083171D01*
X106647619Y-85083171D02*
X106885714Y-85083171D01*
X106885714Y-85083171D02*
X106980952Y-85130790D01*
X106980952Y-85130790D02*
X107028571Y-85178409D01*
X107028571Y-85178409D02*
X107076190Y-85273647D01*
X107076190Y-85273647D02*
X107076190Y-85511742D01*
X107076190Y-85511742D02*
X107028571Y-85606980D01*
X107028571Y-85606980D02*
X106980952Y-85654600D01*
X106980952Y-85654600D02*
X106885714Y-85702219D01*
X106885714Y-85702219D02*
X106647619Y-85702219D01*
X106647619Y-85702219D02*
X106552381Y-85654600D01*
X106552381Y-85654600D02*
X106504762Y-85606980D01*
D11*
X59220180Y-94916666D02*
X58505895Y-94916666D01*
X58505895Y-94916666D02*
X58363038Y-94869047D01*
X58363038Y-94869047D02*
X58267800Y-94773809D01*
X58267800Y-94773809D02*
X58220180Y-94630952D01*
X58220180Y-94630952D02*
X58220180Y-94535714D01*
X58220180Y-95916666D02*
X58220180Y-95345238D01*
X58220180Y-95630952D02*
X59220180Y-95630952D01*
X59220180Y-95630952D02*
X59077323Y-95535714D01*
X59077323Y-95535714D02*
X58982085Y-95440476D01*
X58982085Y-95440476D02*
X58934466Y-95345238D01*
X70709524Y-87004819D02*
X71280952Y-87004819D01*
X70995238Y-88004819D02*
X70995238Y-87004819D01*
X71519048Y-88004819D02*
X72042857Y-87338152D01*
X71519048Y-87338152D02*
X72042857Y-88004819D01*
D13*
%TO.C,R13*%
X99415000Y-103827064D02*
X99415000Y-103372936D01*
X100885000Y-103827064D02*
X100885000Y-103372936D01*
%TO.C,D3*%
X103550000Y-97390000D02*
X102900000Y-97390000D01*
X103550000Y-97390000D02*
X104200000Y-97390000D01*
X103550000Y-100510000D02*
X102900000Y-100510000D01*
X103550000Y-100510000D02*
X104200000Y-100510000D01*
X104952500Y-100790000D02*
X104472500Y-100790000D01*
X104712500Y-100460000D01*
X104952500Y-100790000D01*
G36*
X104952500Y-100790000D02*
G01*
X104472500Y-100790000D01*
X104712500Y-100460000D01*
X104952500Y-100790000D01*
G37*
%TO.C,C4*%
X66136252Y-97765000D02*
X65613748Y-97765000D01*
X66136252Y-99235000D02*
X65613748Y-99235000D01*
%TO.C,U2*%
X81265000Y-100010000D02*
X81265000Y-105210000D01*
X81265000Y-105210000D02*
X87735000Y-105210000D01*
X83500000Y-100010000D02*
X81265000Y-100010000D01*
X87735000Y-100010000D02*
X85500000Y-100010000D01*
X87735000Y-105210000D02*
X87735000Y-100010000D01*
X85500000Y-100010000D02*
G75*
G02*
X83500000Y-100010000I-1000000J0D01*
G01*
%TO.C,R1*%
X66127064Y-95590000D02*
X65672936Y-95590000D01*
X66127064Y-97060000D02*
X65672936Y-97060000D01*
%TO.C,R4*%
X62027064Y-102565000D02*
X61572936Y-102565000D01*
X62027064Y-104035000D02*
X61572936Y-104035000D01*
%TO.C,R7*%
X71708314Y-90640000D02*
X71254186Y-90640000D01*
X71708314Y-92110000D02*
X71254186Y-92110000D01*
%TO.C,D1*%
X72540000Y-98240000D02*
X72540000Y-100925000D01*
X74460000Y-98240000D02*
X72540000Y-98240000D01*
X74460000Y-100925000D02*
X74460000Y-98240000D01*
%TO.C,R2*%
X66127064Y-93465000D02*
X65672936Y-93465000D01*
X66127064Y-94935000D02*
X65672936Y-94935000D01*
%TO.C,R8*%
X75015000Y-96502064D02*
X75015000Y-96047936D01*
X76485000Y-96502064D02*
X76485000Y-96047936D01*
%TO.C,R11*%
X104777064Y-89875000D02*
X104322936Y-89875000D01*
X104777064Y-91345000D02*
X104322936Y-91345000D01*
%TO.C,R16*%
X101177064Y-92015000D02*
X100722936Y-92015000D01*
X101177064Y-93485000D02*
X100722936Y-93485000D01*
%TO.C,Q1*%
X93900000Y-102090000D02*
X93250000Y-102090000D01*
X93900000Y-102090000D02*
X94550000Y-102090000D01*
X93900000Y-105210000D02*
X93250000Y-105210000D01*
X93900000Y-105210000D02*
X94550000Y-105210000D01*
X95302500Y-105490000D02*
X94822500Y-105490000D01*
X95062500Y-105160000D01*
X95302500Y-105490000D01*
G36*
X95302500Y-105490000D02*
G01*
X94822500Y-105490000D01*
X95062500Y-105160000D01*
X95302500Y-105490000D01*
G37*
%TO.C,C1*%
X70515000Y-100161252D02*
X70515000Y-99638748D01*
X71985000Y-100161252D02*
X71985000Y-99638748D01*
%TO.C,C5*%
X68190000Y-99638748D02*
X68190000Y-100161252D01*
X69660000Y-99638748D02*
X69660000Y-100161252D01*
%TO.C,U3*%
X81265000Y-94010000D02*
X81265000Y-99210000D01*
X81265000Y-99210000D02*
X83500000Y-99210000D01*
X85500000Y-99210000D02*
X87735000Y-99210000D01*
X87735000Y-94010000D02*
X81265000Y-94010000D01*
X87735000Y-99210000D02*
X87735000Y-94010000D01*
X83500000Y-99210000D02*
G75*
G02*
X85500000Y-99210000I1000000J0D01*
G01*
%TO.C,U4*%
X78300000Y-91060000D02*
X78300000Y-89060000D01*
X78540000Y-84600000D02*
X90440000Y-84600000D01*
X78540000Y-90820000D02*
X78540000Y-84600000D01*
X78540000Y-90820000D02*
X90440000Y-90820000D01*
X80300000Y-91060000D02*
X78300000Y-91060000D01*
X90440000Y-90820000D02*
X90440000Y-84600000D01*
%TO.C,D4*%
X103550000Y-93710000D02*
X106235000Y-93710000D01*
X106235000Y-91790000D02*
X103550000Y-91790000D01*
X106235000Y-93710000D02*
X106235000Y-91790000D01*
%TO.C,R14*%
X97015000Y-103372936D02*
X97015000Y-103827064D01*
X98485000Y-103372936D02*
X98485000Y-103827064D01*
%TO.C,U6*%
X97650000Y-96400000D02*
X95700000Y-96400000D01*
X97650000Y-96400000D02*
X99600000Y-96400000D01*
X97650000Y-101520000D02*
X95700000Y-101520000D01*
X97650000Y-101520000D02*
X99600000Y-101520000D01*
X94950000Y-96495000D02*
X94710000Y-96165000D01*
X95190000Y-96165000D01*
X94950000Y-96495000D01*
G36*
X94950000Y-96495000D02*
G01*
X94710000Y-96165000D01*
X95190000Y-96165000D01*
X94950000Y-96495000D01*
G37*
%TO.C,C7*%
X83763748Y-91590000D02*
X85186252Y-91590000D01*
X83763748Y-93410000D02*
X85186252Y-93410000D01*
%TO.C,R6*%
X73640000Y-90852064D02*
X73640000Y-90397936D01*
X75110000Y-90852064D02*
X75110000Y-90397936D01*
%TO.C,R3*%
X57672936Y-86325000D02*
X58127064Y-86325000D01*
X57672936Y-87795000D02*
X58127064Y-87795000D01*
%TO.C,C3*%
X65663748Y-89115000D02*
X66186252Y-89115000D01*
X65663748Y-90585000D02*
X66186252Y-90585000D01*
%TO.C,U1*%
X68640000Y-93140000D02*
X69365000Y-93140000D01*
X68640000Y-93865000D02*
X68640000Y-93140000D01*
X68640000Y-96635000D02*
X68640000Y-97360000D01*
X68640000Y-97360000D02*
X69365000Y-97360000D01*
X72135000Y-93140000D02*
X72620000Y-93140000D01*
X72860000Y-93865000D02*
X72860000Y-93440000D01*
X72860000Y-96635000D02*
X72860000Y-97360000D01*
X72860000Y-97360000D02*
X72135000Y-97360000D01*
X73190000Y-93380000D02*
X72860000Y-93140000D01*
X73190000Y-92900000D01*
X73190000Y-93380000D01*
G36*
X73190000Y-93380000D02*
G01*
X72860000Y-93140000D01*
X73190000Y-92900000D01*
X73190000Y-93380000D01*
G37*
%TO.C,R15*%
X105915000Y-98722936D02*
X105915000Y-99177064D01*
X107385000Y-98722936D02*
X107385000Y-99177064D01*
%TO.C,C8*%
X89238748Y-91765000D02*
X89761252Y-91765000D01*
X89238748Y-93235000D02*
X89761252Y-93235000D01*
%TO.C,U5*%
X91840000Y-89710000D02*
X91840000Y-93470000D01*
X91840000Y-93470000D02*
X93100000Y-93470000D01*
X98660000Y-89710000D02*
X98660000Y-93470000D01*
X98660000Y-93470000D02*
X97400000Y-93470000D01*
X98890000Y-88670000D02*
X98560000Y-88430000D01*
X98890000Y-88190000D01*
X98890000Y-88670000D01*
G36*
X98890000Y-88670000D02*
G01*
X98560000Y-88430000D01*
X98890000Y-88190000D01*
X98890000Y-88670000D01*
G37*
%TO.C,C6*%
X61588748Y-86325000D02*
X62111252Y-86325000D01*
X61588748Y-87795000D02*
X62111252Y-87795000D01*
%TO.C,R12*%
X104065000Y-103322936D02*
X104065000Y-103777064D01*
X105535000Y-103322936D02*
X105535000Y-103777064D01*
%TO.C,R10*%
X101665000Y-103827064D02*
X101665000Y-103372936D01*
X103135000Y-103827064D02*
X103135000Y-103372936D01*
%TO.C,J2*%
X99595000Y-88990000D02*
X99595000Y-87610000D01*
X100975000Y-88990000D02*
X99595000Y-88990000D01*
X102245000Y-86230000D02*
X107435000Y-86230000D01*
X102245000Y-88990000D02*
X102245000Y-86230000D01*
X102245000Y-88990000D02*
X107435000Y-88990000D01*
X107435000Y-88990000D02*
X107435000Y-86230000D01*
%TO.C,C2*%
X66186252Y-91315000D02*
X65663748Y-91315000D01*
X66186252Y-92785000D02*
X65663748Y-92785000D01*
%TO.C,J3*%
X110570000Y-101440000D02*
X110570000Y-86090000D01*
X113330000Y-86090000D02*
X110570000Y-86090000D01*
X113330000Y-101440000D02*
X110570000Y-101440000D01*
X113330000Y-101440000D02*
X113330000Y-86090000D01*
X113330000Y-102710000D02*
X113330000Y-104090000D01*
X113330000Y-104090000D02*
X111950000Y-104090000D01*
%TO.C,C9*%
X96761252Y-84765000D02*
X96238748Y-84765000D01*
X96761252Y-86235000D02*
X96238748Y-86235000D01*
%TO.C,J1*%
X59110000Y-90670000D02*
X60520000Y-90670000D01*
X59110000Y-99830000D02*
X60520000Y-99830000D01*
X63190000Y-91490000D02*
X63040000Y-91490000D01*
X63190000Y-92290000D02*
X63190000Y-91490000D01*
%TO.C,R9*%
X91865000Y-97682936D02*
X91865000Y-98137064D01*
X93335000Y-97682936D02*
X93335000Y-98137064D01*
%TO.C,D2*%
X69796250Y-88190000D02*
X69796250Y-90110000D01*
X69796250Y-90110000D02*
X72481250Y-90110000D01*
X72481250Y-88190000D02*
X69796250Y-88190000D01*
%TO.C,R5*%
X75015000Y-99685436D02*
X75015000Y-100139564D01*
X76485000Y-99685436D02*
X76485000Y-100139564D01*
%TD*%
M02*
